<?xml version="1.0" encoding="UTF-8"?>
<svg width="24px" height="22px" viewBox="0 0 24 22" version="1.1" xmlns="http://www.w3.org/2000/svg" xmlns:xlink="http://www.w3.org/1999/xlink">
    <title>audio</title>
    <g id="landingpage" stroke="none" stroke-width="1" fill="none" fill-rule="evenodd" stroke-linecap="round" stroke-linejoin="round">
        <g id="homepage" transform="translate(-620.000000, -1246.000000)" stroke="#1C1D1B" stroke-width="2.5">
            <g id="intro" transform="translate(-98.000000, 1141.000000)">
                <g id="text" transform="translate(718.000000, 26.000000)">
                    <g id="audio" transform="translate(2.000000, 81.000000)">
                        <path d="M14.4756908,1.67027225 C14.4756908,0.747806482 13.7278846,0 12.8054188,0 C9.17475238,-0.000817321835 5.90686678,2.20185564 4.54536692,5.56757362 L2.22702936,5.56757362 C0.997075006,5.56757362 0,6.56464863 0,7.79460298 L0,10.0216323 C0,11.2515867 0.997075006,12.2486617 2.22702936,12.2486617 L4.54536692,12.2486617 C5.90686678,15.6143797 9.17475238,17.8170526 12.8054188,17.8162353 C13.7278846,17.8162353 14.4756908,17.0684288 14.4756908,16.1459631 L14.4756908,1.67027225 Z" id="Path"></path>
                        <path d="M18.9297495,14.016923 C20.4145649,10.772882 20.4145649,7.04335337 18.9297495,3.79931231" id="Path"></path>
                    </g>
                </g>
            </g>
        </g>
    </g>
</svg>