<svg xmlns="http://www.w3.org/2000/svg" width="444" height="468.192" viewBox="0 0 444 468.192">
  <g id="Group_203" data-name="Group 203" transform="translate(-982.23 -718.808)">
    <g id="Group_72" data-name="Group 72" transform="translate(982.23 718.808)">
      <path id="Polygon_1" data-name="Polygon 1" d="M23.5,0,47,41H0Z" transform="matrix(0.875, -0.485, 0.485, 0.875, 9.46, 359.833)" fill="#ed1f27"/>
      <path id="Polygon_2" data-name="Polygon 2" d="M24.9,0l24.9,42.938H0Z" transform="translate(383.094 428.311) rotate(-138)" fill="#ed1f27"/>
      <path id="Polygon_3" data-name="Polygon 3" d="M27.5,0,55,47H0Z" transform="translate(246.907 2.46) rotate(93)" fill="#ed1f27"/>
    </g>
    <g id="Path_185" data-name="Path 185" transform="translate(982.23 743)" fill="none">
      <path d="M222,0C344.607,0,444,99.393,444,222A221.985,221.985,0,0,1,222,444C99.393,444,0,344.607,0,222S99.393,0,222,0Z" stroke="none"/>
      <path d="M 222 5 C 207.2735290527344 5 192.5578308105469 6.483306884765625 178.2616577148438 9.40875244140625 C 164.331298828125 12.25930786132812 150.6289978027344 16.5126953125 137.5353393554688 22.05087280273438 C 124.6782836914062 27.48895263671875 112.2772216796875 34.22006225585938 100.6766967773438 42.05722045898438 C 89.18511962890625 49.82083129882812 78.37875366210938 58.73687744140625 68.55783081054688 68.55783081054688 C 58.73687744140625 78.37875366210938 49.82083129882812 89.18511962890625 42.05722045898438 100.6766967773438 C 34.22006225585938 112.2772216796875 27.48895263671875 124.6782836914062 22.05087280273438 137.5353393554688 C 16.5126953125 150.6289978027344 12.25930786132812 164.331298828125 9.40875244140625 178.2616577148438 C 6.483306884765625 192.5578308105469 5 207.2735290527344 5 222 C 5 236.7264099121094 6.483306884765625 251.4421234130859 9.40875244140625 265.7383422851562 C 12.25930786132812 279.668701171875 16.5126953125 293.3710021972656 22.05087280273438 306.4646606445312 C 27.48895263671875 319.3217163085938 34.22006225585938 331.7227783203125 42.05722045898438 343.3232421875 C 49.82083129882812 354.8148803710938 58.73687744140625 365.6212463378906 68.55783081054688 375.4421691894531 C 78.37875366210938 385.2631225585938 89.18511962890625 394.1791687011719 100.6766967773438 401.9427490234375 C 112.2772216796875 409.7799377441406 124.6782836914062 416.5110473632812 137.5353393554688 421.9491271972656 C 150.6289978027344 427.4872436523438 164.331298828125 431.7406921386719 178.2616577148438 434.5912475585938 C 192.5578308105469 437.5166931152344 207.2735290527344 439 222 439 C 238.5308227539062 439 255.0058898925781 437.1347045898438 270.9674072265625 433.4559326171875 C 286.4805908203125 429.8804626464844 301.6255493164062 424.5672912597656 315.9815673828125 417.6639404296875 C 330.0753479003906 410.88671875 343.4742431640625 402.5471801757812 355.8061218261719 392.8768920898438 C 368.0528259277344 383.2734069824219 379.2823486328125 372.3306884765625 389.1827697753906 360.352783203125 C 396.9871826171875 350.9108276367188 404.03271484375 340.7654113769531 410.1236572265625 330.1985473632812 C 416.2817077636719 319.5152282714844 421.5510559082031 308.2493591308594 425.7853393554688 296.7139892578125 C 434.553955078125 272.8255920410156 439 247.6881713867188 439 222 C 439 207.2735290527344 437.5166931152344 192.5578308105469 434.5912475585938 178.2616577148438 C 431.7406921386719 164.331298828125 427.4872436523438 150.6289978027344 421.9491271972656 137.5353393554688 C 416.5110473632812 124.6782836914062 409.7799377441406 112.2772216796875 401.9427490234375 100.6766967773438 C 394.1791687011719 89.18511962890625 385.2631225585938 78.37875366210938 375.4421691894531 68.55783081054688 C 365.6212463378906 58.73687744140625 354.8148803710938 49.82083129882812 343.3232421875 42.05722045898438 C 331.7227783203125 34.22006225585938 319.3217163085938 27.48895263671875 306.4646606445312 22.05087280273438 C 293.3710021972656 16.5126953125 279.668701171875 12.25930786132812 265.7383422851562 9.40875244140625 C 251.4421234130859 6.483306884765625 236.7264099121094 5 222 5 M 222 0 C 344.607177734375 0 444 99.39276123046875 444 222 C 444 275.7019348144531 424.9320678710938 324.9503479003906 393.0366516113281 363.5382995605469 C 352.4783630371094 412.6073608398438 290.9052429199219 444 222 444 C 99.39276123046875 444 0 344.607177734375 0 222 C 0 99.39276123046875 99.39276123046875 0 222 0 Z" stroke="none" fill="#ed1f27"/>
    </g>
  </g>
</svg>
