<svg xmlns="http://www.w3.org/2000/svg" xmlns:xlink="http://www.w3.org/1999/xlink" width="94.775" height="84.044" viewBox="0 0 94.775 84.044">
  <defs>
    <clipPath id="clip-path">
      <rect id="Rectangle_78" data-name="Rectangle 78" width="94.775" height="84.044" fill="#ed1f27"/>
    </clipPath>
  </defs>
  <g id="Group_119" data-name="Group 119" clip-path="url(#clip-path)">
    <path id="Path_137" data-name="Path 137" d="M34.575,48.577a2.233,2.233,0,0,0,2.23-2.23v-2.23a8.917,8.917,0,1,0,0-17.833V17.367a4.682,4.682,0,0,1,4.458,4.457,2.207,2.207,0,1,0,4.413,0,9.14,9.14,0,0,0-8.917-8.915v-2.23a2.229,2.229,0,1,0-4.458,0v2.23a9.182,9.182,0,0,0-8.917,8.915A8.916,8.916,0,0,0,32.3,30.742v8.917a4.682,4.682,0,0,1-4.46-4.458,2.228,2.228,0,1,0-4.457,0A9.182,9.182,0,0,0,32.3,44.117v2.275a2.231,2.231,0,0,0,2.274,2.185ZM41.217,35.2a4.461,4.461,0,0,1-4.458,4.458V30.742A4.461,4.461,0,0,1,41.217,35.2M27.842,21.826l0,0a4.458,4.458,0,0,1,4.46-4.457v8.917a4.461,4.461,0,0,1-4.46-4.46Z" transform="translate(12.016 4.342)" fill="#ed1f27"/>
    <path id="Path_138" data-name="Path 138" d="M47.387,84.044a7.333,7.333,0,0,1-6.417-3.707L1.005,11.116a7.333,7.333,0,0,1,0-7.412A7.335,7.335,0,0,1,7.423,0h79.93a7.41,7.41,0,0,1,6.419,11.116L53.806,80.337a7.337,7.337,0,0,1-6.419,3.707M7.423,4.542a2.869,2.869,0,0,0-2.484,4.3L44.9,78.066a2.866,2.866,0,0,0,4.969,0h0L89.838,8.846a2.87,2.87,0,0,0-2.486-4.3Z" transform="translate(0 0.001)" fill="#ed1f27"/>
  </g>
</svg>
