<?xml version="1.0" encoding="UTF-8"?>
<svg width="27px" height="27px" viewBox="0 0 27 27" version="1.1" xmlns="http://www.w3.org/2000/svg" xmlns:xlink="http://www.w3.org/1999/xlink">
    <title>streamlinehq-download-bottom-internet-networks-servers-48</title>
    <g id="landingpage" stroke="none" stroke-width="1" fill="none" fill-rule="evenodd">
        <g id="homepage" transform="translate(-522.000000, -10640.000000)" fill="#D23929" fill-rule="nonzero">
            <g id="documents-and-resources" transform="translate(229.000000, 10390.000000)">
                <g id="cards" transform="translate(0.000000, 208.000000)">
                    <g id="Group-47" transform="translate(35.000000, 28.000000)">
                        <g id="streamlinehq-download-bottom-internet-networks-servers-48" transform="translate(258.000000, 14.000000)">
                            <path d="M25.36875,19.0575 C24.6151109,19.0575 24.0024274,19.6651363 23.99625,20.41875 L23.99625,22.5 C23.99625,23.4754729 23.2054729,24.26625 22.23,24.26625 L4.5,24.26625 C3.52452706,24.26625 2.73375,23.4754729 2.73375,22.5 L2.73375,20.41875 C2.66954361,19.711749 2.07678545,19.1703829 1.366875,19.1703829 C0.656964551,19.1703829 0.0642063857,19.711749 0,20.41875 L0,22.5 C0,24.9852814 2.01471863,27 4.5,27 L22.23,27 C24.7152814,27 26.73,24.9852814 26.73,22.5 L26.73,20.41875 C26.73,19.6669524 26.1205476,19.0575 25.36875,19.0575 L25.36875,19.0575 Z" id="Path"></path>
                            <path d="M13.365,0 C12.1596385,0 11.1825,0.977138533 11.1825,2.1825 L11.1825,12.375 C11.1825,12.5303301 11.0565801,12.65625 10.90125,12.65625 L7.90875,12.65625 C7.49681208,12.6844288 7.13341276,12.9360041 6.96202278,13.3116534 C6.7906328,13.6873026 6.83879698,14.1266537 7.0875,14.45625 L12.54375,20.73375 C12.7564557,20.9609441 13.0537752,21.089872 13.365,21.089872 C13.6762248,21.089872 13.9735443,20.9609441 14.18625,20.73375 L19.6425,14.45625 C19.891203,14.1266537 19.9393672,13.6873026 19.7679772,13.3116534 C19.5965872,12.9360041 19.2331879,12.6844288 18.82125,12.65625 L15.82875,12.65625 C15.6734199,12.65625 15.5475,12.5303301 15.5475,12.375 L15.5475,2.1825 C15.5475,0.977138533 14.5703615,0 13.365,0 Z" id="Path"></path>
                        </g>
                    </g>
                </g>
            </g>
        </g>
    </g>
</svg>