<?xml version="1.0" encoding="UTF-8"?>
<svg width="1686px" height="81px" viewBox="0 0 1686 81" version="1.1" xmlns="http://www.w3.org/2000/svg" xmlns:xlink="http://www.w3.org/1999/xlink">
    <title>texture</title>
    <g id="landingpage" stroke="none" stroke-width="1" fill="none" fill-rule="evenodd">
        <g id="homepage" transform="translate(69.000000, -6539.000000)" fill="#94795D">
            <g id="the-year-in-review" transform="translate(-1183.000000, 6248.000000)">
                <g id="texture" transform="translate(1114.000000, 291.000000)">
                    <g id="Group-2" transform="translate(662.000000, 0.000000)">
                        <path d="M913.745808,80 L918.959437,74.7767957 C925.918437,67.5266328 937.191316,56.301812 937.191316,49.9218355 C937.191316,56.3001434 948.460449,67.5220441 955.419865,74.7734585 L960.637241,80 L975.766007,62.1382349 L953.669498,39.9997914 L976,17.6269065 L960.637241,0 L955.419865,5.22654152 C948.460449,12.4779559 937.191316,23.6994394 937.191316,30.0781645 C937.191316,23.698188 925.918437,12.4733672 918.959437,5.22278712 L913.745808,0 L898.2698,17.5134402 L920.713551,39.9997914 L898,62.7564594 L913.745808,80 Z" id="Fill-1"></path>
                        <path d="M866.618291,80 L871.847636,74.7767957 C878.827612,67.5266328 890.134471,56.301812 890.134471,49.9218355 C890.134471,56.3001434 901.437572,67.5220441 908.417966,74.7734585 L913.651069,80 L928.936523,62.2496154 L906.662323,39.9997914 L929,17.6873941 L913.651069,0 L908.417966,5.22654152 C901.437572,12.4779559 890.134471,23.6994394 890.134471,30.0781645 C890.134471,23.698188 878.827612,12.4733672 871.847636,5.22278712 L866.618291,0 L851.347871,17.7658193 L873.607037,39.9997914 L851,62.5816712 L866.618291,80 Z" id="Fill-3"></path>
                        <path d="M819.618291,80 L824.847636,74.7767957 C831.827612,67.5266328 843.134471,56.301812 843.134471,49.9218355 C843.134471,56.3001434 854.437572,67.5220441 861.417966,74.7734585 L866.651069,80 L881.936523,62.2496154 L859.662323,39.9997914 L882,17.6873941 L866.651069,0 L861.417966,5.22654152 C854.437572,12.4779559 843.134471,23.6994394 843.134471,30.0781645 C843.134471,23.698188 831.827612,12.4733672 824.847636,5.22278712 L819.618291,0 L804.347871,17.7658193 L826.607037,39.9997914 L804,62.5816712 L819.618291,80 Z" id="Fill-5"></path>
                        <path d="M773.618291,80 L778.847636,74.7767957 C785.827612,67.5266328 797.134471,56.301812 797.134471,49.9218355 C797.134471,56.3001434 808.437572,67.5220441 815.417966,74.7734585 L820.651069,80 L835.936523,62.2496154 L813.662323,39.9997914 L836,17.6873941 L820.651069,0 L815.417966,5.22654152 C808.437572,12.4779559 797.134471,23.6994394 797.134471,30.0781645 C797.134471,23.698188 785.827612,12.4733672 778.847636,5.22278712 L773.618291,0 L758.347871,17.7658193 L780.607037,39.9997914 L758,62.5816712 L773.618291,80 Z" id="Fill-7"></path>
                        <path d="M677.618291,80 L682.847636,74.7767957 C689.827612,67.5266328 701.134471,56.301812 701.134471,49.9218355 C701.134471,56.3001434 712.437572,67.5220441 719.417966,74.7734585 L724.651069,80 L739.936523,62.2496154 L717.662323,39.9997914 L740,17.6873941 L724.651069,0 L719.417966,5.22654152 C712.437572,12.4779559 701.134471,23.6994394 701.134471,30.0781645 C701.134471,23.698188 689.827612,12.4733672 682.847636,5.22278712 L677.618291,0 L662.347871,17.7658193 L684.607037,39.9997914 L662,62.5816712 L677.618291,80 Z" id="Fill-11"></path>
                        <path d="M961.618291,80 L966.847636,74.7767957 C973.827612,67.5266328 985.134471,56.301812 985.134471,49.9218355 C985.134471,56.3001434 996.437572,67.5220441 1003.41797,74.7734585 L1008.65107,80 L1023.93652,62.2496154 L1001.66232,39.9997914 L1024,17.6873941 L1008.65107,0 L1003.41797,5.22654152 C996.437572,12.4779559 985.134471,23.6994394 985.134471,30.0781645 C985.134471,23.698188 973.827612,12.4733672 966.847636,5.22278712 L961.618291,0 L946.347871,17.7658193 L968.607037,39.9997914 L946,62.5816712 L961.618291,80 Z" id="Fill-14"></path>
                        <path d="M724.497221,80.4207275 L729.686028,75.1700539 C736.611897,67.8817616 747.831107,56.5979085 747.831107,50.1843791 C747.831107,56.5962311 759.046589,67.8771488 765.972872,75.1666991 L773.330006,81 L788,64.9848752 L764.230838,40.2101541 L788,16.0797814 L773.330006,0 L765.972872,6.35058677 C759.046589,13.6401371 747.831107,23.824077 747.831107,30.2363484 C747.831107,23.822819 736.611897,12.5389658 729.686028,5.25025424 L724.497221,0 L709.345175,17.8592514 L731.431791,40.2101541 L709,62.9107941 L724.497221,80.4207275 Z" id="Fill-9"></path>
                        <path d="M582.745808,80 L587.959437,74.7767957 C594.918437,67.5266328 606.191316,56.301812 606.191316,49.9218355 C606.191316,56.3001434 617.460449,67.5220441 624.419865,74.7734585 L629.637241,80 L644.766007,62.1382349 L622.669498,39.9997914 L645,17.6269065 L629.637241,0 L624.419865,5.22654152 C617.460449,12.4779559 606.191316,23.6994394 606.191316,30.0781645 C606.191316,23.698188 594.918437,12.4733672 587.959437,5.22278712 L582.745808,0 L567.2698,17.5134402 L589.713551,39.9997914 L567,62.7564594 L582.745808,80 Z" id="Fill-1"></path>
                        <path d="M535.618291,80 L540.847636,74.7767957 C547.827612,67.5266328 559.134471,56.301812 559.134471,49.9218355 C559.134471,56.3001434 570.437572,67.5220441 577.417966,74.7734585 L582.651069,80 L597.936523,62.2496154 L575.662323,39.9997914 L598,17.6873941 L582.651069,0 L577.417966,5.22654152 C570.437572,12.4779559 559.134471,23.6994394 559.134471,30.0781645 C559.134471,23.698188 547.827612,12.4733672 540.847636,5.22278712 L535.618291,0 L520.347871,17.7658193 L542.607037,39.9997914 L520,62.5816712 L535.618291,80 Z" id="Fill-3"></path>
                        <path d="M488.618291,80 L493.847636,74.7767957 C500.827612,67.5266328 512.134471,56.301812 512.134471,49.9218355 C512.134471,56.3001434 523.437572,67.5220441 530.417966,74.7734585 L535.651069,80 L550.936523,62.2496154 L528.662323,39.9997914 L551,17.6873941 L535.651069,0 L530.417966,5.22654152 C523.437572,12.4779559 512.134471,23.6994394 512.134471,30.0781645 C512.134471,23.698188 500.827612,12.4733672 493.847636,5.22278712 L488.618291,0 L473.347871,17.7658193 L495.607037,39.9997914 L473,62.5816712 L488.618291,80 Z" id="Fill-5"></path>
                        <path d="M442.618291,80 L447.847636,74.7767957 C454.827612,67.5266328 466.134471,56.301812 466.134471,49.9218355 C466.134471,56.3001434 477.437572,67.5220441 484.417966,74.7734585 L489.651069,80 L504.936523,62.2496154 L482.662323,39.9997914 L505,17.6873941 L489.651069,0 L484.417966,5.22654152 C477.437572,12.4779559 466.134471,23.6994394 466.134471,30.0781645 C466.134471,23.698188 454.827612,12.4733672 447.847636,5.22278712 L442.618291,0 L427.347871,17.7658193 L449.607037,39.9997914 L427,62.5816712 L442.618291,80 Z" id="Fill-7"></path>
                        <path d="M346.618291,80 L351.847636,74.7767957 C358.827612,67.5266328 370.134471,56.301812 370.134471,49.9218355 C370.134471,56.3001434 381.437572,67.5220441 388.417966,74.7734585 L393.651069,80 L408.936523,62.2496154 L386.662323,39.9997914 L409,17.6873941 L393.651069,0 L388.417966,5.22654152 C381.437572,12.4779559 370.134471,23.6994394 370.134471,30.0781645 C370.134471,23.698188 358.827612,12.4733672 351.847636,5.22278712 L346.618291,0 L331.347871,17.7658193 L353.607037,39.9997914 L331,62.5816712 L346.618291,80 Z" id="Fill-11"></path>
                        <path d="M630.618291,80 L635.847636,74.7767957 C642.827612,67.5266328 654.134471,56.301812 654.134471,49.9218355 C654.134471,56.3001434 665.437572,67.5220441 672.417966,74.7734585 L677.651069,80 L692.936523,62.2496154 L670.662323,39.9997914 L693,17.6873941 L677.651069,0 L672.417966,5.22654152 C665.437572,12.4779559 654.134471,23.6994394 654.134471,30.0781645 C654.134471,23.698188 642.827612,12.4733672 635.847636,5.22278712 L630.618291,0 L615.347871,17.7658193 L637.607037,39.9997914 L615,62.5816712 L630.618291,80 Z" id="Fill-14"></path>
                        <path d="M393.497221,80.4207275 L398.686028,75.1700539 C405.611897,67.8817616 416.831107,56.5979085 416.831107,50.1843791 C416.831107,56.5962311 428.046589,67.8771488 434.972872,75.1666991 L442.330006,81 L457,64.9848752 L433.230838,40.2101541 L457,16.0797814 L442.330006,0 L434.972872,6.35058677 C428.046589,13.6401371 416.831107,23.824077 416.831107,30.2363484 C416.831107,23.822819 405.611897,12.5389658 398.686028,5.25025424 L393.497221,0 L378.345175,17.8592514 L400.431791,40.2101541 L378,62.9107941 L393.497221,80.4207275 Z" id="Fill-9"></path>
                        <path d="M251.745808,80 L256.959437,74.7767957 C263.918437,67.5266328 275.191316,56.301812 275.191316,49.9218355 C275.191316,56.3001434 286.460449,67.5220441 293.419865,74.7734585 L298.637241,80 L313.766007,62.1382349 L291.669498,39.9997914 L314,17.6269065 L298.637241,0 L293.419865,5.22654152 C286.460449,12.4779559 275.191316,23.6994394 275.191316,30.0781645 C275.191316,23.698188 263.918437,12.4733672 256.959437,5.22278712 L251.745808,0 L236.2698,17.5134402 L258.713551,39.9997914 L236,62.7564594 L251.745808,80 Z" id="Fill-1"></path>
                        <path d="M204.618291,80 L209.847636,74.7767957 C216.827612,67.5266328 228.134471,56.301812 228.134471,49.9218355 C228.134471,56.3001434 239.437572,67.5220441 246.417966,74.7734585 L251.651069,80 L266.936523,62.2496154 L244.662323,39.9997914 L267,17.6873941 L251.651069,0 L246.417966,5.22654152 C239.437572,12.4779559 228.134471,23.6994394 228.134471,30.0781645 C228.134471,23.698188 216.827612,12.4733672 209.847636,5.22278712 L204.618291,0 L189.347871,17.7658193 L211.607037,39.9997914 L189,62.5816712 L204.618291,80 Z" id="Fill-3"></path>
                        <path d="M157.618291,80 L162.847636,74.7767957 C169.827612,67.5266328 181.134471,56.301812 181.134471,49.9218355 C181.134471,56.3001434 192.437572,67.5220441 199.417966,74.7734585 L204.651069,80 L219.936523,62.2496154 L197.662323,39.9997914 L220,17.6873941 L204.651069,0 L199.417966,5.22654152 C192.437572,12.4779559 181.134471,23.6994394 181.134471,30.0781645 C181.134471,23.698188 169.827612,12.4733672 162.847636,5.22278712 L157.618291,0 L142.347871,17.7658193 L164.607037,39.9997914 L142,62.5816712 L157.618291,80 Z" id="Fill-5"></path>
                        <path d="M111.618291,80 L116.847636,74.7767957 C123.827612,67.5266328 135.134471,56.301812 135.134471,49.9218355 C135.134471,56.3001434 146.437572,67.5220441 153.417966,74.7734585 L158.651069,80 L173.936523,62.2496154 L151.662323,39.9997914 L174,17.6873941 L158.651069,0 L153.417966,5.22654152 C146.437572,12.4779559 135.134471,23.6994394 135.134471,30.0781645 C135.134471,23.698188 123.827612,12.4733672 116.847636,5.22278712 L111.618291,0 L96.3478712,17.7658193 L118.607037,39.9997914 L96,62.5816712 L111.618291,80 Z" id="Fill-7"></path>
                        <path d="M15.6182914,80 L20.8476357,74.7767957 C27.8276117,67.5266328 39.1344712,56.301812 39.1344712,49.9218355 C39.1344712,56.3001434 50.4375723,67.5220441 57.4179659,74.7734585 L62.6510687,80 L77.9365229,62.2496154 L55.6623228,39.9997914 L78,17.6873941 L62.6510687,0 L57.4179659,5.22654152 C50.4375723,12.4779559 39.1344712,23.6994394 39.1344712,30.0781645 C39.1344712,23.698188 27.8276117,12.4733672 20.8476357,5.22278712 L15.6182914,0 L0.347871247,17.7658193 L22.6070373,39.9997914 L0,62.5816712 L15.6182914,80 Z" id="Fill-11"></path>
                        <path d="M299.618291,80 L304.847636,74.7767957 C311.827612,67.5266328 323.134471,56.301812 323.134471,49.9218355 C323.134471,56.3001434 334.437572,67.5220441 341.417966,74.7734585 L346.651069,80 L361.936523,62.2496154 L339.662323,39.9997914 L362,17.6873941 L346.651069,0 L341.417966,5.22654152 C334.437572,12.4779559 323.134471,23.6994394 323.134471,30.0781645 C323.134471,23.698188 311.827612,12.4733672 304.847636,5.22278712 L299.618291,0 L284.347871,17.7658193 L306.607037,39.9997914 L284,62.5816712 L299.618291,80 Z" id="Fill-14"></path>
                        <path d="M62.4972211,80.4207275 L67.6860284,75.1700539 C74.6118968,67.8817616 85.8311075,56.5979085 85.8311075,50.1843791 C85.8311075,56.5962311 97.0465888,67.8771488 103.972872,75.1666991 L111.330006,81 L126,64.9848752 L102.230838,40.2101541 L126,16.0797814 L111.330006,0 L103.972872,6.35058677 C97.0465888,13.6401371 85.8311075,23.824077 85.8311075,30.2363484 C85.8311075,23.822819 74.6118968,12.5389658 67.6860284,5.25025424 L62.4972211,0 L47.3451746,17.8592514 L69.4317914,40.2101541 L47,62.9107941 L62.4972211,80.4207275 Z" id="Fill-9"></path>
                    </g>
                    <g id="Group-17" transform="translate(332.000000, 0.000000)">
                        <path d="M251.745808,80 L256.959437,74.7767957 C263.918437,67.5266328 275.191316,56.301812 275.191316,49.9218355 C275.191316,56.3001434 286.460449,67.5220441 293.419865,74.7734585 L298.637241,80 L313.766007,62.1382349 L291.669498,39.9997914 L314,17.6269065 L298.637241,0 L293.419865,5.22654152 C286.460449,12.4779559 275.191316,23.6994394 275.191316,30.0781645 C275.191316,23.698188 263.918437,12.4733672 256.959437,5.22278712 L251.745808,0 L236.2698,17.5134402 L258.713551,39.9997914 L236,62.7564594 L251.745808,80 Z" id="Fill-1"></path>
                        <path d="M204.618291,80 L209.847636,74.7767957 C216.827612,67.5266328 228.134471,56.301812 228.134471,49.9218355 C228.134471,56.3001434 239.437572,67.5220441 246.417966,74.7734585 L251.651069,80 L266.936523,62.2496154 L244.662323,39.9997914 L267,17.6873941 L251.651069,0 L246.417966,5.22654152 C239.437572,12.4779559 228.134471,23.6994394 228.134471,30.0781645 C228.134471,23.698188 216.827612,12.4733672 209.847636,5.22278712 L204.618291,0 L189.347871,17.7658193 L211.607037,39.9997914 L189,62.5816712 L204.618291,80 Z" id="Fill-3"></path>
                        <path d="M157.618291,80 L162.847636,74.7767957 C169.827612,67.5266328 181.134471,56.301812 181.134471,49.9218355 C181.134471,56.3001434 192.437572,67.5220441 199.417966,74.7734585 L204.651069,80 L219.936523,62.2496154 L197.662323,39.9997914 L220,17.6873941 L204.651069,0 L199.417966,5.22654152 C192.437572,12.4779559 181.134471,23.6994394 181.134471,30.0781645 C181.134471,23.698188 169.827612,12.4733672 162.847636,5.22278712 L157.618291,0 L142.347871,17.7658193 L164.607037,39.9997914 L142,62.5816712 L157.618291,80 Z" id="Fill-5"></path>
                        <path d="M111.618291,80 L116.847636,74.7767957 C123.827612,67.5266328 135.134471,56.301812 135.134471,49.9218355 C135.134471,56.3001434 146.437572,67.5220441 153.417966,74.7734585 L158.651069,80 L173.936523,62.2496154 L151.662323,39.9997914 L174,17.6873941 L158.651069,0 L153.417966,5.22654152 C146.437572,12.4779559 135.134471,23.6994394 135.134471,30.0781645 C135.134471,23.698188 123.827612,12.4733672 116.847636,5.22278712 L111.618291,0 L96.3478712,17.7658193 L118.607037,39.9997914 L96,62.5816712 L111.618291,80 Z" id="Fill-7"></path>
                        <path d="M15.6182914,80 L20.8476357,74.7767957 C27.8276117,67.5266328 39.1344712,56.301812 39.1344712,49.9218355 C39.1344712,56.3001434 50.4375723,67.5220441 57.4179659,74.7734585 L62.6510687,80 L77.9365229,62.2496154 L55.6623228,39.9997914 L78,17.6873941 L62.6510687,0 L57.4179659,5.22654152 C50.4375723,12.4779559 39.1344712,23.6994394 39.1344712,30.0781645 C39.1344712,23.698188 27.8276117,12.4733672 20.8476357,5.22278712 L15.6182914,0 L0.347871247,17.7658193 L22.6070373,39.9997914 L0,62.5816712 L15.6182914,80 Z" id="Fill-11"></path>
                        <path d="M299.618291,80 L304.847636,74.7767957 C311.827612,67.5266328 323.134471,56.301812 323.134471,49.9218355 C323.134471,56.3001434 334.437572,67.5220441 341.417966,74.7734585 L346.651069,80 L361.936523,62.2496154 L339.662323,39.9997914 L362,17.6873941 L346.651069,0 L341.417966,5.22654152 C334.437572,12.4779559 323.134471,23.6994394 323.134471,30.0781645 C323.134471,23.698188 311.827612,12.4733672 304.847636,5.22278712 L299.618291,0 L284.347871,17.7658193 L306.607037,39.9997914 L284,62.5816712 L299.618291,80 Z" id="Fill-14"></path>
                        <path d="M62.4972211,80.4207275 L67.6860284,75.1700539 C74.6118968,67.8817616 85.8311075,56.5979085 85.8311075,50.1843791 C85.8311075,56.5962311 97.0465888,67.8771488 103.972872,75.1666991 L111.330006,81 L126,64.9848752 L102.230838,40.2101541 L126,16.0797814 L111.330006,0 L103.972872,6.35058677 C97.0465888,13.6401371 85.8311075,23.824077 85.8311075,30.2363484 C85.8311075,23.822819 74.6118968,12.5389658 67.6860284,5.25025424 L62.4972211,0 L47.3451746,17.8592514 L69.4317914,40.2101541 L47,62.9107941 L62.4972211,80.4207275 Z" id="Fill-9"></path>
                    </g>
                    <g id="Group-17">
                        <path d="M251.745808,80 L256.959437,74.7767957 C263.918437,67.5266328 275.191316,56.301812 275.191316,49.9218355 C275.191316,56.3001434 286.460449,67.5220441 293.419865,74.7734585 L298.637241,80 L313.766007,62.1382349 L291.669498,39.9997914 L314,17.6269065 L298.637241,0 L293.419865,5.22654152 C286.460449,12.4779559 275.191316,23.6994394 275.191316,30.0781645 C275.191316,23.698188 263.918437,12.4733672 256.959437,5.22278712 L251.745808,0 L236.2698,17.5134402 L258.713551,39.9997914 L236,62.7564594 L251.745808,80 Z" id="Fill-1"></path>
                        <path d="M204.618291,80 L209.847636,74.7767957 C216.827612,67.5266328 228.134471,56.301812 228.134471,49.9218355 C228.134471,56.3001434 239.437572,67.5220441 246.417966,74.7734585 L251.651069,80 L266.936523,62.2496154 L244.662323,39.9997914 L267,17.6873941 L251.651069,0 L246.417966,5.22654152 C239.437572,12.4779559 228.134471,23.6994394 228.134471,30.0781645 C228.134471,23.698188 216.827612,12.4733672 209.847636,5.22278712 L204.618291,0 L189.347871,17.7658193 L211.607037,39.9997914 L189,62.5816712 L204.618291,80 Z" id="Fill-3"></path>
                        <path d="M157.618291,80 L162.847636,74.7767957 C169.827612,67.5266328 181.134471,56.301812 181.134471,49.9218355 C181.134471,56.3001434 192.437572,67.5220441 199.417966,74.7734585 L204.651069,80 L219.936523,62.2496154 L197.662323,39.9997914 L220,17.6873941 L204.651069,0 L199.417966,5.22654152 C192.437572,12.4779559 181.134471,23.6994394 181.134471,30.0781645 C181.134471,23.698188 169.827612,12.4733672 162.847636,5.22278712 L157.618291,0 L142.347871,17.7658193 L164.607037,39.9997914 L142,62.5816712 L157.618291,80 Z" id="Fill-5"></path>
                        <path d="M111.618291,80 L116.847636,74.7767957 C123.827612,67.5266328 135.134471,56.301812 135.134471,49.9218355 C135.134471,56.3001434 146.437572,67.5220441 153.417966,74.7734585 L158.651069,80 L173.936523,62.2496154 L151.662323,39.9997914 L174,17.6873941 L158.651069,0 L153.417966,5.22654152 C146.437572,12.4779559 135.134471,23.6994394 135.134471,30.0781645 C135.134471,23.698188 123.827612,12.4733672 116.847636,5.22278712 L111.618291,0 L96.3478712,17.7658193 L118.607037,39.9997914 L96,62.5816712 L111.618291,80 Z" id="Fill-7"></path>
                        <path d="M15.6182914,80 L20.8476357,74.7767957 C27.8276117,67.5266328 39.1344712,56.301812 39.1344712,49.9218355 C39.1344712,56.3001434 50.4375723,67.5220441 57.4179659,74.7734585 L62.6510687,80 L77.9365229,62.2496154 L55.6623228,39.9997914 L78,17.6873941 L62.6510687,0 L57.4179659,5.22654152 C50.4375723,12.4779559 39.1344712,23.6994394 39.1344712,30.0781645 C39.1344712,23.698188 27.8276117,12.4733672 20.8476357,5.22278712 L15.6182914,0 L0.347871247,17.7658193 L22.6070373,39.9997914 L0,62.5816712 L15.6182914,80 Z" id="Fill-11"></path>
                        <path d="M299.618291,80 L304.847636,74.7767957 C311.827612,67.5266328 323.134471,56.301812 323.134471,49.9218355 C323.134471,56.3001434 334.437572,67.5220441 341.417966,74.7734585 L346.651069,80 L361.936523,62.2496154 L339.662323,39.9997914 L362,17.6873941 L346.651069,0 L341.417966,5.22654152 C334.437572,12.4779559 323.134471,23.6994394 323.134471,30.0781645 C323.134471,23.698188 311.827612,12.4733672 304.847636,5.22278712 L299.618291,0 L284.347871,17.7658193 L306.607037,39.9997914 L284,62.5816712 L299.618291,80 Z" id="Fill-14"></path>
                        <path d="M62.4972211,80.4207275 L67.6860284,75.1700539 C74.6118968,67.8817616 85.8311075,56.5979085 85.8311075,50.1843791 C85.8311075,56.5962311 97.0465888,67.8771488 103.972872,75.1666991 L111.330006,81 L126,64.9848752 L102.230838,40.2101541 L126,16.0797814 L111.330006,0 L103.972872,6.35058677 C97.0465888,13.6401371 85.8311075,23.824077 85.8311075,30.2363484 C85.8311075,23.822819 74.6118968,12.5389658 67.6860284,5.25025424 L62.4972211,0 L47.3451746,17.8592514 L69.4317914,40.2101541 L47,62.9107941 L62.4972211,80.4207275 Z" id="Fill-9"></path>
                    </g>
                </g>
            </g>
        </g>
    </g>
</svg>