<?xml version="1.0" encoding="UTF-8"?>
<svg width="1668px" height="133px" viewBox="0 0 1668 133" version="1.1" xmlns="http://www.w3.org/2000/svg" xmlns:xlink="http://www.w3.org/1999/xlink">
    <title>Group 4</title>
    <g id="landingpage" stroke="none" stroke-width="1" fill="none" fill-rule="evenodd">
        <g transform="translate(0.000000, -292.000000)" fill="#FFFFFF" id="header">
            <g transform="translate(-20.000000, 33.000000)">
                <g id="bkg" transform="translate(0.000000, 86.000000)">
                    <g id="Group-4" transform="translate(20.000000, 173.000000)">
                        <g id="Group-2">
                            <path d="M1489.63741,131 L1498.12626,122.512293 C1509.45694,110.730778 1527.8115,92.4904445 1527.8115,82.1229827 C1527.8115,92.487733 1546.15996,110.723322 1557.49132,122.50687 L1565.98628,131 L1590.61901,101.974632 L1554.64136,65.9996611 L1591,29.6437231 L1565.98628,1 L1557.49132,9.49312997 C1546.15996,21.2766784 1527.8115,39.5115891 1527.8115,49.8770173 C1527.8115,39.5095555 1509.45694,21.2692217 1498.12626,9.48702907 L1489.63741,1 L1464.43929,29.4593404 L1500.98232,65.9996611 L1464,102.979247 L1489.63741,131 Z" id="Fill-1"></path>
                            <path d="M1413.42978,131 L1421.94423,122.512293 C1433.30906,110.730778 1451.71895,92.4904445 1451.71895,82.1229827 C1451.71895,92.487733 1470.12271,110.723322 1481.48823,122.50687 L1490.00879,131 L1514.89665,102.155625 L1478.62968,65.9996611 L1515,29.7420154 L1490.00879,1 L1481.48823,9.49312997 C1470.12271,21.2766784 1451.71895,39.5115891 1451.71895,49.8770173 C1451.71895,39.5095555 1433.30906,21.2692217 1421.94423,9.48702907 L1413.42978,1 L1388.56641,29.8694564 L1424.80889,65.9996611 L1388,102.695216 L1413.42978,131 Z" id="Fill-3"></path>
                            <path d="M1336.42978,131 L1344.94423,122.512293 C1356.30906,110.730778 1374.71895,92.4904445 1374.71895,82.1229827 C1374.71895,92.487733 1393.12271,110.723322 1404.48823,122.50687 L1413.00879,131 L1437.89665,102.155625 L1401.62968,65.9996611 L1438,29.7420154 L1413.00879,1 L1404.48823,9.49312997 C1393.12271,21.2766784 1374.71895,39.5115891 1374.71895,49.8770173 C1374.71895,39.5095555 1356.30906,21.2692217 1344.94423,9.48702907 L1336.42978,1 L1311.56641,29.8694564 L1347.80889,65.9996611 L1311,102.695216 L1336.42978,131 Z" id="Fill-5"></path>
                            <path d="M1261.0452,133 L1270.80889,124.858795 C1282.17373,113.07728 1297.71895,92.4904445 1297.71895,82.1229827 C1297.71895,92.487733 1316.12271,110.723322 1327.48823,122.50687 L1336.00879,131 L1360.89665,102.155625 L1324.62968,65.9996611 L1361,29.7420154 L1336.00879,1 L1327.48823,9.49312997 C1316.12271,21.2766784 1297.71895,39.5115891 1297.71895,49.8770173 C1297.71895,39.5095555 1279.30906,21.2692217 1267.94423,9.48702907 L1259.42978,1 L1234.56641,29.8694564 L1270.80889,65.9996611 L1234,102.695216 L1261.0452,133 Z" id="Fill-7"></path>
                            <path d="M1105.42978,131 L1113.94423,122.512293 C1125.30906,110.730778 1143.71895,92.4904445 1143.71895,82.1229827 C1143.71895,92.487733 1162.12271,110.723322 1173.48823,122.50687 L1182.00879,131 L1206.89665,102.155625 L1170.62968,65.9996611 L1207,29.7420154 L1182.00879,1 L1173.48823,9.49312997 C1162.12271,21.2766784 1143.71895,39.5115891 1143.71895,49.8770173 C1143.71895,39.5095555 1125.30906,21.2692217 1113.94423,9.48702907 L1105.42978,1 L1080.56641,29.8694564 L1116.80889,65.9996611 L1080,102.695216 L1105.42978,131 Z" id="Fill-11"></path>
                            <path d="M1566.42978,131 L1574.94423,122.512293 C1586.30906,110.730778 1604.71895,92.4904445 1604.71895,82.1229827 C1604.71895,92.487733 1623.12271,110.723322 1634.48823,122.50687 L1643.00879,131 L1667.89665,102.155625 L1631.62968,65.9996611 L1668,29.7420154 L1643.00879,1 L1634.48823,9.49312997 C1623.12271,21.2766784 1604.71895,39.5115891 1604.71895,49.8770173 C1604.71895,39.5095555 1586.30906,21.2692217 1574.94423,9.48702907 L1566.42978,1 L1541.56641,29.8694564 L1577.80889,65.9996611 L1541,102.695216 L1566.42978,131 Z" id="Fill-14"></path>
                            <path d="M1181.30559,132.056 L1189.77845,123.499347 C1201.08778,111.62213 1219.40776,93.2336287 1219.40776,82.7819511 C1219.40776,93.2308951 1237.72165,111.614613 1249.03165,123.49388 L1261.0452,133 L1285,106.901278 L1246.18706,66.5276585 L1285,27.2040883 L1261.0452,1 L1249.03165,11.3491044 C1237.72165,23.2283715 1219.40776,39.8244218 1219.40776,50.2740492 C1219.40776,39.8223716 1201.08778,21.4338702 1189.77845,9.55596988 L1181.30559,1 L1156.56364,30.1039653 L1192.62913,66.5276585 L1156,103.521294 L1181.30559,132.056 Z" id="Fill-9"></path>
                            <path d="M950.637406,131 L959.126263,122.512293 C970.456942,110.730778 988.811502,92.4904445 988.811502,82.1229827 C988.811502,92.487733 1007.15996,110.723322 1018.49132,122.50687 L1026.98628,131 L1051.61901,101.974632 L1015.64136,65.9996611 L1052,29.6437231 L1026.98628,1 L1018.49132,9.49312997 C1007.15996,21.2766784 988.811502,39.5115891 988.811502,49.8770173 C988.811502,39.5095555 970.456942,21.2692217 959.126263,9.48702907 L950.637406,1 L925.439289,29.4593404 L961.982321,65.9996611 L925,102.979247 L950.637406,131 Z" id="Fill-1"></path>
                            <path d="M873.429782,131 L881.944227,122.512293 C893.30906,110.730778 911.718947,92.4904445 911.718947,82.1229827 C911.718947,92.487733 930.122714,110.723322 941.488227,122.50687 L950.008791,131 L974.896646,102.155625 L938.629679,65.9996611 L975,29.7420154 L950.008791,1 L941.488227,9.49312997 C930.122714,21.2766784 911.718947,39.5115891 911.718947,49.8770173 C911.718947,39.5095555 893.30906,21.2692217 881.944227,9.48702907 L873.429782,1 L848.566406,29.8694564 L884.808894,65.9996611 L848,102.695216 L873.429782,131 Z" id="Fill-3"></path>
                            <path d="M797.429782,131 L805.944227,122.512293 C817.30906,110.730778 835.718947,92.4904445 835.718947,82.1229827 C835.718947,92.487733 854.122714,110.723322 865.488227,122.50687 L874.008791,131 L898.896646,102.155625 L862.629679,65.9996611 L899,29.7420154 L874.008791,1 L865.488227,9.49312997 C854.122714,21.2766784 835.718947,39.5115891 835.718947,49.8770173 C835.718947,39.5095555 817.30906,21.2692217 805.944227,9.48702907 L797.429782,1 L772.566406,29.8694564 L808.808894,65.9996611 L772,102.695216 L797.429782,131 Z" id="Fill-5"></path>
                            <path d="M721.429782,131 L729.944227,122.512293 C741.30906,110.730778 759.718947,92.4904445 759.718947,82.1229827 C759.718947,92.487733 778.122714,110.723322 789.488227,122.50687 L798.008791,131 L822.896646,102.155625 L786.629679,65.9996611 L823,29.7420154 L798.008791,1 L789.488227,9.49312997 C778.122714,21.2766784 759.718947,39.5115891 759.718947,49.8770173 C759.718947,39.5095555 741.30906,21.2692217 729.944227,9.48702907 L721.429782,1 L696.566406,29.8694564 L732.808894,65.9996611 L696,102.695216 L721.429782,131 Z" id="Fill-7"></path>
                            <path d="M565.429782,131 L573.944227,122.512293 C585.30906,110.730778 603.718947,92.4904445 603.718947,82.1229827 C603.718947,92.487733 622.122714,110.723322 633.488227,122.50687 L642.008791,131 L666.896646,102.155625 L630.629679,65.9996611 L667,29.7420154 L642.008791,1 L633.488227,9.49312997 C622.122714,21.2766784 603.718947,39.5115891 603.718947,49.8770173 C603.718947,39.5095555 585.30906,21.2692217 573.944227,9.48702907 L565.429782,1 L540.566406,29.8694564 L576.808894,65.9996611 L540,102.695216 L565.429782,131 Z" id="Fill-11"></path>
                            <path d="M1027.42978,131 L1035.94423,122.512293 C1047.30906,110.730778 1065.71895,92.4904445 1065.71895,82.1229827 C1065.71895,92.487733 1084.12271,110.723322 1095.48823,122.50687 L1104.00879,131 L1128.89665,102.155625 L1092.62968,65.9996611 L1129,29.7420154 L1104.00879,1 L1095.48823,9.49312997 C1084.12271,21.2766784 1065.71895,39.5115891 1065.71895,49.8770173 C1065.71895,39.5095555 1047.30906,21.2692217 1035.94423,9.48702907 L1027.42978,1 L1002.56641,29.8694564 L1038.80889,65.9996611 L1002,102.695216 L1027.42978,131 Z" id="Fill-14"></path>
                            <path d="M641.305589,132.056 L649.778451,123.499347 C661.087781,111.62213 679.407758,93.2336287 679.407758,82.7819511 C679.407758,93.2308951 697.721645,111.614613 709.031651,123.49388 L721.0452,133 L745,106.901278 L706.187065,66.5276585 L745,27.2040883 L721.0452,1 L709.031651,11.3491044 C697.721645,23.2283715 679.407758,39.8244218 679.407758,50.2740492 C679.407758,39.8223716 661.087781,21.4338702 649.778451,9.55596988 L641.305589,1 L616.56364,30.1039653 L652.629128,66.5276585 L616,103.521294 L641.305589,132.056 Z" id="Fill-9"></path>
                            <path d="M411.637406,131 L420.126263,122.512293 C431.456942,110.730778 449.811502,92.4904445 449.811502,82.1229827 C449.811502,92.487733 468.159961,110.723322 479.491318,122.50687 L487.986276,131 L512.619012,101.974632 L476.641361,65.9996611 L513,29.6437231 L487.986276,1 L479.491318,9.49312997 C468.159961,21.2766784 449.811502,39.5115891 449.811502,49.8770173 C449.811502,39.5095555 431.456942,21.2692217 420.126263,9.48702907 L411.637406,1 L386.439289,29.4593404 L422.982321,65.9996611 L386,102.979247 L411.637406,131 Z" id="Fill-1"></path>
                            <path d="M334.429782,131 L342.944227,122.512293 C354.30906,110.730778 372.718947,92.4904445 372.718947,82.1229827 C372.718947,92.487733 391.122714,110.723322 402.488227,122.50687 L411.008791,131 L435.896646,102.155625 L399.629679,65.9996611 L436,29.7420154 L411.008791,1 L402.488227,9.49312997 C391.122714,21.2766784 372.718947,39.5115891 372.718947,49.8770173 C372.718947,39.5095555 354.30906,21.2692217 342.944227,9.48702907 L334.429782,1 L309.566406,29.8694564 L345.808894,65.9996611 L309,102.695216 L334.429782,131 Z" id="Fill-3"></path>
                            <path d="M257.429782,131 L265.944227,122.512293 C277.30906,110.730778 295.718947,92.4904445 295.718947,82.1229827 C295.718947,92.487733 314.122714,110.723322 325.488227,122.50687 L334.008791,131 L358.896646,102.155625 L322.629679,65.9996611 L359,29.7420154 L334.008791,1 L325.488227,9.49312997 C314.122714,21.2766784 295.718947,39.5115891 295.718947,49.8770173 C295.718947,39.5095555 277.30906,21.2692217 265.944227,9.48702907 L257.429782,1 L232.566406,29.8694564 L268.808894,65.9996611 L232,102.695216 L257.429782,131 Z" id="Fill-5"></path>
                            <path d="M181.429782,131 L189.944227,122.512293 C201.30906,110.730778 219.718947,92.4904445 219.718947,82.1229827 C219.718947,92.487733 238.122714,110.723322 249.488227,122.50687 L258.008791,131 L282.896646,102.155625 L246.629679,65.9996611 L283,29.7420154 L258.008791,1 L249.488227,9.49312997 C238.122714,21.2766784 219.718947,39.5115891 219.718947,49.8770173 C219.718947,39.5095555 201.30906,21.2692217 189.944227,9.48702907 L181.429782,1 L156.566406,29.8694564 L192.808894,65.9996611 L156,102.695216 L181.429782,131 Z" id="Fill-7"></path>
                            <path d="M25.4297822,132 L33.9442273,123.512293 C45.3090601,111.730778 63.7189468,93.4904445 63.7189468,83.1229827 C63.7189468,93.487733 82.1227138,111.723322 93.4882265,123.50687 L102.008791,132 L126.896646,103.155625 L90.6296794,66.9996611 L127,30.7420154 L102.008791,2 L93.4882265,10.49313 C82.1227138,22.2766784 63.7189468,40.5115891 63.7189468,50.8770173 C63.7189468,40.5095555 45.3090601,22.2692217 33.9442273,10.4870291 L25.4297822,2 L0.566405748,30.8694564 L36.8088941,66.9996611 L0,103.695216 L25.4297822,132 Z" id="Fill-11"></path>
                            <path d="M488.429782,131 L496.944227,122.512293 C508.30906,110.730778 526.718947,92.4904445 526.718947,82.1229827 C526.718947,92.487733 545.122714,110.723322 556.488227,122.50687 L565.008791,131 L589.896646,102.155625 L553.629679,65.9996611 L590,29.7420154 L565.008791,1 L556.488227,9.49312997 C545.122714,21.2766784 526.718947,39.5115891 526.718947,49.8770173 C526.718947,39.5095555 508.30906,21.2692217 496.944227,9.48702907 L488.429782,1 L463.566406,29.8694564 L499.808894,65.9996611 L463,102.695216 L488.429782,131 Z" id="Fill-14"></path>
                            <path d="M101.305589,131.056 L109.778451,122.499347 C121.087781,110.62213 139.407758,92.2336287 139.407758,81.7819511 C139.407758,92.2308951 157.721645,110.614613 169.031651,122.49388 L181.0452,132 L205,105.901278 L166.187065,65.5276585 L205,26.2040883 L181.0452,0 L169.031651,10.3491044 C157.721645,22.2283715 139.407758,38.8244218 139.407758,49.2740492 C139.407758,38.8223716 121.087781,20.4338702 109.778451,8.55596988 L101.305589,0 L76.5636396,29.1039653 L112.629128,65.5276585 L76,102.521294 L101.305589,131.056 Z" id="Fill-9"></path>
                        </g>
                        <rect id="Rectangle" x="41" y="52" width="1547" height="29"></rect>
                    </g>
                </g>
            </g>
        </g>
    </g>
</svg>