<?xml version="1.0" encoding="UTF-8"?>
<svg width="178px" height="121px" viewBox="0 0 178 121" version="1.1" xmlns="http://www.w3.org/2000/svg" xmlns:xlink="http://www.w3.org/1999/xlink">
    <title>4722367_architecture_building_education_exterior_learn_icon</title>
    <g id="landingpage" stroke="none" stroke-width="1" fill="none" fill-rule="evenodd">
        <g id="homepage" transform="translate(-278.000000, -2772.000000)" fill-rule="nonzero">
            <g id="operational-highlights" transform="translate(0.000000, 1917.000000)">
                <g id="students" transform="translate(230.000000, 817.000000)">
                    <g id="4722367_architecture_building_education_exterior_learn_icon" transform="translate(48.000000, 38.000000)">
                        <rect id="Rectangle" fill="#F9A156" x="89" y="0" width="13" height="11"></rect>
                        <polygon id="Path" fill="#E6EBF4" points="89 59 10 59 10 111 89 111 168 111 168 59"></polygon>
                        <polygon id="Path" fill="#E6EBF4" points="64 111 89 111 114 111 114 59 89 59 64 59"></polygon>
                        <path d="M66,75.2074417 L66,111 L75.2641051,111 L75.2641051,85.573432 C75.2641051,82.8242004 76.3522806,80.1875702 78.2892455,78.24357 C80.2262103,76.2995697 82.8532984,75.2074417 85.5925803,75.2074417 L111,75.2074417 L111,66 L66,66 L66,75.2074417 Z" id="Path" fill="#C3CCDB"></path>
                        <path d="M15.8999899,96 L37.0988944,96 C38.6638623,95.9996978 40.1648345,96.634491 41.2715385,97.7647005 C42.3782426,98.8949099 43,100.427931 43,102.02644 L43,111 L10,111 L10,102.02644 C10,98.6981291 12.6415154,96 15.8999899,96 Z" id="Path" fill="#C3CCDB"></path>
                        <path d="M141,96 L174,96 L174,104.972873 C174,106.571367 173.378396,108.10439 172.271933,109.234695 C171.16547,110.365001 169.664785,111 168.10001,111 L146.901106,111 C145.336138,111.000302 143.835166,110.365437 142.728461,109.235098 C141.621757,108.10476 141,106.571564 141,104.972873 L141,96 Z" id="Path" fill="#DBD5CD" transform="translate(157.500000, 103.500000) rotate(180.000000) translate(-157.500000, -103.500000) "></path>
                        <path d="M89,80 L89,80 C94.5228475,80 99,84.6253859 99,90.3310887 L99,111 L79,111 L79,90.3310887 C79,84.6253859 83.4771525,80 89,80 L89,80 Z" id="Path" fill="#F0807A"></path>
                        <path d="M87,80.2514049 L87,111 L91,111 L91,80.2514049 C89.6833923,79.9161984 88.3166077,79.9161984 87,80.2514049 Z" id="Path" fill="#C75652"></path>
                        <polygon id="Path" fill="#C3CCDB" points="10 59 10 75 168 75 168 59 89 59"></polygon>
                        <rect id="Rectangle" fill="#383844" x="87" y="0" width="4" height="22"></rect>
                        <polygon id="Path" fill="#F04E36" points="161.3125 28 89 28 16.6875 28 0 59 89 59 178 59"></polygon>
                        <path d="M119.332109,34.3587455 L109.817981,28 L85.0771632,28 L76.6673392,34.3587455 C73.7294298,36.5793295 72,40.0691669 72,43.7758245 L72,59 L124,59 L124,43.7758245 C124,40.0690894 122.270157,36.5792706 119.332109,34.3587455 L119.332109,34.3587455 Z" id="Path" fill="#DD5324"></path>
                        <rect id="Rectangle" fill="#C3CCDB" x="113" y="59" width="11" height="52"></rect>
                        <path d="M113.614323,35.1235235 L89,19 L64.385677,35.1235235 C60.9957106,37.3440918 59,40.8336359 59,44.5407188 L59,121 L68.3888474,121 L68.3888474,78.8705595 C68.3888474,73.4385414 72.805798,69.0350206 78.2543827,69.0350206 L99.7456173,69.0350206 C105.194202,69.0350206 109.611153,73.4385414 109.611153,78.8705595 L109.611153,121 L119,121 L119,44.5407188 C119,40.8336359 117.004289,37.3440918 113.614323,35.1235235 Z" id="Path" fill="#F2F2F2"></path>
                        <circle id="Oval" fill="#FFFFFF" cx="89" cy="42" r="10"></circle>
                        <path d="M91.3952929,43 L88.6047071,43 C87.7184519,43 87,42.2736317 87,41.377611 L87,36.622389 C87,35.7263683 87.7184519,35 88.6047071,35 C89.4909624,35 90.2094143,35.7263683 90.2094143,36.622389 L90.2094143,39.7552221 L91.3952929,39.7552221 C92.2815481,39.7552221 93,40.4815903 93,41.377611 C93,42.2736317 92.2815481,43 91.3952929,43 L91.3952929,43 Z" id="Path" fill="#383844"></path>
                        <path d="M25.5002789,71 L25.5002789,71 C27.9854063,71 30,73.0146187 30,75.4997769 L30,86 L21,86 L21,75.5003347 C20.999852,74.3067264 21.4739397,73.1619627 22.3179378,72.3179541 C23.1619359,71.4739456 24.3066854,71 25.5002789,71 L25.5002789,71 Z" id="Path" fill="#1C1D1B"></path>
                        <path d="M45.5,71 L45.5,71 C47.9852814,71 50,73.0146187 50,75.4997769 L50,86 L41,86 L41,75.5003347 C40.9998521,74.306823 41.4738925,73.1621439 42.3178223,72.3181514 C43.161752,71.4741588 44.3064291,71 45.5,71 Z" id="Path" fill="#1C1D1B"></path>
                        <path d="M148,71 L157,71 L157,81.5002231 C157,83.9853813 154.985406,86 152.500279,86 L152.500279,86 C150.015152,86 148.000558,83.9853813 148.000558,81.5002231 L148.000558,71 L148,71 Z" id="Path" fill="#1C1D1B" transform="translate(152.500000, 78.500000) rotate(180.000000) translate(-152.500000, -78.500000) "></path>
                        <path d="M128,71 L137,71 L137,81.5002231 C137,83.9853813 134.985406,86 132.500279,86 L132.500279,86 C130.015152,86 128.000558,83.9853813 128.000558,81.5002231 L128.000558,71 L128,71 Z" id="Path" fill="#1C1D1B" transform="translate(132.500000, 78.500000) rotate(180.000000) translate(-132.500000, -78.500000) "></path>
                        <path d="M9.89959093,96 L31.0970621,96 C32.6623107,95.9990939 34.1637547,96.63362 35.2708667,97.763895 C36.3779786,98.8941699 37,100.427537 37,102.02644 L37,111 L4,111 L4,102.02644 C4,98.6981298 6.64133683,96 9.89959093,96 Z" id="Path" fill="#DBD5CD"></path>
                    </g>
                </g>
            </g>
        </g>
    </g>
</svg>