<?xml version="1.0" encoding="UTF-8"?>
<svg width="14px" height="12px" viewBox="0 0 14 12" version="1.1" xmlns="http://www.w3.org/2000/svg" xmlns:xlink="http://www.w3.org/1999/xlink">
    <title>info</title>
    <g id="landingpage" stroke="none" stroke-width="1" fill="none" fill-rule="evenodd">
        <g id="homepage" transform="translate(-988.000000, -4037.000000)" fill="#000000" fill-rule="nonzero">
            <g id="financial-highlights" transform="translate(-41.000000, 3271.000000)">
                <g id="expenditures" transform="translate(854.500000, 601.000000)">
                    <g id="graph" transform="translate(1.000000, 142.000000)">
                        <g id="info" transform="translate(174.500000, 23.000000)">
                            <path d="M6,0 C2.6862915,0 0,2.6862915 0,6 C0,9.3137085 2.6862915,12 6,12 C9.3137085,12 12,9.3137085 12,6 C12,4.40870106 11.367859,2.88257758 10.2426407,1.75735931 C9.11742242,0.632141042 7.59129894,0 6,0 Z M6.64285714,9 C6.64285714,9.3550402 6.3550402,9.64285714 6,9.64285714 C5.6449598,9.64285714 5.35714286,9.3550402 5.35714286,9 L5.35714286,6 C5.35714286,5.6449598 5.6449598,5.35714286 6,5.35714286 C6.3550402,5.35714286 6.64285714,5.6449598 6.64285714,6 L6.64285714,9 Z M6,4.28571429 C5.52661307,4.28571429 5.14285714,3.90195836 5.14285714,3.42857143 C5.14285714,2.9551845 5.52661307,2.57142857 6,2.57142857 C6.47338693,2.57142857 6.85714286,2.9551845 6.85714286,3.42857143 C6.85714286,3.65589985 6.76683699,3.87391749 6.60609153,4.03466296 C6.44534606,4.19540842 6.22732842,4.28571429 6,4.28571429 Z" id="Shape"></path>
                        </g>
                    </g>
                </g>
            </g>
        </g>
    </g>
</svg>