<?xml version="1.0" encoding="UTF-8"?>
<svg width="28px" height="28px" viewBox="0 0 28 28" version="1.1" xmlns="http://www.w3.org/2000/svg" xmlns:xlink="http://www.w3.org/1999/xlink">
    <title>streamlinehq-social-instagram-logos-48</title>
    <g id="landingpage" stroke="none" stroke-width="1" fill="none" fill-rule="evenodd">
        <g id="homepage" transform="translate(-1219.000000, -11655.000000)" stroke="#FFFFFF" stroke-width="2.5">
            <g id="footer" transform="translate(-161.000000, 11508.000000)">
                <g id="socials" transform="translate(1382.000000, 145.000000)">
                    <g id="streamlinehq-social-instagram-logos-48" transform="translate(0.000000, 4.000000)">
                        <path d="M11.6470588,16.9411765 C14.5709244,16.9411765 16.9411765,14.5709244 16.9411765,11.6470588 C16.9411765,8.72319328 14.5709244,6.35294118 11.6470588,6.35294118 C8.72319328,6.35294118 6.35294118,8.72319328 6.35294118,11.6470588 C6.35294118,14.5709244 8.72319328,16.9411765 11.6470588,16.9411765 Z" id="Path" stroke-linecap="round" stroke-linejoin="round"></path>
                        <path d="M18,0 L6,0 C2.68629,0 0,2.68629 0,6 L0,18 C0,21.31365 2.68629,24 6,24 L18,24 C21.31365,24 24,21.31365 24,18 L24,6 C24,2.68629 21.31365,0 18,0 Z" id="Path" stroke-linecap="round" stroke-linejoin="round"></path>
                        <g id="Group" transform="translate(17.647059, 4.941176)">
                            <path d="M1.05882353,1.05882353 C0.824865882,1.05882353 0.635294118,0.900804706 0.635294118,0.705882353 C0.635294118,0.51096 0.824865882,0.352941176 1.05882353,0.352941176" id="Path"></path>
                            <path d="M1.05882353,1.05882353 C1.29278118,1.05882353 1.48235294,0.900804706 1.48235294,0.705882353 C1.48235294,0.51096 1.29278118,0.352941176 1.05882353,0.352941176" id="Path"></path>
                        </g>
                    </g>
                </g>
            </g>
        </g>
    </g>
</svg>