<svg id="Component_10_6" data-name="Component 10 – 6" xmlns="http://www.w3.org/2000/svg" width="313.797" height="83.84" viewBox="0 0 313.797 83.84">
  <path id="Path_37" data-name="Path 37" d="M0,50.6V83.983H35l-.04-33.357h-.25V50.6Z" transform="translate(0 -0.143)" fill="#1f4181"/>
  <path id="Path_37-2" data-name="Path 37" d="M0,50.6V89.124H35L34.96,50.63h-.25V50.6Z" transform="translate(55.759 -5.284)" fill="#1f4181"/>
  <path id="Path_37-3" data-name="Path 37" d="M0,50.6v41.92H35l-.04-41.889h-.25V50.6Z" transform="translate(111.519 -8.682)" fill="#1f4181"/>
  <path id="Path_40" data-name="Path 40" d="M0,50.6V97.394H35l-.04-46.758h-.25V50.6Z" transform="translate(167.278 -13.554)" fill="#1f4181"/>
  <path id="Path_41" data-name="Path 41" d="M0,50.6v66.762H35l-.04-66.713h-.25V50.6Z" transform="translate(223.038 -33.524)" fill="#1f4181"/>
  <path id="Path_44" data-name="Path 44" d="M0,50.6v83.84H35l-.04-83.779h-.25V50.6Z" transform="translate(278.797 -50.602)" fill="#1f4181"/>
</svg>
