<svg xmlns="http://www.w3.org/2000/svg" width="128.428" height="83.84" viewBox="0 0 128.428 83.84">
  <g id="Group_176" data-name="Group 176" transform="translate(-265 -141.08)">
    <path id="Path_37" data-name="Path 37" d="M0,50.6V83.983H13.809l-.016-33.357h-.1V50.6Z" transform="translate(265 140.937)" fill="#1f4181"/>
    <path id="Path_37-2" data-name="Path 37" d="M0,50.6V89.124H13.424L13.408,50.63h-.1V50.6Z" transform="translate(310 135.796)" fill="#1f4181"/>
    <path id="Path_37-3" data-name="Path 37" d="M0,50.6v41.92H14.168l-.016-41.889h-.1V50.6Z" transform="translate(287 132.398)" fill="#1f4181"/>
    <path id="Path_40" data-name="Path 40" d="M0,50.6V97.394H13.734l-.016-46.758h-.1V50.6Z" transform="translate(332 127.526)" fill="#1f4181"/>
    <path id="Path_41" data-name="Path 41" d="M0,50.6v66.762H15.473l-.018-66.713h-.11V50.6Z" transform="translate(354 107.556)" fill="#1f4181"/>
    <path id="Path_44" data-name="Path 44" d="M0,50.6v83.84H15.428L15.41,50.663H15.3V50.6Z" transform="translate(378 90.478)" fill="#1f4181"/>
  </g>
</svg>
