<?xml version="1.0" encoding="UTF-8"?>
<svg width="362px" height="50px" viewBox="0 0 362 50" version="1.1" xmlns="http://www.w3.org/2000/svg" xmlns:xlink="http://www.w3.org/1999/xlink">
    <title>logo</title>
    <g id="landingpage" stroke="none" stroke-width="1" fill="none" fill-rule="evenodd">
        <g id="homepage" transform="translate(-252.000000, -48.000000)">
            <g id="hero" transform="translate(-560.000000, -285.000000)">
                <g id="logo" transform="translate(812.000000, 333.000000)">
                    <path d="M155.9863,16.5563 L155.9863,8.3893 L153.8573,8.3893 C152.8583,8.3893 152.0483,9.1993 152.0483,10.1983 L152.0483,16.5313 C152.0483,18.0823 151.1873,18.8943 149.7353,18.8943 C148.3073,18.8943 147.4953,18.0823 147.4953,16.5563 L147.4953,10.1983 C147.4953,9.1993 146.6853,8.3893 145.6863,8.3893 L143.5573,8.3893 L143.5573,16.5563 C143.5573,20.0023 145.8703,22.4383 149.7353,22.4383 C153.6233,22.4383 155.9863,20.0023 155.9863,16.5563 L155.9863,16.5563 Z M227.9643,9.8723 C227.0843,8.7913 225.8023,8.0873 224.4953,8.0873 C223.2383,8.0873 221.7803,8.5403 220.6743,9.7713 L220.6743,3.0523 L216.6013,3.0523 L216.6013,21.8643 L220.6743,21.8643 L220.6743,12.9143 C221.2273,11.9843 222.3083,11.5063 223.1883,11.5063 C223.8673,11.5063 224.4953,11.7583 224.7973,12.4363 C225.0983,13.1153 225.0983,14.1463 225.0983,15.0263 L225.0983,21.8643 L229.1713,21.8643 L229.1713,14.8753 C229.1713,12.9893 229.0703,11.2803 227.9643,9.8723 L227.9643,9.8723 Z M210.6943,11.2303 C211.7503,11.2303 212.6303,11.7323 213.3343,12.3863 L215.5213,9.9733 C214.2143,8.7163 212.5553,8.0873 210.6943,8.0873 C208.1553,8.0873 205.7173,9.4953 205.7173,12.2603 C205.7173,14.5983 207.4013,15.5543 208.9603,16.2573 C210.2673,16.8613 211.4743,17.2633 211.4743,18.1433 C211.4743,18.7713 210.5433,19.0233 210.0153,19.0233 C208.6333,19.0233 207.8033,18.3693 206.7473,17.3643 L204.5353,19.7773 C206.1693,21.3113 208.0553,22.1653 210.2423,22.1653 C212.9073,22.1653 215.5213,20.7573 215.5213,17.7913 C215.5213,15.1513 213.3093,14.3223 211.5993,13.6183 C210.5183,13.1653 209.6133,12.7383 209.6133,11.9593 C209.6133,11.4813 210.1913,11.2303 210.6943,11.2303 L210.6943,11.2303 Z M185.5403,7.88425887 C183.8073,7.8773 182.4953,8.7643 181.6063,10.1983 C180.9173,8.7953 179.7113,7.88425887 177.7913,7.88425887 C175.8963,7.88425887 174.7153,8.9183 174.0013,10.1243 L173.9273,10.1243 L173.8253,9.6753 C173.6543,8.9233 172.9863,8.3893 172.2153,8.3893 L170.4813,8.3893 L170.4813,21.8643 L174.4193,21.8643 L174.4193,13.6683 C174.4193,12.4863 175.0593,11.4533 176.3883,11.4533 C177.7173,11.4533 178.2093,12.1673 178.2093,13.6433 L178.2093,21.8643 L182.1473,21.8643 L182.1473,13.4963 C182.1473,12.3883 182.8613,11.4533 184.1413,11.4533 C185.4703,11.4533 185.9623,12.1673 185.9623,13.6433 L185.9623,21.8643 L189.9003,21.8643 L189.9003,12.3703 C189.9003,9.9423 187.9693,7.8943 185.5403,7.88425887 L185.5403,7.88425887 Z M195.0753,13.4673 C195.4263,12.1353 196.2313,11.2053 197.8153,11.2053 C199.0973,11.2053 200.1023,11.9593 200.1783,13.4673 L195.0753,13.4673 Z M197.6893,8.0873 C193.7673,8.0873 190.8013,11.2303 190.8013,15.3273 C190.8013,19.4253 193.6673,22.1653 197.6643,22.1653 C200.6053,22.1653 202.2643,21.0593 203.8983,18.7973 L201.2843,17.0123 C200.4043,18.2183 199.6753,18.9473 197.9403,18.9473 C196.2813,18.9473 195.2003,17.8163 194.9243,16.1323 L204.1253,16.1323 C204.2253,15.5033 204.3013,14.8503 204.3013,14.2973 C204.3013,10.7023 201.4853,8.0873 197.6893,8.0873 L197.6893,8.0873 Z M130.9533,21.8643 L132.8133,14.7743 L132.8643,14.7743 L134.6993,21.8643 L138.9733,21.8643 L142.8443,8.3893 L138.5953,8.3893 L136.6603,16.3333 L136.6093,16.3333 L134.5733,8.3893 L131.1793,8.3893 L129.0683,16.3583 L129.0173,16.3583 L127.2323,8.3893 L122.9083,8.3893 L126.5793,21.8643 L130.9533,21.8643 Z M110.9003,22.4383 L111.8523,21.4863 C113.1233,20.1643 115.1823,18.1183 115.1823,16.9553 C115.1823,18.1183 117.2403,20.1643 118.5113,21.4853 L119.4643,22.4383 L122.4733,19.4293 L118.1913,15.1473 L122.4733,10.8653 L119.4643,7.8553 L118.5113,8.8083 C117.2403,10.1303 115.1823,12.1753 115.1823,13.3383 C115.1823,12.1753 113.1233,10.1293 111.8523,8.8073 L110.9003,7.8553 L107.8903,10.8653 L112.1723,15.1473 L107.8903,19.4293 L110.9003,22.4383 Z M158.2543,22.3203 L162.1953,24.1243 C164.1933,19.3223 167.4673,12.1353 169.7433,7.3893 L169.7433,4.3833 L156.9223,4.3833 L156.9223,8.3883 L164.8033,8.3883 C163.3053,11.5803 160.7243,16.4923 158.2543,22.3203 L158.2543,22.3203 Z M154.1583,4.3863 L151.7833,1.9033 L147.7153,6.2173 L149.7683,8.2753 L154.1583,4.3863 Z M108.7333,26.5933 L121.6323,26.5933 L121.6323,23.2753 L108.7333,23.2753 L108.7333,26.5933 Z M95.8883,21.8643 L97.7493,14.7743 L97.7993,14.7743 L99.6343,21.8643 L103.9083,21.8643 L107.7793,8.3893 L103.5313,8.3893 L101.5953,16.3333 L101.5453,16.3333 L99.5083,8.3893 L96.1153,8.3893 L94.0033,16.3583 L93.9533,16.3583 L92.1683,8.3893 L87.8443,8.3893 L91.5143,21.8643 L95.8883,21.8643 Z M74.7693,26.5933 L87.6683,26.5933 L87.6683,23.2753 L74.7693,23.2753 L74.7693,26.5933 Z M80.5673,18.0293 L82.8803,21.8643 L87.6683,21.8643 L83.1633,14.3703 L87.4083,8.3893 L82.8343,8.3893 L78.6433,14.6163 L78.6433,3.0513 L74.7723,3.0513 L74.7723,21.8643 L77.8453,21.8643 L80.5673,18.0293 Z M73.8653,16.4233 C73.8653,9.9593 65.2653,11.6003 65.2653,8.7733 C65.2653,7.9593 66.1093,7.2043 67.4543,7.2043 C68.8633,7.2043 70.2433,8.0673 71.0833,8.8003 L73.4753,6.1603 C72.6563,5.3013 70.9593,3.6423 67.4213,3.6423 C63.0293,3.6423 60.9953,6.3223 60.9953,9.1673 C60.9953,10.5413 61.5413,11.6303 62.3603,12.5073 C64.1223,14.3933 67.8433,14.4253 69.0073,15.5903 C69.2943,15.8773 69.4353,16.2273 69.4353,16.6493 C69.4353,17.7073 68.3853,18.4243 66.9723,18.4243 C65.3353,18.4243 63.7313,17.4973 62.6343,16.2523 L59.9723,19.1333 C61.8053,21.1643 64.4473,22.1653 66.9433,22.1653 C71.6263,22.1653 73.8653,19.2183 73.8653,16.4233 L73.8653,16.4233 Z" id="Fill-1" fill="#D23929"></path>
                    <path d="M322.0984,6.746 L326.1714,6.746 L326.1714,3.528 L322.0984,3.528 L322.0984,6.746 Z M322.0984,21.829 L326.1714,21.829 L326.1714,8.354 L322.0984,8.354 L322.0984,21.829 Z M295.8924,10.166 L295.8924,16.499 C295.8924,18.05 295.0314,18.862 293.5784,18.862 C292.1514,18.862 291.3394,18.05 291.3394,16.524 L291.3394,10.166 C291.3394,9.166 290.5294,8.356 289.5304,8.356 L287.4014,8.356 L287.4014,16.524 C287.4014,19.969 289.7144,22.406 293.5784,22.406 C297.4674,22.406 299.8304,19.969 299.8304,16.524 L299.8304,8.356 L297.7014,8.356 C296.7024,8.356 295.8924,9.166 295.8924,10.166 L295.8924,10.166 Z M316.3004,7.84995887 C314.5674,7.843 313.2554,8.73 312.3664,10.163 C311.6774,8.761 310.4714,7.84995887 308.5514,7.84995887 C306.6564,7.84995887 305.4754,8.884 304.7614,10.09 L304.6874,10.09 L304.5854,9.641 C304.4144,8.888 303.7464,8.355 302.9754,8.355 L301.2414,8.355 L301.2414,21.829 L305.1794,21.829 L305.1794,13.634 C305.1794,12.452 305.8194,11.419 307.1484,11.419 C308.4774,11.419 308.9694,12.132 308.9694,13.609 L308.9694,21.829 L312.9074,21.829 L312.9074,13.461 C312.9074,12.354 313.6214,11.419 314.9014,11.419 C316.2304,11.419 316.7224,12.132 316.7224,13.609 L316.7224,21.829 L320.6604,21.829 L320.6604,12.336 C320.6604,9.908 318.7294,7.86 316.3004,7.84995887 L316.3004,7.84995887 Z M338.7164,7.827 L337.7634,8.78 C336.4924,10.102 334.4344,12.147 334.4344,13.31 C334.4344,12.147 332.3754,10.101 331.1044,8.779 L330.1524,7.827 L327.1434,10.837 L331.4254,15.119 L327.1434,19.4 L330.1524,22.41 L331.1044,21.458 C332.3754,20.136 334.4344,18.09 334.4344,16.927 C334.4344,18.09 336.4924,20.135 337.7634,21.457 L338.7164,22.41 L341.7264,19.4 L337.4444,15.119 L341.7264,10.837 L338.7164,7.827 Z M280.4574,16.294 L280.4074,16.294 L278.3704,8.35 L274.9774,8.35 L272.8654,16.319 L272.8154,16.319 L271.0304,8.35 L266.7064,8.35 L270.3764,21.824 L274.7504,21.824 L276.6114,14.735 L276.6614,14.735 L278.4964,21.824 L282.7704,21.824 L286.6414,8.35 L282.3934,8.35 L280.4574,16.294 Z M355.5714,16.294 L355.5214,16.294 L353.4844,8.35 L350.0914,8.35 L347.9794,16.319 L347.9294,16.319 L346.1444,8.35 L341.8204,8.35 L345.4904,21.824 L349.8644,21.824 L351.7254,14.735 L351.7754,14.735 L353.6104,21.824 L357.8844,21.824 L361.7554,8.35 L357.5074,8.35 L355.5714,16.294 Z M263.6164,7.827 L262.6634,8.78 C261.3924,10.102 259.3344,12.147 259.3344,13.31 C259.3344,12.147 257.2754,10.101 256.0044,8.779 L255.0524,7.827 L252.0424,10.837 L256.3244,15.119 L252.0424,19.4 L255.0524,22.41 L256.0044,21.458 C257.2754,20.136 259.3344,18.09 259.3344,16.927 C259.3344,18.09 261.3924,20.135 262.6634,21.457 L263.6164,22.41 L266.6254,19.4 L262.3434,15.119 L266.6254,10.837 L263.6164,7.827 Z M244.2494,6.371 L248.6404,2.482 L246.2654,0 L242.1974,4.314 L244.2494,6.371 Z M246.7054,7.964 L246.7054,15.677 C246.7054,17.61 245.5904,18.354 244.2514,18.354 C242.9134,18.354 241.7984,17.61 241.7984,15.677 L241.7984,7.964 C241.7984,6.626 240.7134,5.541 239.3754,5.541 L237.4264,5.541 L237.4264,16.071 C237.4264,19.975 240.0414,22.401 244.2514,22.401 C248.4614,22.401 251.0774,19.975 251.0774,16.071 L251.0774,5.541 L249.1284,5.541 C247.7904,5.541 246.7054,6.626 246.7054,7.964 L246.7054,7.964 Z" id="Fill-3" fill="#D23929"></path>
                    <path d="M65.2922,33.3142 C67.5832,33.3142 69.0652,34.5542 69.3752,36.2772 L67.9622,36.6562 C67.7212,35.3642 66.6702,34.6752 65.2582,34.6752 C63.6902,34.6752 62.6732,35.5192 62.6732,36.7942 C62.6732,37.8622 63.3972,38.4652 64.5002,38.7582 L66.6012,39.2922 C68.6342,39.8092 69.6162,40.9802 69.6162,42.6002 C69.6162,44.6842 68.0142,46.1492 65.3612,46.1492 C63.0702,46.1492 61.3642,45.0462 61.0372,43.1342 L62.4672,42.7382 C62.6562,43.9782 63.7072,44.7702 65.3782,44.7702 C67.0492,44.7702 68.1352,44.0122 68.1352,42.6692 C68.1352,41.5832 67.4452,40.9462 66.3082,40.6702 L64.2242,40.1532 C62.1572,39.6372 61.2092,38.4132 61.2092,36.8282 C61.2092,34.7442 62.8282,33.3142 65.2922,33.3142" id="Fill-5" fill="#000000"></path>
                    <path d="M77.5408,41.7385 C77.5408,39.8775 76.4898,38.6035 74.7668,38.6035 C73.0618,38.6035 72.0108,39.8775 72.0108,41.7385 C72.0108,43.5815 73.0618,44.8735 74.7668,44.8735 C76.4898,44.8735 77.5408,43.5815 77.5408,41.7385 L77.5408,41.7385 Z M78.9878,37.5525 L78.9878,49.6465 L77.6438,49.6465 L77.6438,44.5465 C77.0588,45.5805 75.8868,46.1485 74.5608,46.1485 C72.1488,46.1485 70.5468,44.3745 70.5638,41.6865 C70.5978,39.0855 72.1318,37.3285 74.5948,37.3285 C75.9728,37.3285 77.1098,37.9135 77.6788,38.9645 L77.7648,37.5525 L78.9878,37.5525 Z" id="Fill-6" fill="#000000"></path>
                    <path d="M86.8609,45.9421 C86.7919,45.5971 86.7399,45.1671 86.7229,44.7711 C86.2409,45.6321 85.2419,46.1491 84.0009,46.1491 C82.4159,46.1491 80.6589,45.3221 80.6589,42.6171 L80.6589,37.5521 L82.0889,37.5521 L82.0889,42.4101 C82.0889,44.3741 83.2779,44.8911 84.2769,44.8911 C85.6379,44.8911 86.6889,43.9261 86.6889,42.3071 L86.6889,37.5521 L88.1189,37.5521 L88.1189,44.4091 C88.1189,44.8911 88.1879,45.5631 88.2739,45.9421 L86.8609,45.9421 Z" id="Fill-7" fill="#000000"></path>
                    <path d="M95.5778,41.928 L93.0628,41.928 C91.8048,41.928 91.1158,42.531 91.1158,43.496 C91.1158,44.512 91.8738,45.029 93.0108,45.029 C94.5618,45.029 95.5778,43.995 95.5778,42.169 L95.5778,41.928 Z M95.7328,45.942 C95.6638,45.684 95.6298,45.236 95.5948,44.719 C95.1298,45.529 94.0958,46.149 92.7348,46.149 C90.9088,46.149 89.6858,45.132 89.6858,43.513 C89.6858,41.894 90.8918,40.86 92.7528,40.86 L95.5778,40.86 L95.5778,40.515 C95.5778,39.017 94.6478,38.517 93.4588,38.517 C92.2188,38.517 91.4608,39.068 91.0638,39.895 L89.9958,39.275 C90.6678,37.948 91.9428,37.328 93.5278,37.328 C95.3878,37.328 96.9558,38.172 96.9558,40.584 L96.9558,44.254 C96.9558,44.891 97.0248,45.649 97.1108,45.942 L95.7328,45.942 Z" id="Fill-8" fill="#000000"></path>
                    <path d="M111.1688,40.5326 L111.1688,45.9426 L109.8078,45.9426 L109.8078,40.7396 C109.8078,39.3616 109.0498,38.5686 107.8438,38.5686 C106.5518,38.5686 105.7248,39.5166 105.7248,40.8426 L105.7248,45.9426 L104.3298,45.9426 L104.3298,40.7226 C104.3298,39.3616 103.5718,38.5686 102.3658,38.5686 C101.0738,38.5686 100.2468,39.5166 100.2468,40.8256 L100.2468,45.9426 L98.8168,45.9426 L98.8168,37.5526 L100.1258,37.5526 L100.1948,38.4826 C100.6768,37.7246 101.6078,37.3286 102.6588,37.3286 C103.9158,37.3286 104.9148,37.9136 105.3628,38.9476 C105.7938,37.9486 106.8098,37.3286 108.1368,37.3286 C109.9108,37.3286 111.1688,38.4826 111.1688,40.5326" id="Fill-9" fill="#000000"></path>
                    <path d="M113.0984,45.942 L114.5284,45.942 L114.5284,37.552 L113.0984,37.552 L113.0984,45.942 Z M112.7534,34.537 C112.7534,33.934 113.2014,33.469 113.8044,33.469 C114.4074,33.469 114.8724,33.934 114.8724,34.537 C114.8724,35.14 114.4074,35.588 113.8044,35.588 C113.2014,35.588 112.7534,35.14 112.7534,34.537 L112.7534,34.537 Z" id="Fill-10" fill="#000000"></path>
                    <path d="M119.3516,44.9773 C120.2306,44.9773 121.1086,44.6503 121.1086,43.6683 C121.1086,42.9613 120.5916,42.6343 119.9376,42.4623 L118.6626,42.1173 C117.0946,41.7043 116.4226,40.8773 116.4226,39.7743 C116.4226,38.4133 117.5086,37.3283 119.3516,37.3283 C120.9016,37.3283 122.1596,38.0863 122.3496,39.4123 L121.0916,39.7053 C120.9886,38.9473 120.2816,38.5173 119.3856,38.5173 C118.4036,38.5173 117.8016,39.0333 117.8016,39.7743 C117.8016,40.4463 118.2836,40.7913 119.0586,40.9973 L120.3166,41.3423 C121.7286,41.7043 122.5216,42.5133 122.5216,43.6683 C122.5216,45.1663 121.3496,46.1483 119.3686,46.1483 C117.5426,46.1483 116.3886,45.2533 116.2166,43.9613 L117.4906,43.7193 C117.5946,44.4773 118.2836,44.9773 119.3516,44.9773" id="Fill-11" fill="#000000"></path>
                    <path d="M131.79,40.9116 L131.79,45.9416 L130.377,45.9416 L130.377,41.2046 C130.377,39.1376 129.292,38.6206 128.086,38.6206 C126.794,38.6206 125.588,39.5676 125.588,41.3076 L125.588,45.9246 L124.175,45.9246 L124.175,33.3146 L125.605,33.3146 L125.605,38.7066 C126.122,37.8796 127.139,37.3286 128.344,37.3286 C130.274,37.3286 131.79,38.3276 131.79,40.9116" id="Fill-12" fill="#000000"></path>
                    <polygon id="Fill-13" fill="#000000" points="148.4662 33.5381 148.4662 45.9421 147.0022 45.9421 140.4382 35.9501 140.4382 45.9421 138.9562 45.9421 138.9562 33.5381 140.4382 33.5381 147.0022 43.5301 147.0022 33.5381"></polygon>
                    <path d="M156.0118,41.928 L153.4968,41.928 C152.2388,41.928 151.5498,42.531 151.5498,43.496 C151.5498,44.512 152.3078,45.029 153.4448,45.029 C154.9958,45.029 156.0118,43.995 156.0118,42.169 L156.0118,41.928 Z M156.1668,45.942 C156.0978,45.684 156.0638,45.236 156.0288,44.719 C155.5638,45.529 154.5298,46.149 153.1688,46.149 C151.3428,46.149 150.1198,45.132 150.1198,43.513 C150.1198,41.894 151.3258,40.86 153.1868,40.86 L156.0118,40.86 L156.0118,40.515 C156.0118,39.017 155.0818,38.517 153.8928,38.517 C152.6528,38.517 151.8948,39.068 151.4978,39.895 L150.4298,39.275 C151.1018,37.948 152.3768,37.328 153.9618,37.328 C155.8218,37.328 157.3898,38.172 157.3898,40.584 L157.3898,44.254 C157.3898,44.891 157.4588,45.649 157.5448,45.942 L156.1668,45.942 Z" id="Fill-14" fill="#000000"></path>
                    <path d="M166.3828,34.5373 C166.3828,35.1403 165.9178,35.5883 165.3318,35.5883 C164.7288,35.5883 164.2638,35.1403 164.2638,34.5373 C164.2638,33.9343 164.7288,33.4693 165.3318,33.4693 C165.9178,33.4693 166.3828,33.9343 166.3828,34.5373 L166.3828,34.5373 Z M166.0378,45.9423 L164.6088,45.9423 L164.6088,38.7233 L161.3868,38.7233 L161.3868,45.9423 L159.9738,45.9423 L159.9738,38.7233 L158.3198,38.7233 L158.3198,37.5523 L159.9738,37.5523 L159.9738,34.9163 L161.3868,34.9163 L161.3868,37.5523 L166.0378,37.5523 L166.0378,45.9423 Z" id="Fill-15" fill="#000000"></path>
                    <path d="M171.792,44.8739 C173.515,44.8739 174.617,43.5469 174.617,41.7389 C174.617,39.9469 173.515,38.6029 171.792,38.6029 C170.086,38.6029 168.984,39.9469 168.984,41.7389 C168.984,43.5469 170.086,44.8739 171.792,44.8739 M171.792,37.3279 C174.359,37.3279 176.047,39.2579 176.047,41.7389 C176.047,44.2369 174.359,46.1489 171.792,46.1489 C169.242,46.1489 167.537,44.2369 167.537,41.7389 C167.537,39.2579 169.242,37.3279 171.792,37.3279" id="Fill-16" fill="#000000"></path>
                    <path d="M184.971,40.8082 L184.971,45.9422 L183.558,45.9422 L183.558,41.0152 C183.558,39.0852 182.352,38.6202 181.388,38.6202 C179.975,38.6202 178.941,39.5682 178.941,41.2042 L178.941,45.9252 L177.529,45.9252 L177.529,37.5522 L178.855,37.5522 L178.907,38.6722 C179.406,37.8622 180.423,37.3282 181.663,37.3282 C183.507,37.3282 184.971,38.3622 184.971,40.8082" id="Fill-17" fill="#000000"></path>
                    <path d="M35.753,17.365 C35.17,17.338 34.406,17.263 33.255,16.647 C35.42,17.935 35.219,19.839 36.492,20.284 C36.872,20.417 37.589,20.498 38.01,20.353 C37.589,20.548 37.043,20.856 36.882,21.236 C36.155,22.949 37.27,23.828 36.613,25.61 C36.969,24.87 37.822,24.228 38.188,23.976 C39.698,22.938 39.752,21.78 39.297,20.279 C38.563,17.857 37.77,17.457 35.753,17.365 M38.151,25.287 C36.737,26.196 36.486,26.507 36.213,27.177 C35.812,24.173 33.62,18.158 31.781,15.217 C33.318,15.991 34.701,16.152 35.738,16.281 C38.725,16.652 39.656,16.853 40.506,20.208 C41.235,23.087 40.242,23.942 38.151,25.287 M35.12,30.641 C34.451,29.703 32.419,30.408 32.222,30.482 C29.819,31.391 29.898,30.984 27.837,26.427 C25.735,21.974 25.248,21.08 27.555,20.385 C31.042,19.336 31.561,19.899 32.987,24.293 C33.523,25.946 33.796,27.144 34.007,27.954 C34.477,29.759 34.414,29.636 35.457,29.077 C35.527,29.505 35.311,30.19 35.12,30.641 M34.177,38.595 C33.916,37.392 34.36,34.757 31.515,36.18 C32.132,38.669 31.836,39.63 29.765,40.123 C31.367,38.694 30.48,36.623 29.716,35.785 C30.357,35.194 30.061,33.591 28.853,33.123 C29.642,31.792 28.41,30.091 27.264,29.919 C26.193,27.922 23.829,23.232 23.051,22.119 C21.464,19.847 20.208,19.106 17.8,21.054 C16.302,22.265 17.213,22.784 18.308,24.654 C19.156,26.104 20.221,27.607 20.089,28.595 C19.951,29.624 19.392,30.057 17.596,30.202 C14.925,30.417 14.736,30.187 14.336,27.415 C14.168,30.21 13.894,30.41 11.477,30.417 C9.691,30.422 8.976,30.631 9.019,27.834 C8.851,30.629 8.574,30.855 6.157,30.861 C4.372,30.866 3.761,30.74 3.998,27.95 C4.04,27.287 4.146,26.536 4.594,24.46 C4.894,23.071 5.334,22.69 6.948,22.983 C8.667,23.295 9.379,22.645 10.559,21.502 C12.869,19.264 12.489,18.747 11.842,17.718 C11.564,17.276 11.08,16.836 11.052,15.931 C11.867,16.203 12.304,16.705 12.711,17.158 C13.457,17.985 14.105,18.645 16.788,17.425 C19.309,16.278 20.347,15.981 18.622,12.079 C18.584,11.993 18.545,11.908 18.506,11.818 C18.546,11.907 18.585,11.993 18.622,12.079 C20.219,15.599 21.555,15.673 24.514,15.18 C29.894,14.283 29.828,17.235 30.644,18.926 C29.941,18.88 28.178,19.341 26.839,19.838 C23.899,20.92 25.83,23.262 27.341,26.566 C29.506,31.477 29.555,32.283 32.036,31.41 C33.46,30.909 34.03,30.743 34.769,31.127 C35.457,33.994 35.065,36.993 34.177,38.595 M21.162,28.509 C19.677,24.699 17.891,24.246 20.11,22.794 C21.946,21.594 22.564,22.894 24.705,26.801 C24.021,25.745 20.886,27.103 21.162,28.509 M18.542,10.064 C18.39,9.258 18.014,8.831 19.066,8.258 C20.243,7.618 20.687,8.203 21.427,9.322 C22.547,11.015 22.422,11.508 23.234,11.701 C21.422,11.44 19.701,11.433 17.809,11.845 C19.082,11.49 18.674,10.757 18.542,10.064 M23.848,10.274 C23.554,9.211 23.632,8.547 24.804,8.132 C25.975,7.718 26.641,8.73 27.433,10.062 C29.132,12.921 29.06,13.038 30.132,13.323 C27.587,12.652 25.495,12.056 23.527,11.745 C24.113,11.69 24.198,11.539 23.848,10.274 M28.019,42.728 C28.578,42.692 29.06,43.14 29.094,43.729 C29.129,44.318 28.703,44.824 28.143,44.86 C27.583,44.896 27.101,44.448 27.067,43.86 C27.033,43.271 27.459,42.765 28.019,42.728 M38.568,15.203 C35.204,14.623 32.482,13.942 30.142,13.325 C29.349,11.919 26.744,7.103 24.65,3.139 C25.366,5.206 24.968,5.89 23.477,6.646 C21.939,7.424 21.968,7.806 23.477,11.629 C21.644,8.364 19.926,5.557 19.066,3.925 C19.467,5.013 19.266,6.13 18.121,6.818 C16.809,7.605 16.701,7.968 17.72,9.739 C18.378,10.885 18.321,11.741 17.446,11.928 C17.453,11.927 17.46,11.925 17.467,11.924 C15.807,12.326 14.005,13.05 11.89,14.208 C6.947,16.916 4.481,20.804 3.42,25.601 C2.994,27.528 3.092,29.539 3.725,31.407 C3.728,31.417 3.732,31.426 3.735,31.436 C3.735,31.425 3.746,31.447 3.764,31.493 C4.097,32.337 4.908,32.897 5.815,32.895 C5.823,32.895 5.831,32.895 5.839,32.895 C8.925,32.887 8.045,31.558 8.941,30.734 L8.941,30.73 C8.98,32.336 9.362,32.373 11.437,32.367 C14.523,32.359 14.521,32.292 14.539,30.206 C14.729,32.284 14.722,32.391 17.798,32.142 C18.887,32.055 19.518,31.993 19.876,31.719 C19.995,33.536 19.818,34.053 17.718,34.366 C15.067,34.761 15.17,34.774 14.584,32.036 C14.387,34.839 14.038,34.824 11.627,34.994 C9.846,35.119 9.146,35.377 9,32.583 C9.021,35.346 8.235,35.664 6.35,35.797 C6.156,35.81 5.979,35.817 5.812,35.817 C6.042,36.186 6.282,36.548 6.533,36.902 C7.095,37.695 8.324,37.506 8.622,36.581 C8.741,36.212 8.798,35.819 9.118,35.481 L9.118,35.478 C9.265,37.077 9.649,37.088 11.719,36.943 C14.797,36.726 14.791,36.659 14.668,34.577 C14.998,36.637 14.998,36.744 18.05,36.288 C18.79,36.178 19.316,36.095 19.683,35.957 C19.73,37.627 19.368,37.773 17.88,37.994 C15.448,38.357 15.213,38.172 14.845,36.452 C14.722,38.199 14.126,38.457 11.789,38.622 C10.063,38.744 9.352,38.746 9.261,37 C9.269,38.05 8.945,38.673 8.257,39.03 C8.294,39.069 8.33,39.108 8.367,39.147 C8.609,39.406 9.019,39.4 9.256,39.136 C9.264,39.128 9.272,39.119 9.281,39.11 L9.281,39.106 C9.428,40.705 9.812,40.717 11.881,40.571 C14.96,40.354 14.954,40.288 14.83,38.205 C15.16,40.265 15.16,40.372 18.213,39.917 C20.35,39.598 20.188,39.752 20.377,35.331 C21.496,37.447 18.922,40.243 23.778,41.38 C19.687,41.161 14.522,40.779 10.513,41.149 C10.985,41.533 11.474,41.897 11.978,42.24 C12.794,42.795 13.752,43.109 14.738,43.124 C17.568,43.169 19.154,43.664 19.88,44.728 C20.308,45.355 21.01,45.739 21.765,45.818 C21.935,45.835 22.105,45.851 22.276,45.864 C22.269,45.728 22.261,45.588 22.252,45.441 C22.108,43.197 20.872,41.925 17.933,41.38 C22.78,42.172 25.016,42.764 25.797,44.146 C26.357,45.138 27.471,45.684 28.584,45.441 C30.187,45.091 31.723,44.562 33.17,43.875 C32.452,43.219 31.592,42.892 30.463,42.524 C28.425,41.859 26.076,41.617 24.059,40.412 C21.244,38.723 21.089,35.096 20.678,32.238 C20.445,30.617 20.549,29.329 21.173,29.011 C21.752,30.239 23.531,35.591 24.657,38.793 C27.219,37.377 22.403,30.9 23.416,28.874 C25.811,27.905 27.974,34.829 27.824,36.295 C29.003,37.518 28.352,39.532 26.205,38.758 C27.355,40.482 29.742,41.109 32.395,40.313 C34.774,39.599 35.972,38.624 35.594,33.902 C35.019,26.718 39.001,25.949 42.435,24.33 C43.213,18.454 41.122,15.644 38.568,15.203 M40.135,40.663 C35.825,44.972 30.095,47.346 24.001,47.346 C17.906,47.346 12.176,44.972 7.867,40.663 C3.557,36.353 1.184,30.623 1.184,24.529 C1.184,18.434 3.557,12.704 7.867,8.395 C12.176,4.085 17.906,1.712 24.001,1.712 C30.095,1.712 35.825,4.085 40.135,8.395 C44.444,12.704 46.818,18.434 46.818,24.529 C46.818,30.623 44.444,36.353 40.135,40.663 M40.971,7.558 C36.438,3.025 30.411,0.529 24.001,0.529 C17.59,0.529 11.563,3.025 7.03,7.558 C2.497,12.091 0,18.118 0,24.529 C0,30.939 2.497,36.966 7.03,41.499 C11.563,46.032 17.59,48.529 24.001,48.529 C30.411,48.529 36.438,46.032 40.971,41.499 C45.504,36.966 48.001,30.939 48.001,24.529 C48.001,18.118 45.504,12.091 40.971,7.558 M30.383,23.911 C29.657,23.958 29.104,24.615 29.148,25.379 C29.192,26.142 29.817,26.723 30.544,26.676 C31.27,26.63 31.823,25.973 31.778,25.209 C31.734,24.446 31.109,23.864 30.383,23.911 M22.053,42.726 C23.361,44.028 22.486,44.943 23.367,45.642 C23.382,45.654 23.399,45.666 23.416,45.679 C23.655,45.85 23.945,45.932 24.239,45.928 C24.499,45.924 24.839,45.918 25.036,45.908 C25.094,43.618 24.526,43.528 22.053,42.726" id="Fill-18" fill="#000000"></path>
                    <path d="M24.752,11.2505 C25.162,11.3065 26.998,11.6415 28.151,12.0305 C27.536,11.6485 27.03,10.6785 26.745,10.1355 C26.299,9.2865 25.891,8.7055 25.016,9.1345 C24.141,9.5645 25.006,10.7575 24.752,11.2505" id="Fill-19" fill="#D23929"></path>
                    <path d="M21.5804,10.8926 C20.3944,9.3776 20.5124,8.4936 19.4204,8.8966 C18.4244,9.2636 19.5544,9.8986 19.3054,10.9646 C20.2604,10.8726 21.0834,10.8206 21.5804,10.8926" id="Fill-20" fill="#D23929"></path>
                    <path d="M20.4881,23.4258 C19.1211,24.3198 20.2651,25.0558 21.1301,27.2758 C20.9281,26.4818 23.2861,25.2638 23.6711,25.9858 C22.2291,23.3548 21.7251,22.6178 20.4881,23.4258" id="Fill-21" fill="#D23929"></path>
                    <path d="M26.5547,36.765 C27.1347,35.809 26.4937,33.814 25.9607,32.747 C25.4277,31.68 24.7327,29.985 23.9587,29.576 C24.1517,30.245 25.6397,32.811 25.5217,34.013 C26.0267,34.504 26.5057,35.22 26.5547,36.765" id="Fill-22" fill="#D23929"></path>
                    <path d="M31.63,28.3951 C31.328,28.0781 30.943,27.8441 30.565,27.6141 C29.903,27.2111 29.278,26.8311 28.959,26.0091 C28.637,25.1771 28.627,24.5691 28.618,23.9821 C28.608,23.3751 28.599,22.7901 28.24,22.1321 C30.157,22.7741 31.434,23.5781 31.896,24.4541 C32.481,25.5641 32.162,27.0071 31.63,28.3951 M32.332,24.2241 C31.702,23.0291 29.854,21.9621 26.788,21.2011 C28.938,23.0251 27.592,23.8461 28.499,26.1871 C29.245,28.1101 31.424,28.0161 31.685,29.5461 C32.435,27.8521 33.161,25.7961 32.332,24.2241" id="Fill-23" fill="#D23929"></path>
                </g>
            </g>
        </g>
    </g>
</svg>