<?xml version="1.0" encoding="UTF-8"?>
<svg width="362px" height="50px" viewBox="0 0 362 50" version="1.1" xmlns="http://www.w3.org/2000/svg" xmlns:xlink="http://www.w3.org/1999/xlink">
    <title>logo</title>
    <defs>
        <polygon id="path-1" points="0 49.646 361.198 49.646 361.198 0 0 0"></polygon>
    </defs>
    <g id="landingpage" stroke="none" stroke-width="1" fill="none" fill-rule="evenodd">
        <g id="homepage" transform="translate(-230.000000, -11651.000000)">
            <g id="footer" transform="translate(-161.000000, 11508.000000)">
                <g id="logo" transform="translate(391.000000, 143.000000)">
                    <path d="M155.4285,16.5563 L155.4285,8.3893 L153.2995,8.3893 C152.3005,8.3893 151.4905,9.1993 151.4905,10.1983 L151.4905,16.5313 C151.4905,18.0823 150.6295,18.8943 149.1775,18.8943 C147.7495,18.8943 146.9375,18.0823 146.9375,16.5563 L146.9375,10.1983 C146.9375,9.1993 146.1275,8.3893 145.1285,8.3893 L142.9995,8.3893 L142.9995,16.5563 C142.9995,20.0023 145.3125,22.4383 149.1775,22.4383 C153.0655,22.4383 155.4285,20.0023 155.4285,16.5563 L155.4285,16.5563 Z M227.4065,9.8723 C226.5265,8.7913 225.2445,8.0873 223.9375,8.0873 C222.6805,8.0873 221.2225,8.5403 220.1165,9.7713 L220.1165,3.0523 L216.0435,3.0523 L216.0435,21.8643 L220.1165,21.8643 L220.1165,12.9143 C220.6695,11.9843 221.7505,11.5063 222.6305,11.5063 C223.3095,11.5063 223.9375,11.7583 224.2395,12.4363 C224.5405,13.1153 224.5405,14.1463 224.5405,15.0263 L224.5405,21.8643 L228.6135,21.8643 L228.6135,14.8753 C228.6135,12.9893 228.5125,11.2803 227.4065,9.8723 L227.4065,9.8723 Z M210.1365,11.2303 C211.1925,11.2303 212.0725,11.7323 212.7765,12.3863 L214.9635,9.9733 C213.6565,8.7163 211.9975,8.0873 210.1365,8.0873 C207.5975,8.0873 205.1595,9.4953 205.1595,12.2603 C205.1595,14.5983 206.8435,15.5543 208.4025,16.2573 C209.7095,16.8613 210.9165,17.2633 210.9165,18.1433 C210.9165,18.7713 209.9855,19.0233 209.4575,19.0233 C208.0755,19.0233 207.2455,18.3693 206.1895,17.3643 L203.9775,19.7773 C205.6115,21.3113 207.4975,22.1653 209.6845,22.1653 C212.3495,22.1653 214.9635,20.7573 214.9635,17.7913 C214.9635,15.1513 212.7515,14.3223 211.0415,13.6183 C209.9605,13.1653 209.0555,12.7383 209.0555,11.9593 C209.0555,11.4813 209.6335,11.2303 210.1365,11.2303 L210.1365,11.2303 Z M184.9825,7.88425887 C183.2495,7.8773 181.9375,8.7643 181.0485,10.1983 C180.3595,8.7953 179.1535,7.88425887 177.2335,7.88425887 C175.3385,7.88425887 174.1575,8.9183 173.4435,10.1243 L173.3695,10.1243 L173.2675,9.6753 C173.0965,8.9233 172.4285,8.3893 171.6575,8.3893 L169.9235,8.3893 L169.9235,21.8643 L173.8615,21.8643 L173.8615,13.6683 C173.8615,12.4863 174.5015,11.4533 175.8305,11.4533 C177.1595,11.4533 177.6515,12.1673 177.6515,13.6433 L177.6515,21.8643 L181.5895,21.8643 L181.5895,13.4963 C181.5895,12.3883 182.3035,11.4533 183.5835,11.4533 C184.9125,11.4533 185.4045,12.1673 185.4045,13.6433 L185.4045,21.8643 L189.3425,21.8643 L189.3425,12.3703 C189.3425,9.9423 187.4115,7.8943 184.9825,7.88425887 L184.9825,7.88425887 Z M194.5175,13.4673 C194.8685,12.1353 195.6735,11.2053 197.2575,11.2053 C198.5395,11.2053 199.5445,11.9593 199.6205,13.4673 L194.5175,13.4673 Z M197.1315,8.0873 C193.2095,8.0873 190.2435,11.2303 190.2435,15.3273 C190.2435,19.4253 193.1095,22.1653 197.1065,22.1653 C200.0475,22.1653 201.7065,21.0593 203.3405,18.7973 L200.7265,17.0123 C199.8465,18.2183 199.1175,18.9473 197.3825,18.9473 C195.7235,18.9473 194.6425,17.8163 194.3665,16.1323 L203.5675,16.1323 C203.6675,15.5033 203.7435,14.8503 203.7435,14.2973 C203.7435,10.7023 200.9275,8.0873 197.1315,8.0873 L197.1315,8.0873 Z M130.3955,21.8643 L132.2555,14.7743 L132.3065,14.7743 L134.1415,21.8643 L138.4155,21.8643 L142.2865,8.3893 L138.0375,8.3893 L136.1025,16.3333 L136.0515,16.3333 L134.0155,8.3893 L130.6215,8.3893 L128.5105,16.3583 L128.4595,16.3583 L126.6745,8.3893 L122.3505,8.3893 L126.0215,21.8643 L130.3955,21.8643 Z M110.3425,22.4383 L111.2945,21.4863 C112.5655,20.1643 114.6245,18.1183 114.6245,16.9553 C114.6245,18.1183 116.6825,20.1643 117.9535,21.4853 L118.9065,22.4383 L121.9155,19.4293 L117.6335,15.1473 L121.9155,10.8653 L118.9065,7.8553 L117.9535,8.8083 C116.6825,10.1303 114.6245,12.1753 114.6245,13.3383 C114.6245,12.1753 112.5655,10.1293 111.2945,8.8073 L110.3425,7.8553 L107.3325,10.8653 L111.6145,15.1473 L107.3325,19.4293 L110.3425,22.4383 Z M157.6965,22.3203 L161.6375,24.1243 C163.6355,19.3223 166.9095,12.1353 169.1855,7.3893 L169.1855,4.3833 L156.3645,4.3833 L156.3645,8.3883 L164.2455,8.3883 C162.7475,11.5803 160.1665,16.4923 157.6965,22.3203 L157.6965,22.3203 Z M153.6005,4.3863 L151.2255,1.9033 L147.1575,6.2173 L149.2105,8.2753 L153.6005,4.3863 Z M108.1745,26.5933 L121.0735,26.5933 L121.0735,23.2753 L108.1745,23.2753 L108.1745,26.5933 Z M95.3305,21.8643 L97.1915,14.7743 L97.2415,14.7743 L99.0765,21.8643 L103.3505,21.8643 L107.2215,8.3893 L102.9735,8.3893 L101.0375,16.3333 L100.9875,16.3333 L98.9505,8.3893 L95.5575,8.3893 L93.4455,16.3583 L93.3955,16.3583 L91.6105,8.3893 L87.2865,8.3893 L90.9565,21.8643 L95.3305,21.8643 Z M74.2115,26.5933 L87.1105,26.5933 L87.1105,23.2753 L74.2115,23.2753 L74.2115,26.5933 Z M80.0095,18.0293 L82.3225,21.8643 L87.1105,21.8643 L82.6055,14.3703 L86.8505,8.3893 L82.2765,8.3893 L78.0855,14.6163 L78.0855,3.0513 L74.2145,3.0513 L74.2145,21.8643 L77.2875,21.8643 L80.0095,18.0293 Z M73.3075,16.4233 C73.3075,9.9593 64.7075,11.6003 64.7075,8.7733 C64.7075,7.9593 65.5515,7.2043 66.8965,7.2043 C68.3055,7.2043 69.6855,8.0673 70.5255,8.8003 L72.9175,6.1603 C72.0985,5.3013 70.4015,3.6423 66.8635,3.6423 C62.4715,3.6423 60.4375,6.3223 60.4375,9.1673 C60.4375,10.5413 60.9835,11.6303 61.8025,12.5073 C63.5645,14.3933 67.2855,14.4253 68.4495,15.5903 C68.7365,15.8773 68.8775,16.2273 68.8775,16.6493 C68.8775,17.7073 67.8275,18.4243 66.4145,18.4243 C64.7775,18.4243 63.1735,17.4973 62.0765,16.2523 L59.4145,19.1333 C61.2475,21.1643 63.8895,22.1653 66.3855,22.1653 C71.0685,22.1653 73.3075,19.2183 73.3075,16.4233 L73.3075,16.4233 Z" id="Fill-1" fill="#FFFFFF"></path>
                    <mask id="mask-2" fill="white">
                        <use xlink:href="#path-1"></use>
                    </mask>
                    <g id="Clip-4"></g>
                    <path d="M321.541,6.746 L325.614,6.746 L325.614,3.528 L321.541,3.528 L321.541,6.746 Z M321.541,21.829 L325.614,21.829 L325.614,8.354 L321.541,8.354 L321.541,21.829 Z M295.335,10.166 L295.335,16.499 C295.335,18.05 294.473,18.862 293.021,18.862 C291.594,18.862 290.781,18.05 290.781,16.524 L290.781,10.166 C290.781,9.166 289.971,8.356 288.972,8.356 L286.844,8.356 L286.844,16.524 C286.844,19.969 289.157,22.406 293.021,22.406 C296.91,22.406 299.273,19.969 299.273,16.524 L299.273,8.356 L297.144,8.356 C296.145,8.356 295.335,9.166 295.335,10.166 L295.335,10.166 Z M315.743,7.84995887 C314.01,7.843 312.698,8.73 311.808,10.163 C311.119,8.761 309.913,7.84995887 307.994,7.84995887 C306.099,7.84995887 304.917,8.884 304.203,10.09 L304.13,10.09 L304.028,9.641 C303.857,8.888 303.188,8.355 302.417,8.355 L300.684,8.355 L300.684,21.829 L304.622,21.829 L304.622,13.634 C304.622,12.452 305.262,11.419 306.591,11.419 C307.92,11.419 308.412,12.132 308.412,13.609 L308.412,21.829 L312.35,21.829 L312.35,13.461 C312.35,12.354 313.064,11.419 314.343,11.419 C315.672,11.419 316.165,12.132 316.165,13.609 L316.165,21.829 L320.103,21.829 L320.103,12.336 C320.103,9.908 318.172,7.86 315.743,7.84995887 L315.743,7.84995887 Z M338.159,7.827 L337.206,8.78 C335.935,10.102 333.877,12.147 333.877,13.31 C333.877,12.147 331.818,10.101 330.547,8.779 L329.595,7.827 L326.585,10.837 L330.867,15.119 L326.585,19.4 L329.595,22.41 L330.547,21.458 C331.818,20.136 333.877,18.09 333.877,16.927 C333.877,18.09 335.935,20.135 337.206,21.457 L338.159,22.41 L341.168,19.4 L336.886,15.119 L341.168,10.837 L338.159,7.827 Z M279.9,16.294 L279.849,16.294 L277.813,8.35 L274.419,8.35 L272.308,16.319 L272.257,16.319 L270.472,8.35 L266.148,8.35 L269.819,21.824 L274.193,21.824 L276.053,14.735 L276.104,14.735 L277.939,21.824 L282.212,21.824 L286.084,8.35 L281.835,8.35 L279.9,16.294 Z M355.014,16.294 L354.964,16.294 L352.927,8.35 L349.533,8.35 L347.422,16.319 L347.371,16.319 L345.587,8.35 L341.262,8.35 L344.933,21.824 L349.307,21.824 L351.167,14.735 L351.218,14.735 L353.053,21.824 L357.327,21.824 L361.198,8.35 L356.95,8.35 L355.014,16.294 Z M263.058,7.827 L262.106,8.78 C260.834,10.102 258.776,12.147 258.776,13.31 C258.776,12.147 256.717,10.101 255.446,8.779 L254.494,7.827 L251.485,10.837 L255.767,15.119 L251.485,19.4 L254.494,22.41 L255.446,21.458 C256.717,20.136 258.776,18.09 258.776,16.927 C258.776,18.09 260.834,20.135 262.106,21.457 L263.058,22.41 L266.068,19.4 L261.786,15.119 L266.068,10.837 L263.058,7.827 Z M243.692,6.371 L248.082,2.482 L245.708,0 L241.64,4.314 L243.692,6.371 Z M246.148,7.964 L246.148,15.677 C246.148,17.61 245.033,18.354 243.694,18.354 C242.356,18.354 241.24,17.61 241.24,15.677 L241.24,7.964 C241.24,6.626 240.155,5.541 238.817,5.541 L236.869,5.541 L236.869,16.071 C236.869,19.975 239.484,22.401 243.694,22.401 C247.904,22.401 250.519,19.975 250.519,16.071 L250.519,5.541 L248.571,5.541 C247.233,5.541 246.148,6.626 246.148,7.964 L246.148,7.964 Z" id="Fill-3" fill="#FFFFFF" mask="url(#mask-2)"></path>
                    <path d="M64.7344,33.3142 C67.0254,33.3142 68.5074,34.5542 68.8174,36.2772 L67.4044,36.6562 C67.1634,35.3642 66.1124,34.6752 64.7004,34.6752 C63.1324,34.6752 62.1154,35.5192 62.1154,36.7942 C62.1154,37.8622 62.8394,38.4652 63.9424,38.7582 L66.0434,39.2922 C68.0764,39.8092 69.0584,40.9802 69.0584,42.6002 C69.0584,44.6842 67.4564,46.1492 64.8034,46.1492 C62.5124,46.1492 60.8064,45.0462 60.4794,43.1342 L61.9094,42.7382 C62.0984,43.9782 63.1494,44.7702 64.8204,44.7702 C66.4914,44.7702 67.5774,44.0122 67.5774,42.6692 C67.5774,41.5832 66.8874,40.9462 65.7504,40.6702 L63.6664,40.1532 C61.5994,39.6372 60.6514,38.4132 60.6514,36.8282 C60.6514,34.7442 62.2704,33.3142 64.7344,33.3142" id="Fill-5" fill="#FFFFFF" mask="url(#mask-2)"></path>
                    <path d="M76.983,41.7385 C76.983,39.8775 75.932,38.6035 74.209,38.6035 C72.504,38.6035 71.453,39.8775 71.453,41.7385 C71.453,43.5815 72.504,44.8735 74.209,44.8735 C75.932,44.8735 76.983,43.5815 76.983,41.7385 L76.983,41.7385 Z M78.43,37.5525 L78.43,49.6465 L77.086,49.6465 L77.086,44.5465 C76.501,45.5805 75.329,46.1485 74.003,46.1485 C71.591,46.1485 69.989,44.3745 70.006,41.6865 C70.04,39.0855 71.574,37.3285 74.037,37.3285 C75.415,37.3285 76.552,37.9135 77.121,38.9645 L77.207,37.5525 L78.43,37.5525 Z" id="Fill-6" fill="#FFFFFF" mask="url(#mask-2)"></path>
                    <path d="M86.3031,45.9421 C86.2341,45.5971 86.1821,45.1671 86.1651,44.7711 C85.6831,45.6321 84.6841,46.1491 83.4431,46.1491 C81.8581,46.1491 80.1011,45.3221 80.1011,42.6171 L80.1011,37.5521 L81.5311,37.5521 L81.5311,42.4101 C81.5311,44.3741 82.7201,44.8911 83.7191,44.8911 C85.0801,44.8911 86.1311,43.9261 86.1311,42.3071 L86.1311,37.5521 L87.5611,37.5521 L87.5611,44.4091 C87.5611,44.8911 87.6301,45.5631 87.7161,45.9421 L86.3031,45.9421 Z" id="Fill-7" fill="#FFFFFF" mask="url(#mask-2)"></path>
                    <path d="M95.0201,41.928 L92.5051,41.928 C91.2471,41.928 90.5581,42.531 90.5581,43.496 C90.5581,44.512 91.3161,45.029 92.4531,45.029 C94.0041,45.029 95.0201,43.995 95.0201,42.169 L95.0201,41.928 Z M95.1751,45.942 C95.1061,45.684 95.0721,45.236 95.0371,44.719 C94.5721,45.529 93.5381,46.149 92.1771,46.149 C90.3511,46.149 89.1281,45.132 89.1281,43.513 C89.1281,41.894 90.3341,40.86 92.1951,40.86 L95.0201,40.86 L95.0201,40.515 C95.0201,39.017 94.0901,38.517 92.9011,38.517 C91.6611,38.517 90.9031,39.068 90.5061,39.895 L89.4381,39.275 C90.1101,37.948 91.3851,37.328 92.9701,37.328 C94.8301,37.328 96.3981,38.172 96.3981,40.584 L96.3981,44.254 C96.3981,44.891 96.4671,45.649 96.5531,45.942 L95.1751,45.942 Z" id="Fill-8" fill="#FFFFFF" mask="url(#mask-2)"></path>
                    <path d="M110.611,40.5326 L110.611,45.9426 L109.25,45.9426 L109.25,40.7396 C109.25,39.3616 108.492,38.5686 107.286,38.5686 C105.994,38.5686 105.167,39.5166 105.167,40.8426 L105.167,45.9426 L103.772,45.9426 L103.772,40.7226 C103.772,39.3616 103.014,38.5686 101.808,38.5686 C100.516,38.5686 99.689,39.5166 99.689,40.8256 L99.689,45.9426 L98.259,45.9426 L98.259,37.5526 L99.568,37.5526 L99.637,38.4826 C100.119,37.7246 101.05,37.3286 102.101,37.3286 C103.358,37.3286 104.357,37.9136 104.805,38.9476 C105.236,37.9486 106.252,37.3286 107.579,37.3286 C109.353,37.3286 110.611,38.4826 110.611,40.5326" id="Fill-9" fill="#FFFFFF" mask="url(#mask-2)"></path>
                    <path d="M112.54,45.942 L113.97,45.942 L113.97,37.552 L112.54,37.552 L112.54,45.942 Z M112.196,34.537 C112.196,33.934 112.644,33.469 113.247,33.469 C113.85,33.469 114.315,33.934 114.315,34.537 C114.315,35.14 113.85,35.588 113.247,35.588 C112.644,35.588 112.196,35.14 112.196,34.537 L112.196,34.537 Z" id="Fill-10" fill="#FFFFFF" mask="url(#mask-2)"></path>
                    <path d="M118.7938,44.9773 C119.6728,44.9773 120.5508,44.6503 120.5508,43.6683 C120.5508,42.9613 120.0338,42.6343 119.3798,42.4623 L118.1048,42.1173 C116.5368,41.7043 115.8648,40.8773 115.8648,39.7743 C115.8648,38.4133 116.9508,37.3283 118.7938,37.3283 C120.3438,37.3283 121.6018,38.0863 121.7918,39.4123 L120.5338,39.7053 C120.4308,38.9473 119.7238,38.5173 118.8278,38.5173 C117.8458,38.5173 117.2438,39.0333 117.2438,39.7743 C117.2438,40.4463 117.7258,40.7913 118.5008,40.9973 L119.7588,41.3423 C121.1708,41.7043 121.9638,42.5133 121.9638,43.6683 C121.9638,45.1663 120.7918,46.1483 118.8108,46.1483 C116.9848,46.1483 115.8308,45.2533 115.6588,43.9613 L116.9328,43.7193 C117.0368,44.4773 117.7258,44.9773 118.7938,44.9773" id="Fill-11" fill="#FFFFFF" mask="url(#mask-2)"></path>
                    <path d="M131.2322,40.9116 L131.2322,45.9416 L129.8192,45.9416 L129.8192,41.2046 C129.8192,39.1376 128.7342,38.6206 127.5282,38.6206 C126.2362,38.6206 125.0302,39.5676 125.0302,41.3076 L125.0302,45.9246 L123.6172,45.9246 L123.6172,33.3146 L125.0472,33.3146 L125.0472,38.7066 C125.5642,37.8796 126.5812,37.3286 127.7862,37.3286 C129.7162,37.3286 131.2322,38.3276 131.2322,40.9116" id="Fill-12" fill="#FFFFFF" mask="url(#mask-2)"></path>
                    <polygon id="Fill-13" fill="#FFFFFF" mask="url(#mask-2)" points="147.9084 33.5381 147.9084 45.9421 146.4444 45.9421 139.8804 35.9501 139.8804 45.9421 138.3984 45.9421 138.3984 33.5381 139.8804 33.5381 146.4444 43.5301 146.4444 33.5381"></polygon>
                    <path d="M155.4541,41.928 L152.9391,41.928 C151.6811,41.928 150.9921,42.531 150.9921,43.496 C150.9921,44.512 151.7501,45.029 152.8871,45.029 C154.4381,45.029 155.4541,43.995 155.4541,42.169 L155.4541,41.928 Z M155.6091,45.942 C155.5401,45.684 155.5061,45.236 155.4711,44.719 C155.0061,45.529 153.9721,46.149 152.6111,46.149 C150.7851,46.149 149.5621,45.132 149.5621,43.513 C149.5621,41.894 150.7681,40.86 152.6291,40.86 L155.4541,40.86 L155.4541,40.515 C155.4541,39.017 154.5241,38.517 153.3351,38.517 C152.0951,38.517 151.3371,39.068 150.9401,39.895 L149.8721,39.275 C150.5441,37.948 151.8191,37.328 153.4041,37.328 C155.2641,37.328 156.8321,38.172 156.8321,40.584 L156.8321,44.254 C156.8321,44.891 156.9011,45.649 156.9871,45.942 L155.6091,45.942 Z" id="Fill-14" fill="#FFFFFF" mask="url(#mask-2)"></path>
                    <path d="M165.825,34.5373 C165.825,35.1403 165.36,35.5883 164.774,35.5883 C164.171,35.5883 163.706,35.1403 163.706,34.5373 C163.706,33.9343 164.171,33.4693 164.774,33.4693 C165.36,33.4693 165.825,33.9343 165.825,34.5373 L165.825,34.5373 Z M165.48,45.9423 L164.051,45.9423 L164.051,38.7233 L160.829,38.7233 L160.829,45.9423 L159.416,45.9423 L159.416,38.7233 L157.762,38.7233 L157.762,37.5523 L159.416,37.5523 L159.416,34.9163 L160.829,34.9163 L160.829,37.5523 L165.48,37.5523 L165.48,45.9423 Z" id="Fill-15" fill="#FFFFFF" mask="url(#mask-2)"></path>
                    <path d="M171.2342,44.8739 C172.9572,44.8739 174.0592,43.5469 174.0592,41.7389 C174.0592,39.9469 172.9572,38.6029 171.2342,38.6029 C169.5282,38.6029 168.4262,39.9469 168.4262,41.7389 C168.4262,43.5469 169.5282,44.8739 171.2342,44.8739 M171.2342,37.3279 C173.8012,37.3279 175.4892,39.2579 175.4892,41.7389 C175.4892,44.2369 173.8012,46.1489 171.2342,46.1489 C168.6842,46.1489 166.9792,44.2369 166.9792,41.7389 C166.9792,39.2579 168.6842,37.3279 171.2342,37.3279" id="Fill-16" fill="#FFFFFF" mask="url(#mask-2)"></path>
                    <path d="M184.4132,40.8082 L184.4132,45.9422 L183.0002,45.9422 L183.0002,41.0152 C183.0002,39.0852 181.7942,38.6202 180.8302,38.6202 C179.4172,38.6202 178.3832,39.5682 178.3832,41.2042 L178.3832,45.9252 L176.9712,45.9252 L176.9712,37.5522 L178.2972,37.5522 L178.3492,38.6722 C178.8482,37.8622 179.8652,37.3282 181.1052,37.3282 C182.9492,37.3282 184.4132,38.3622 184.4132,40.8082" id="Fill-17" fill="#FFFFFF" mask="url(#mask-2)"></path>
                    <path d="M18.0571,12.0729 C18.0191,11.9879 17.9811,11.9009 17.9411,11.8129 C17.9801,11.9019 18.0181,11.9879 18.0571,12.0729" id="Fill-18" fill="#FFFFFF" mask="url(#mask-2)"></path>
                    <path d="M31.476,31.4127 C28.995,32.2857 28.945,31.4797 26.779,26.5657 C25.267,23.2617 23.336,20.9177 26.277,19.8357 C27.617,19.3387 29.38,18.8767 30.083,18.9227 C29.268,17.2307 29.334,14.2787 23.951,15.1757 C20.99,15.6687 19.654,15.5947 18.057,12.0727 C19.783,15.9767 18.744,16.2747 16.222,17.4217 C13.538,18.6417 12.889,17.9817 12.144,17.1537 C11.736,16.7017 11.299,16.1987 10.483,15.9277 C10.511,16.8317 10.995,17.2727 11.274,17.7147 C11.921,18.7447 12.301,19.2617 9.99,21.4997 C8.81,22.6437 8.097,23.2947 6.378,22.9827 C4.763,22.6897 4.323,23.0697 4.023,24.4597 C3.574,26.5367 3.469,27.2877 3.427,27.9507 C3.19,30.7427 3.801,30.8687 5.587,30.8637 C8.005,30.8567 8.281,30.6317 8.45,27.8347 C8.406,30.6337 9.122,30.4237 10.908,30.4187 C13.326,30.4127 13.6,30.2117 13.769,27.4157 C14.169,30.1887 14.358,30.4197 17.03,30.2037 C18.827,30.0587 19.386,29.6257 19.524,28.5967 C19.656,27.6077 18.591,26.1047 17.742,24.6537 C16.647,22.7827 15.736,22.2637 17.234,21.0517 C19.644,19.1027 20.899,19.8447 22.488,22.1177 C23.266,23.2317 25.631,27.9227 26.703,29.9207 C27.848,30.0937 29.081,31.7947 28.292,33.1267 C29.501,33.5947 29.796,35.1977 29.155,35.7897 C29.92,36.6277 30.807,38.6987 29.205,40.1297 C31.276,39.6367 31.572,38.6747 30.955,36.1837 C33.802,34.7607 33.357,37.3967 33.619,38.6007 C34.506,36.9977 34.899,33.9977 34.21,31.1287 C33.472,30.7457 32.901,30.9117 31.476,31.4127" id="Fill-19" fill="#FFFFFF" mask="url(#mask-2)"></path>
                    <path d="M18.855,8.8894 C19.948,8.4864 19.83,9.3704 21.016,10.8864 C20.519,10.8144 19.696,10.8664 18.741,10.9584 C18.989,9.8924 17.859,9.2574 18.855,8.8894 M22.67,11.6954 C21.858,11.5024 21.983,11.0084 20.863,9.3154 C20.123,8.1954 19.678,7.6094 18.501,8.2504 C17.448,8.8234 17.824,9.2514 17.977,10.0574 C18.108,10.7504 18.517,11.4844 17.243,11.8394 C19.136,11.4274 20.858,11.4344 22.67,11.6954" id="Fill-20" fill="#FFFFFF" mask="url(#mask-2)"></path>
                    <path d="M20.5656,27.2766 C19.6996,25.0556 18.5556,24.3196 19.9236,23.4246 C21.1606,22.6156 21.6646,23.3536 23.1076,25.9866 C22.7226,25.2636 20.3636,26.4826 20.5656,27.2766 M19.5456,22.7926 C17.3246,24.2456 19.1116,24.6986 20.5976,28.5106 C20.3216,27.1036 23.4576,25.7446 24.1426,26.8006 C22.0006,22.8926 21.3816,21.5926 19.5456,22.7926" id="Fill-21" fill="#FFFFFF" mask="url(#mask-2)"></path>
                    <path d="M24.4534,9.128 C25.3284,8.698 25.7374,9.28 26.1824,10.129 C26.4684,10.672 26.9744,11.642 27.5894,12.024 C26.4364,11.636 24.5994,11.301 24.1894,11.244 C24.4434,10.751 23.5784,9.558 24.4534,9.128 M22.9634,11.739 C24.9324,12.05 27.0254,12.646 29.5714,13.318 C28.4994,13.033 28.5704,12.915 26.8714,10.056 C26.0794,8.723 25.4124,7.71 24.2404,8.125 C23.0694,8.539 22.9914,9.204 23.2854,10.267 C23.6344,11.533 23.5494,11.684 22.9634,11.739" id="Fill-22" fill="#FFFFFF" mask="url(#mask-2)"></path>
                    <path d="M24.9594,34.0162 C25.0774,32.8142 23.5884,30.2472 23.3954,29.5782 C24.1704,29.9872 24.8654,31.6822 25.3984,32.7502 C25.9324,33.8172 26.5734,35.8132 25.9924,36.7692 C25.9444,35.2242 25.4644,34.5082 24.9594,34.0162 M35.0354,33.9052 C35.4134,38.6302 34.2154,39.6052 31.8354,40.3192 C29.1814,41.1152 26.7924,40.4882 25.6434,38.7632 C27.7904,39.5382 28.4424,37.5222 27.2624,36.2992 C27.4134,34.8332 25.2484,27.9052 22.8534,28.8752 C21.8394,30.9022 26.6574,37.3822 24.0944,38.7992 C22.9674,35.5952 21.1874,30.2412 20.6094,29.0122 C19.9844,29.3302 19.8804,30.6192 20.1134,32.2402 C20.5254,35.0992 20.6794,38.7282 23.4954,40.4182 C25.5144,41.6232 27.8644,41.8652 29.9024,42.5312 C31.0314,42.9002 31.8924,43.2272 32.6104,43.8822 C31.1634,44.5692 29.6264,45.0992 28.0224,45.4492 C26.9094,45.6922 25.7944,45.1462 25.2344,44.1542 C24.4534,42.7712 22.2164,42.1792 17.3674,41.3862 C20.3074,41.9322 21.5434,43.2042 21.6884,45.4492 C21.6974,45.5962 21.7054,45.7372 21.7124,45.8732 C21.5414,45.8592 21.3704,45.8432 21.2004,45.8262 C20.4454,45.7482 19.7434,45.3632 19.3154,44.7362 C18.5884,43.6712 17.0024,43.1762 14.1704,43.1312 C13.1844,43.1162 12.2264,42.8022 11.4104,42.2472 C10.9054,41.9042 10.4164,41.5392 9.9444,41.1552 C13.9544,40.7852 19.1224,41.1672 23.2144,41.3872 C18.3574,40.2492 20.9324,37.4522 19.8124,35.3352 C19.6234,39.7582 19.7854,39.6032 17.6474,39.9232 C14.5934,40.3782 14.5934,40.2712 14.2634,38.2102 C14.3864,40.2942 14.3924,40.3602 11.3134,40.5772 C9.2434,40.7232 8.8584,40.7112 8.7114,39.1112 L8.7114,39.1152 C8.7034,39.1242 8.6954,39.1332 8.6864,39.1422 C8.4494,39.4052 8.0394,39.4122 7.7974,39.1532 C7.7604,39.1142 7.7234,39.0742 7.6874,39.0352 C8.3754,38.6782 8.6994,38.0552 8.6914,37.0052 C8.7834,38.7512 9.4934,38.7492 11.2214,38.6272 C13.5584,38.4632 14.1554,38.2042 14.2774,36.4572 C14.6464,38.1772 14.8804,38.3622 17.3144,37.9992 C18.8034,37.7772 19.1654,37.6322 19.1184,35.9622 C18.7514,36.0992 18.2244,36.1822 17.4844,36.2932 C14.4304,36.7482 14.4314,36.6412 14.1004,34.5802 C14.2244,36.6642 14.2304,36.7302 11.1504,36.9472 C9.0804,37.0932 8.6964,37.0822 8.5494,35.4822 L8.5494,35.4852 C8.2284,35.8232 8.1714,36.2162 8.0524,36.5862 C7.7534,37.5102 6.5244,37.7002 5.9624,36.9072 C5.7114,36.5532 5.4714,36.1902 5.2414,35.8212 C5.4084,35.8212 5.5854,35.8142 5.7794,35.8012 C7.6654,35.6682 8.4514,35.3502 8.4304,32.5862 C8.5764,35.3802 9.2764,35.1232 11.0584,34.9972 C13.4704,34.8272 13.8204,34.8432 14.0164,32.0382 C14.6034,34.7782 14.5004,34.7652 17.1524,34.3702 C19.2524,34.0562 19.4294,33.5392 19.3114,31.7212 C18.9534,31.9962 18.3214,32.0572 17.2324,32.1452 C14.1544,32.3932 14.1624,32.2862 13.9714,30.2082 C13.9544,32.2952 13.9554,32.3622 10.8684,32.3702 C8.7934,32.3762 8.4104,32.3382 8.3714,30.7322 L8.3714,30.7362 C7.4754,31.5612 8.3554,32.8902 5.2684,32.8982 C5.2604,32.8982 5.2524,32.8982 5.2444,32.8982 C4.3364,32.9002 3.5254,32.3392 3.1924,31.4952 C3.1744,31.4492 3.1634,31.4272 3.1634,31.4382 C3.1604,31.4292 3.1564,31.4192 3.1534,31.4092 C2.5194,29.5402 2.4214,27.5282 2.8474,25.6012 C3.9094,20.8022 6.3764,16.9122 11.3214,14.2032 C13.4374,13.0452 15.2404,12.3202 16.9014,11.9182 C16.8944,11.9192 16.8874,11.9212 16.8794,11.9222 C17.7554,11.7352 17.8134,10.8782 17.1544,9.7322 C16.1354,7.9602 16.2424,7.5972 17.5554,6.8092 C18.7014,6.1222 18.9014,5.0042 18.5014,3.9152 C19.3604,5.5492 21.0794,8.3572 22.9134,11.6232 C21.4044,7.7992 21.3744,7.4172 22.9134,6.6382 C24.4054,5.8822 24.8034,5.1972 24.0874,3.1292 C26.1824,7.0952 28.7874,11.9132 29.5814,13.3202 C31.9224,13.9372 34.6454,14.6182 38.0114,15.1992 C40.5664,15.6402 42.6584,18.4502 41.8794,24.3302 C38.4444,25.9492 34.4604,26.7192 35.0354,33.9052 M23.6764,45.9372 C23.3824,45.9412 23.0914,45.8592 22.8524,45.6872 C22.8354,45.6752 22.8194,45.6622 22.8034,45.6502 C21.9224,44.9512 22.7974,44.0362 21.4894,42.7332 C23.9634,43.5352 24.5314,43.6252 24.4734,45.9172 C24.2764,45.9262 23.9364,45.9332 23.6764,45.9372 M40.0104,7.9552 C35.5834,3.5292 29.6974,1.0912 23.4374,1.0912 C17.1774,1.0912 11.2914,3.5292 6.8644,7.9552 C2.4384,12.3822 0.0004,18.2682 0.0004,24.5282 C0.0004,30.7882 2.4384,36.6742 6.8644,41.1012 C11.2914,45.5282 17.1774,47.9652 23.4374,47.9652 C29.6974,47.9652 35.5834,45.5282 40.0104,41.1012 C44.4374,36.6742 46.8744,30.7882 46.8744,24.5282 C46.8744,18.2682 44.4374,12.3822 40.0104,7.9552" id="Fill-23" fill="#FFFFFF" mask="url(#mask-2)"></path>
                    <path d="M27.5811,44.8682 C28.1411,44.8322 28.5681,44.3252 28.5331,43.7372 C28.4991,43.1482 28.0171,42.6992 27.4571,42.7352 C26.8971,42.7722 26.4711,43.2782 26.5051,43.8672 C26.5391,44.4562 27.0211,44.9042 27.5811,44.8682" id="Fill-24" fill="#FFFFFF" mask="url(#mask-2)"></path>
                    <path d="M37.6304,23.9754 C37.2644,24.2274 36.4114,24.8694 36.0544,25.6094 C36.7134,23.8274 35.5974,22.9484 36.3244,21.2344 C36.4854,20.8544 37.0314,20.5464 37.4524,20.3504 C37.0314,20.4964 36.3144,20.4144 35.9344,20.2814 C34.6614,19.8364 34.8624,17.9314 32.6954,16.6424 C33.8474,17.2594 34.6114,17.3344 35.1954,17.3614 C37.2124,17.4534 38.0064,17.8534 38.7404,20.2764 C39.1954,21.7784 39.1414,22.9364 37.6304,23.9754 M35.1804,16.2774 C34.1424,16.1484 32.7584,15.9874 31.2204,15.2124 C33.0614,18.1544 35.2544,24.1724 35.6554,27.1784 C35.9284,26.5074 36.1794,26.1964 37.5934,25.2864 C39.6854,23.9414 40.6794,23.0864 39.9494,20.2054 C39.0994,16.8494 38.1684,16.6484 35.1804,16.2774" id="Fill-25" fill="#FFFFFF" mask="url(#mask-2)"></path>
                    <path d="M31.1249,29.5479 C30.8639,28.0169 28.6839,28.1109 27.9379,26.1869 C27.0309,23.8449 28.3769,23.0239 26.2269,21.1989 C29.2939,21.9609 31.1419,23.0289 31.7719,24.2229 C32.6019,25.7959 31.8759,27.8529 31.1249,29.5479 M33.4479,27.9549 C33.2369,27.1439 32.9639,25.9459 32.4269,24.2929 C31.0009,19.8969 30.4819,19.3329 26.9939,20.3829 C24.6859,21.0779 25.1729,21.9719 27.2759,26.4279 C29.3379,30.9859 29.2589,31.3929 31.6619,30.4839 C31.8599,30.4099 33.8929,29.7049 34.5609,30.6429 C34.7529,30.1919 34.9689,29.5069 34.8989,29.0779 C33.8559,29.6379 33.9179,29.7609 33.4479,27.9549" id="Fill-26" fill="#FFFFFF" mask="url(#mask-2)"></path>
                    <path d="M29.9832,26.6769 C29.2572,26.7239 28.6312,26.1419 28.5872,25.3789 C28.5432,24.6149 29.0962,23.9569 29.8222,23.9109 C30.5482,23.8639 31.1742,24.4449 31.2182,25.2089 C31.2632,25.9729 30.7102,26.6299 29.9832,26.6769 M27.6782,22.1309 C28.0382,22.7889 28.0472,23.3749 28.0572,23.9819 C28.0662,24.5689 28.0752,25.1769 28.3982,26.0089 C28.7172,26.8319 29.3422,27.2119 30.0042,27.6149 C30.3822,27.8449 30.7682,28.0789 31.0702,28.3959 C31.6022,27.0079 31.9212,25.5639 31.3362,24.4539 C30.8742,23.5779 29.5972,22.7729 27.6782,22.1309" id="Fill-27" fill="#FFFFFF" mask="url(#mask-2)"></path>
                </g>
            </g>
        </g>
    </g>
</svg>