<svg id="Group_2" data-name="Group 2" xmlns="http://www.w3.org/2000/svg" xmlns:xlink="http://www.w3.org/1999/xlink" width="183.944" height="61.361" viewBox="0 0 183.944 61.361">
  <defs>
    <clipPath id="clip-path">
      <rect id="Rectangle_5" data-name="Rectangle 5" width="183.944" height="61.361" fill="#1f4181"/>
    </clipPath>
  </defs>
  <g id="Group_1" data-name="Group 1" clip-path="url(#clip-path)">
    <path id="Path_1" data-name="Path 1" d="M161.911,35.975a1.245,1.245,0,0,0-.485-1.055,6.37,6.37,0,0,0-1.746-.776,12.3,12.3,0,0,1-2-.8,3.261,3.261,0,0,1-2-2.918,2.841,2.841,0,0,1,.538-1.7,3.5,3.5,0,0,1,1.544-1.168,5.813,5.813,0,0,1,2.259-.421,5.292,5.292,0,0,1,2.248.457,3.58,3.58,0,0,1,1.532,1.289,3.374,3.374,0,0,1,.546,1.891h-2.425a1.588,1.588,0,0,0-.51-1.257,2.093,2.093,0,0,0-1.431-.448,2.237,2.237,0,0,0-1.382.376,1.186,1.186,0,0,0-.493.991,1.135,1.135,0,0,0,.578.962,6.514,6.514,0,0,0,1.7.728,7.354,7.354,0,0,1,3.015,1.544,3.075,3.075,0,0,1,.946,2.3,2.832,2.832,0,0,1-1.156,2.4,5.059,5.059,0,0,1-3.112.869,6.012,6.012,0,0,1-2.474-.5,3.912,3.912,0,0,1-1.7-1.362,3.489,3.489,0,0,1-.586-2h2.434q0,1.949,2.328,1.948a2.263,2.263,0,0,0,1.35-.352,1.144,1.144,0,0,0,.485-.982" transform="translate(-84.321 -14.73)" fill="#7d7d7d"/>
    <path id="Path_2" data-name="Path 2" d="M178.659,39.254V27.484h4.123a5.415,5.415,0,0,1,3.249.82,2.807,2.807,0,0,1,1.108,2.405,2.657,2.657,0,0,1-.445,1.524,2.569,2.569,0,0,1-1.236.966,2.484,2.484,0,0,1,1.427.913,2.7,2.7,0,0,1,.522,1.682,3.106,3.106,0,0,1-1.083,2.571,4.873,4.873,0,0,1-3.088.889Zm2.425-6.839h1.795q1.835-.032,1.835-1.463a1.352,1.352,0,0,0-.464-1.152,2.445,2.445,0,0,0-1.467-.352h-1.7Zm0,1.714v3.177h2.077A2.006,2.006,0,0,0,184.5,36.9a1.4,1.4,0,0,0,.481-1.128,1.478,1.478,0,0,0-1.673-1.641Z" transform="translate(-96.996 -14.921)" fill="#7d7d7d"/>
    <rect id="Rectangle_1" data-name="Rectangle 1" width="2.425" height="11.77" transform="translate(92.383 12.563)" fill="#7d7d7d"/>
    <path id="Path_3" data-name="Path 3" d="M285.5,120.269q.1-.528-.57-.817l-.766-.318q-1.611-.724-1.532-1.971a1.74,1.74,0,0,1,.392-1.016,2.331,2.331,0,0,1,.995-.693,3.657,3.657,0,0,1,1.387-.238,2.358,2.358,0,0,1,1.623.588,1.956,1.956,0,0,1,.6,1.527h-1.588a.95.95,0,0,0-.165-.628.718.718,0,0,0-.591-.245,1.237,1.237,0,0,0-.71.187.756.756,0,0,0-.364.528q-.088.467.693.766a7.607,7.607,0,0,1,1.137.514,1.879,1.879,0,0,1,1.046,1.8,1.844,1.844,0,0,1-.378,1.032,2.18,2.18,0,0,1-.946.687,3.5,3.5,0,0,1-1.357.234,3.281,3.281,0,0,1-1.022-.173,2.245,2.245,0,0,1-.808-.476,2.069,2.069,0,0,1-.654-1.658l1.6,0a1.1,1.1,0,0,0,.2.792.963.963,0,0,0,.77.268,1.155,1.155,0,0,0,.67-.184.766.766,0,0,0,.33-.511" transform="translate(-153.062 -62.551)" fill="#1f4181"/>
    <path id="Path_4" data-name="Path 4" d="M294.385,122.22l1.177-6.8,2.163,0a3.151,3.151,0,0,1,1.91.486,1.471,1.471,0,0,1,.575,1.35,1.688,1.688,0,0,1-1.177,1.522,1.155,1.155,0,0,1,.618.507,1.475,1.475,0,0,1,.189.88,1.955,1.955,0,0,1-.778,1.518,3.191,3.191,0,0,1-1.949.532Zm2.1-2.891-.285,1.625.957.005a1.225,1.225,0,0,0,.747-.221.869.869,0,0,0,.355-.589q.131-.778-.6-.815Zm.182-1.074.752,0q1.041-.023,1.167-.8t-.794-.773l-.85,0Z" transform="translate(-159.824 -62.663)" fill="#1f4181"/>
    <path id="Path_5" data-name="Path 5" d="M309.408,122.22h-1.6l1.182-6.8h1.592Z" transform="translate(-167.114 -62.663)" fill="#1f4181"/>
    <path id="Path_6" data-name="Path 6" d="M156.393,80.123V68.353h3.622a5.5,5.5,0,0,1,2.777.7,4.876,4.876,0,0,1,1.912,1.989,6.136,6.136,0,0,1,.687,2.93v.542a6.146,6.146,0,0,1-.675,2.918,4.831,4.831,0,0,1-1.9,1.981,5.541,5.541,0,0,1-2.773.712Zm2.425-9.806v7.857h1.172a2.634,2.634,0,0,0,2.175-.929,4.2,4.2,0,0,0,.767-2.66v-.623a4.27,4.27,0,0,0-.743-2.72,2.625,2.625,0,0,0-2.175-.926Z" transform="translate(-84.907 -37.109)" fill="#7d7d7d"/>
    <path id="Path_7" data-name="Path 7" d="M179.562,68.584a1.151,1.151,0,0,1,.352-.865,1.517,1.517,0,0,1,1.912,0,1.234,1.234,0,0,1,0,1.738,1.5,1.5,0,0,1-1.9,0,1.146,1.146,0,0,1-.36-.873m2.482,11.01H179.7V70.847h2.344Z" transform="translate(-97.486 -36.581)" fill="#7d7d7d"/>
    <path id="Path_8" data-name="Path 8" d="M188.457,79.083a5.128,5.128,0,0,1,.958-3.242A3.1,3.1,0,0,1,192,74.613a2.723,2.723,0,0,1,2.239.986l.1-.825h2.117v8.456a3.732,3.732,0,0,1-.521,2,3.349,3.349,0,0,1-1.467,1.294,5.162,5.162,0,0,1-2.215.445,4.8,4.8,0,0,1-1.875-.384,3.335,3.335,0,0,1-1.382-.991l1.035-1.422a2.737,2.737,0,0,0,2.118.978,2,2,0,0,0,1.447-.5,1.864,1.864,0,0,0,.517-1.411V82.77a2.7,2.7,0,0,1-2.126.913,3.1,3.1,0,0,1-2.551-1.233,5.122,5.122,0,0,1-.974-3.27Zm2.336.166a3.211,3.211,0,0,0,.477,1.872,1.516,1.516,0,0,0,1.31.678,1.621,1.621,0,0,0,1.528-.8V77.3a1.617,1.617,0,0,0-1.512-.8,1.525,1.525,0,0,0-1.322.69,3.62,3.62,0,0,0-.481,2.063" transform="translate(-102.315 -40.508)" fill="#7d7d7d"/>
    <path id="Path_9" data-name="Path 9" d="M209.838,68.584a1.151,1.151,0,0,1,.352-.865,1.517,1.517,0,0,1,1.912,0,1.235,1.235,0,0,1,0,1.738,1.5,1.5,0,0,1-1.9,0,1.148,1.148,0,0,1-.36-.873m2.482,11.01h-2.344V70.847h2.344Z" transform="translate(-113.923 -36.581)" fill="#7d7d7d"/>
    <path id="Path_10" data-name="Path 10" d="M221.3,70.262v2.15h1.5v1.714h-1.5v4.365a1.042,1.042,0,0,0,.186.7.93.93,0,0,0,.711.21,3.755,3.755,0,0,0,.687-.056v1.77a4.82,4.82,0,0,1-1.415.21,2.23,2.23,0,0,1-2.506-2.482V74.126h-1.277V72.412h1.277v-2.15Z" transform="translate(-118.186 -38.146)" fill="#7d7d7d"/>
    <path id="Path_11" data-name="Path 11" d="M236.371,83.522a2.579,2.579,0,0,1-.234-.784,2.826,2.826,0,0,1-2.207.946,3.1,3.1,0,0,1-2.13-.744,2.39,2.39,0,0,1-.845-1.875,2.472,2.472,0,0,1,1.031-2.134,5.087,5.087,0,0,1,2.979-.751h1.076v-.5a1.441,1.441,0,0,0-.312-.97,1.223,1.223,0,0,0-.982-.364,1.4,1.4,0,0,0-.926.283.962.962,0,0,0-.335.776h-2.336A2.351,2.351,0,0,1,231.618,76a3.106,3.106,0,0,1,1.327-1.014,4.824,4.824,0,0,1,1.923-.368,3.819,3.819,0,0,1,2.567.813,2.844,2.844,0,0,1,.95,2.284V81.5a4.178,4.178,0,0,0,.347,1.884v.138ZM234.439,81.9a2.014,2.014,0,0,0,.954-.23,1.513,1.513,0,0,0,.647-.618v-1.5h-.873q-1.755,0-1.868,1.212l-.008.138a.936.936,0,0,0,.307.719,1.194,1.194,0,0,0,.841.283" transform="translate(-125.388 -40.508)" fill="#7d7d7d"/>
    <rect id="Rectangle_2" data-name="Rectangle 2" width="2.344" height="12.417" transform="translate(114.913 30.596)" fill="#7d7d7d"/>
    <path id="Path_12" data-name="Path 12" d="M273.986,68.352l3.024,8.537,3.007-8.537H283.2v11.77h-2.433V76.905l.242-5.554-3.177,8.771h-1.666L273,71.36l.242,5.545v3.217h-2.425V68.352Z" transform="translate(-147.029 -37.109)" fill="#7d7d7d"/>
    <path id="Path_13" data-name="Path 13" d="M306.865,83.522a2.579,2.579,0,0,1-.234-.784,2.826,2.826,0,0,1-2.207.946,3.1,3.1,0,0,1-2.13-.744,2.39,2.39,0,0,1-.845-1.875,2.472,2.472,0,0,1,1.031-2.134,5.087,5.087,0,0,1,2.979-.751h1.076v-.5a1.441,1.441,0,0,0-.312-.97,1.223,1.223,0,0,0-.982-.364,1.4,1.4,0,0,0-.926.283.962.962,0,0,0-.335.776h-2.336A2.351,2.351,0,0,1,302.111,76a3.106,3.106,0,0,1,1.326-1.014,4.824,4.824,0,0,1,1.923-.368,3.819,3.819,0,0,1,2.567.813,2.844,2.844,0,0,1,.95,2.284V81.5a4.177,4.177,0,0,0,.347,1.884v.138ZM304.932,81.9a2.013,2.013,0,0,0,.954-.23,1.514,1.514,0,0,0,.647-.618v-1.5h-.873q-1.755,0-1.868,1.212l-.008.138a.936.936,0,0,0,.307.719,1.194,1.194,0,0,0,.841.283" transform="translate(-163.659 -40.508)" fill="#7d7d7d"/>
    <path id="Path_14" data-name="Path 14" d="M326.542,76.966a6.373,6.373,0,0,0-.841-.065,1.712,1.712,0,0,0-1.738.9v5.724h-2.336V74.775h2.207l.065,1.043a2.164,2.164,0,0,1,1.948-1.2,2.449,2.449,0,0,1,.727.1Z" transform="translate(-174.614 -40.509)" fill="#7d7d7d"/>
    <path id="Path_15" data-name="Path 15" d="M338.74,75.846l-.841.841v2.668h-2.336V66.937H337.9v6.88l.453-.582,2.24-2.627H343.4l-3.161,3.646,3.436,5.1h-2.684Z" transform="translate(-182.18 -36.341)" fill="#7d7d7d"/>
    <path id="Path_16" data-name="Path 16" d="M358.925,83.683a4.293,4.293,0,0,1-3.133-1.18,4.2,4.2,0,0,1-1.208-3.144v-.226a5.283,5.283,0,0,1,.509-2.357,3.739,3.739,0,0,1,1.443-1.6,4.053,4.053,0,0,1,2.13-.562,3.63,3.63,0,0,1,2.825,1.132,4.6,4.6,0,0,1,1.031,3.209v.954h-5.57a2.171,2.171,0,0,0,.683,1.374,2.064,2.064,0,0,0,1.443.517,2.522,2.522,0,0,0,2.11-.978l1.148,1.285a3.512,3.512,0,0,1-1.422,1.16,4.677,4.677,0,0,1-1.989.416m-.267-7.186a1.46,1.46,0,0,0-1.128.471,2.442,2.442,0,0,0-.554,1.348h3.25v-.187a1.74,1.74,0,0,0-.421-1.205,1.507,1.507,0,0,0-1.148-.426" transform="translate(-192.507 -40.508)" fill="#7d7d7d"/>
    <path id="Path_17" data-name="Path 17" d="M376.678,70.262v2.15h1.5v1.714h-1.5v4.365a1.042,1.042,0,0,0,.186.7.93.93,0,0,0,.711.21,3.755,3.755,0,0,0,.687-.056v1.77a4.82,4.82,0,0,1-1.415.21,2.23,2.23,0,0,1-2.506-2.482V74.126h-1.277V72.412h1.277v-2.15Z" transform="translate(-202.54 -38.146)" fill="#7d7d7d"/>
    <path id="Path_18" data-name="Path 18" d="M391.3,81.1a.753.753,0,0,0-.425-.675,4.815,4.815,0,0,0-1.362-.44q-3.12-.655-3.12-2.652a2.4,2.4,0,0,1,.966-1.944,3.9,3.9,0,0,1,2.526-.78,4.2,4.2,0,0,1,2.664.784,2.472,2.472,0,0,1,1,2.037H391.21a1.132,1.132,0,0,0-.323-.829,1.37,1.37,0,0,0-1.011-.327,1.4,1.4,0,0,0-.913.266.843.843,0,0,0-.324.679.72.72,0,0,0,.367.627,3.8,3.8,0,0,0,1.241.412,10.051,10.051,0,0,1,1.471.392,2.417,2.417,0,0,1,1.852,2.352,2.281,2.281,0,0,1-1.027,1.936,4.427,4.427,0,0,1-2.652.74,4.625,4.625,0,0,1-1.952-.392,3.274,3.274,0,0,1-1.337-1.075,2.5,2.5,0,0,1-.485-1.475h2.215a1.218,1.218,0,0,0,.461.954,1.824,1.824,0,0,0,1.147.331,1.69,1.69,0,0,0,1.015-.255.792.792,0,0,0,.344-.667" transform="translate(-209.626 -40.508)" fill="#7d7d7d"/>
    <path id="Path_19" data-name="Path 19" d="M252,124.7a1.35,1.35,0,0,1-.122-.409,1.474,1.474,0,0,1-1.15.493,1.619,1.619,0,0,1-1.11-.388,1.246,1.246,0,0,1-.44-.977,1.288,1.288,0,0,1,.537-1.112,2.65,2.65,0,0,1,1.553-.392h.56v-.261a.751.751,0,0,0-.162-.506.639.639,0,0,0-.511-.19.725.725,0,0,0-.483.148.5.5,0,0,0-.175.4h-1.218a1.225,1.225,0,0,1,.245-.733,1.617,1.617,0,0,1,.691-.528,2.515,2.515,0,0,1,1-.192,1.989,1.989,0,0,1,1.338.424,1.48,1.48,0,0,1,.5,1.19v1.976a2.18,2.18,0,0,0,.181.982v.072Zm-1.007-.847a1.044,1.044,0,0,0,.5-.12.785.785,0,0,0,.337-.322v-.783h-.455q-.915,0-.973.632l0,.071a.49.49,0,0,0,.16.375.621.621,0,0,0,.438.147" transform="translate(-135.279 -65.181)" fill="#7d7d7d"/>
    <path id="Path_20" data-name="Path 20" d="M260.781,120.144l.038.527a1.591,1.591,0,0,1,1.31-.611,1.323,1.323,0,0,1,1.079.426,1.986,1.986,0,0,1,.362,1.272V124.7h-1.217V121.78a.793.793,0,0,0-.169-.564.753.753,0,0,0-.56-.175.838.838,0,0,0-.771.439V124.7h-1.217v-4.558Z" transform="translate(-140.958 -65.181)" fill="#7d7d7d"/>
    <path id="Path_21" data-name="Path 21" d="M326.363,123.8a.8.8,0,0,0,.548-.186.649.649,0,0,0,.219-.493h1.141a1.563,1.563,0,0,1-.253.849,1.665,1.665,0,0,1-.68.6,2.131,2.131,0,0,1-.954.213,1.979,1.979,0,0,1-1.542-.621,2.459,2.459,0,0,1-.565-1.717v-.08a2.431,2.431,0,0,1,.56-1.681,1.957,1.957,0,0,1,1.538-.628,1.917,1.917,0,0,1,1.371.486,1.722,1.722,0,0,1,.525,1.3H327.13a.838.838,0,0,0-.219-.578.815.815,0,0,0-1.2.088,1.8,1.8,0,0,0-.217,1.007v.127a1.82,1.82,0,0,0,.215,1.012.742.742,0,0,0,.653.308" transform="translate(-176.053 -65.182)" fill="#7d7d7d"/>
    <path id="Path_22" data-name="Path 22" d="M334.122,122.38a2.7,2.7,0,0,1,.261-1.209,1.913,1.913,0,0,1,.752-.821,2.191,2.191,0,0,1,1.139-.291,2.076,2.076,0,0,1,1.506.565,2.27,2.27,0,0,1,.651,1.534l.008.312a2.383,2.383,0,0,1-.586,1.683,2.27,2.27,0,0,1-3.145,0,2.426,2.426,0,0,1-.587-1.719Zm1.217.086a1.706,1.706,0,0,0,.245.994.878.878,0,0,0,1.39,0,1.866,1.866,0,0,0,.249-1.087,1.689,1.689,0,0,0-.249-.987.809.809,0,0,0-.7-.35.794.794,0,0,0-.691.348,1.9,1.9,0,0,0-.245,1.078" transform="translate(-181.398 -65.181)" fill="#7d7d7d"/>
    <path id="Path_23" data-name="Path 23" d="M346.35,120.144l.038.51a1.6,1.6,0,0,1,1.31-.594,1.216,1.216,0,0,1,1.209.7,1.566,1.566,0,0,1,1.369-.7,1.359,1.359,0,0,1,1.1.432,1.987,1.987,0,0,1,.362,1.3V124.7h-1.222v-2.914a.87.87,0,0,0-.152-.568.672.672,0,0,0-.535-.179.76.76,0,0,0-.758.523l0,3.137h-1.217v-2.909a.861.861,0,0,0-.156-.574.677.677,0,0,0-.531-.177.789.789,0,0,0-.75.431v3.23h-1.217v-4.558Z" transform="translate(-187.417 -65.181)" fill="#7d7d7d"/>
    <path id="Path_24" data-name="Path 24" d="M365.652,122.465a2.735,2.735,0,0,1-.478,1.687,1.532,1.532,0,0,1-1.291.634,1.418,1.418,0,0,1-1.116-.48v2.149H361.55v-6.311h1.129l.042.447a1.432,1.432,0,0,1,1.154-.531,1.545,1.545,0,0,1,1.31.624,2.809,2.809,0,0,1,.467,1.719Zm-1.217-.093a1.8,1.8,0,0,0-.225-.985.734.734,0,0,0-.655-.346.8.8,0,0,0-.788.439v1.872a.81.81,0,0,0,.8.452q.871,0,.872-1.433" transform="translate(-196.289 -65.181)" fill="#7d7d7d"/>
    <path id="Path_25" data-name="Path 25" d="M374.6,124.7a1.349,1.349,0,0,1-.122-.409,1.474,1.474,0,0,1-1.15.493,1.619,1.619,0,0,1-1.11-.388,1.246,1.246,0,0,1-.44-.977,1.288,1.288,0,0,1,.537-1.112,2.65,2.65,0,0,1,1.553-.392h.56v-.261a.751.751,0,0,0-.162-.506.639.639,0,0,0-.511-.19.725.725,0,0,0-.483.148.5.5,0,0,0-.175.4h-1.218a1.225,1.225,0,0,1,.245-.733,1.617,1.617,0,0,1,.691-.528,2.514,2.514,0,0,1,1-.192,1.989,1.989,0,0,1,1.338.424,1.48,1.48,0,0,1,.5,1.19v1.976a2.18,2.18,0,0,0,.181.982v.072Zm-1.007-.847a1.044,1.044,0,0,0,.5-.12.785.785,0,0,0,.337-.322v-.783h-.455q-.915,0-.973.632l0,.071a.49.49,0,0,0,.16.375.621.621,0,0,0,.438.147" transform="translate(-201.842 -65.181)" fill="#7d7d7d"/>
    <path id="Path_26" data-name="Path 26" d="M383.385,120.144l.038.527a1.592,1.592,0,0,1,1.31-.611,1.323,1.323,0,0,1,1.079.426,1.987,1.987,0,0,1,.362,1.272V124.7h-1.217V121.78a.793.793,0,0,0-.169-.564.753.753,0,0,0-.56-.175.838.838,0,0,0-.771.439V124.7h-1.217v-4.558Z" transform="translate(-207.521 -65.181)" fill="#7d7d7d"/>
    <path id="Path_27" data-name="Path 27" d="M394.025,123.079l.843-2.835h1.305l-1.833,5.266-.1.24a1.389,1.389,0,0,1-1.348.893,1.923,1.923,0,0,1-.539-.08v-.922l.185,0a1,1,0,0,0,.516-.106.691.691,0,0,0,.267-.35l.143-.375-1.6-4.57h1.31Z" transform="translate(-212.749 -65.282)" fill="#7d7d7d"/>
    <path id="Path_28" data-name="Path 28" d="M276,111.684c7.01-5.909,19.176-7.242,18.945-1.68,5.5-7.357-11.645-7.647-18.945,1.68" transform="translate(-149.842 -56.775)" fill="#ed1f27"/>
    <rect id="Rectangle_3" data-name="Rectangle 3" width="7.502" height="6.884" transform="translate(0 14.598)" fill="#ed1f27"/>
    <path id="Path_29" data-name="Path 29" d="M7.5,12.95,7.476.053,0,0V12.95Z" transform="translate(0 0)" fill="#1f4181"/>
    <path id="Path_30" data-name="Path 30" d="M7.556,50.607H7.5V50.6H0v7.507H7.564Z" transform="translate(0 -27.472)" fill="#ed1f27"/>
    <path id="Path_31" data-name="Path 31" d="M45.06,0H20.075l.009,7.5H45.06a2.425,2.425,0,0,1,2.423,2.423V20.712a2.425,2.425,0,0,1-2.423,2.423H20.1l.009,7.5H45.06a9.924,9.924,0,0,0,9.924-9.924V9.924A9.924,9.924,0,0,0,45.06,0" transform="translate(-10.899)" fill="#1f4181"/>
    <rect id="Rectangle_4" data-name="Rectangle 4" width="7.502" height="6.884" transform="translate(54.409 27.049)" fill="#ed1f27"/>
    <path id="Path_32" data-name="Path 32" d="M119.034,40.191l.026-12.9,7.476-.052V40.191Z" transform="translate(-64.624 -14.79)" fill="#1f4181"/>
    <path id="Path_33" data-name="Path 33" d="M118.906,77.848h.053v-.005h7.5V85.35H118.9Z" transform="translate(-64.55 -42.262)" fill="#ed1f27"/>
    <path id="Path_34" data-name="Path 34" d="M48.922,27.242H73.907l-.009,7.5H48.922A2.425,2.425,0,0,0,46.5,37.166V47.954a2.425,2.425,0,0,0,2.423,2.423H73.88l-.009,7.5H48.922A9.924,9.924,0,0,1,39,47.954V37.166a9.924,9.924,0,0,1,9.924-9.924" transform="translate(-21.172 -14.79)" fill="#1f4181"/>
  </g>
</svg>
