<svg xmlns="http://www.w3.org/2000/svg" width="76.348" height="76.821" viewBox="0 0 76.348 76.821">
  <g id="noun-map-972128" transform="translate(-78.4 -5.6)">
    <path id="Path_42" data-name="Path 42" d="M152.387,58.776l-10.075-3.148c0,.315.079.708.079,1.023a7.219,7.219,0,0,1-.079,1.338l9.445,2.912a1.1,1.1,0,0,1,.708.944v56.592a.97.97,0,0,1-.394.787,1.288,1.288,0,0,1-.944.158l-21.094-6.533V82.468a3.156,3.156,0,0,1-1.18.236,2.511,2.511,0,0,1-1.1-.236V112.85L105.4,119.776V61.059l10.153-3.148a12.66,12.66,0,0,1,0-2.44L104.3,58.935,82.729,52.244a3.372,3.372,0,0,0-2.991.472A3.212,3.212,0,0,0,78.4,55.392v56.592a3.444,3.444,0,0,0,.63,1.968,3,3,0,0,0,1.732,1.18L103.9,122.3c.079,0,.236.079.315.079a.813.813,0,0,0,.315-.079l24.321-7.556,21.566,6.691a4,4,0,0,0,1.023.158,3.444,3.444,0,0,0,1.968-.63,3.212,3.212,0,0,0,1.338-2.676V61.689a3.309,3.309,0,0,0-2.361-2.913Zm-49.272,61.236-21.645-6.769a1.1,1.1,0,0,1-.708-.944V55.707a.97.97,0,0,1,.394-.787,1.288,1.288,0,0,1,.944-.158l21.094,6.533v58.717Z" transform="translate(0 -39.953)" fill="#ed1f27"/>
    <path id="Path_43" data-name="Path 43" d="M368.79,40.232a.722.722,0,0,0,.63.394.514.514,0,0,0,.551-.394c.079-.158,7.713-14.955,9.367-18.418a10.853,10.853,0,0,0,0-10.075,11.107,11.107,0,0,0-10-6.139A11.785,11.785,0,0,0,364.3,6.78a11.111,11.111,0,0,0-5.51,6.533,11.337,11.337,0,0,0,.551,8.5Zm.63-29.91a6.454,6.454,0,1,1-6.454,6.454,6.484,6.484,0,0,1,6.454-6.454Z" transform="translate(-240.489)" fill="#ed1f27"/>
  </g>
</svg>
