<?xml version="1.0" encoding="UTF-8"?>
<svg width="111px" height="110px" viewBox="0 0 111 110" version="1.1" xmlns="http://www.w3.org/2000/svg" xmlns:xlink="http://www.w3.org/1999/xlink">
    <title>icon</title>
    <g id="landingpage" stroke="none" stroke-width="1" fill="none" fill-rule="evenodd">
        <g id="homepage" transform="translate(-271.000000, -10061.000000)">
            <g id="four-pillars" transform="translate(0.000000, 9178.000000)">
                <g id="card" transform="translate(230.000000, 824.000000)">
                    <g id="icon" transform="translate(41.335656, 59.000000)">
                        <path d="M110,55 C110,85.3755 85.3755,110 55,110 C24.6245,110 0,85.3755 0,55 C0,24.6245 24.6245,0 55,0 C85.3755,0 110,24.6245 110,55" id="Fill-1" fill="#9B856C"></path>
                        <path d="M43.8112177,52.1590391 C43.6669104,52.6085208 43.5297002,53.076928 43.4090499,53.5524324 C43.1748462,54.4442987 42.5574003,55.1918577 41.7436019,55.5632715 C40.4897845,56.1334036 39.314035,56.7342896 38.2281819,57.3706611 C34.1994064,58.3051099 30.4355886,59.445374 27.040819,60.7417738 C25.7515162,61.2314723 24.5142587,61.7471934 23.324315,62.2842058 C16.8659727,65.2129339 12.1440492,68.7212568 10.0291195,72.3478644 C9.85878963,71.657082 9.77125898,70.940277 9.77125898,70.2258377 C9.77125898,65.0284098 14.3323154,60.339606 21.6352101,57.0252699 C22.9055873,56.4456751 23.8376704,55.3030453 24.1854273,53.9522345 C26.1560497,46.3678223 31.1736849,40.9787733 37.0642608,40.9787733 C39.4275883,40.9787733 41.6466085,41.8469827 43.600671,43.3917803 C42.6685879,43.093703 41.7033851,42.9399329 40.7145254,42.9399329 C40.3123575,42.9399329 39.9243838,42.9659555 39.5387759,43.0132694 C39.3708116,43.0369263 39.2028474,43.0605833 39.0419803,43.093703 C38.720246,43.1646737 38.4221687,43.2616672 38.150114,43.3752204 C37.8756936,43.486408 37.6249301,43.633081 37.3930922,43.786851 C37.1612542,43.9477182 36.9507076,44.1227795 36.7638178,44.3167663 C34.2325261,46.9308572 35.6968902,52.390877 40.1420276,52.390877 C40.3123575,52.390877 40.4826874,52.3837799 40.6577487,52.3695858 C41.696288,52.2796894 42.7490215,52.2087187 43.8112177,52.1590391" id="Fill-3" fill="#FEFEFE"></path>
                        <path d="M50.4389436,44.1315325 C50.7606779,43.8239924 51.098972,43.5353779 51.4443632,43.2775173 C51.1060691,43.5448406 50.767775,43.8239924 50.4389436,44.1315325" id="Fill-5" fill="#FEFEFE"></path>
                        <path d="M56.3671341,46.7539034 C56.4073509,46.4960428 56.4641275,46.240548 56.5516581,45.9897845 C56.4712246,46.240548 56.4073509,46.4960428 56.3671341,46.7539034" id="Fill-7" fill="#FEFEFE"></path>
                        <path d="M64.5396576,52.3038195 C64.4119102,52.7154501 64.2983569,53.124715 64.1848036,53.5505398 C64.1611467,53.6546303 64.1209299,53.7610865 64.0901759,53.865177 C63.9671599,54.1608886 63.8157555,54.4424061 63.6146716,54.6931696 C63.326057,55.0716805 62.9546432,55.3673921 62.5288184,55.561379 C62.0060003,55.7932169 61.4997419,56.0368833 61.0076777,56.2852811 C60.3074326,56.6401351 59.6426728,57.0020861 58.9968386,57.3782313 C58.4905802,57.4917846 57.991419,57.6124349 57.5017205,57.7401824 C57.0025592,57.8537356 56.5128608,57.9838488 56.0278937,58.1186933 C55.554755,58.2393436 55.0887135,58.3694568 54.629769,58.4972042 C53.4303626,58.8354983 52.2640759,59.1974494 51.1309089,59.5664975 C50.8351972,59.6634909 50.5347542,59.7675814 50.2390425,59.8716719 C49.418147,60.1460923 48.6138113,60.4441696 47.8236698,60.7398813 C46.5296357,61.2319455 45.2923782,61.7476666 44.1095316,62.2870446 C37.6417265,65.213407 32.9292658,68.7193643 30.8048733,72.3483376 C30.6369091,71.6551895 30.5470128,70.9407501 30.5470128,70.2239451 C30.5470128,70.063078 30.5541099,69.9022108 30.5635726,69.7413437 C30.5730354,69.5804766 30.5801325,69.4196094 30.6037894,69.2587423 C30.6108865,69.1168007 30.6369091,68.9772248 30.660566,68.8423803 C30.7315368,68.3739731 30.8356273,67.9244914 30.9823003,67.472644 C31.01542,67.3685535 31.046174,67.2739258 31.0792937,67.1769323 C31.2709149,66.6375543 31.5122156,66.1052733 31.8008301,65.5848209 C31.8505097,65.4949245 31.8978236,65.3979311 31.9616973,65.3104004 C32.0610564,65.1329735 32.172244,64.9484494 32.2857972,64.7804852 C32.349671,64.6834918 32.4135447,64.5864983 32.4868812,64.4895049 C32.564949,64.3617575 32.6548454,64.2411071 32.7447417,64.1275539 C32.919803,63.8862532 33.1043271,63.6544152 33.3077767,63.4202116 C33.5088606,63.186008 33.7075788,62.9541701 33.9252226,62.7294292 C34.1428664,62.4952256 34.3676072,62.2704848 34.6089079,62.0433782 C34.8431115,61.8186374 35.0915093,61.6009936 35.3399071,61.3857155 C35.5338939,61.2153856 35.7255151,61.0545185 35.9289647,60.8936513 C36.0093983,60.8297776 36.0969289,60.7588068 36.1868252,60.6854703 C36.4257602,60.5009463 36.6765237,60.3164222 36.9343843,60.1366295 C37.5305389,59.7108048 38.1574476,59.3015399 38.8151103,58.899372 L38.8245731,58.899372 C39.3710482,58.568175 39.950643,58.2464407 40.544432,57.9341692 C40.844875,57.7827649 41.1476838,57.6289948 41.462321,57.4752247 C41.7769581,57.3214547 42.0915953,57.1700503 42.4133296,57.025743 C42.5883909,56.9429438 42.7658179,56.8577788 42.926685,56.7442256 C42.9976558,56.7040088 43.0709923,56.6543292 43.1443288,56.5999183 C43.1845456,56.5762613 43.2223967,56.5431416 43.2649791,56.5100219 C43.3288529,56.4627081 43.3927266,56.4153942 43.458966,56.3586176 C43.4802572,56.3420577 43.4991828,56.3254979 43.5133769,56.3018409 L43.5228397,56.3018409 L43.5630565,56.2616242 C43.6340273,56.2048475 43.7049981,56.1338767 43.7712375,56.0605402 C43.9415674,55.8996731 44.083509,55.7222461 44.2207192,55.5282593 C44.2940557,55.4407286 44.3579294,55.3437352 44.414706,55.2396447 C44.5519162,55.029098 44.6631038,54.7972601 44.7600972,54.5654222 C44.7908512,54.4991828 44.8168738,54.428212 44.8405308,54.3548755 C44.8878446,54.2247624 44.9375242,54.0899178 44.9706439,53.9527076 C45.0581745,53.6309734 45.1386081,53.325799 45.2356015,53.0111618 C45.3302293,52.6965246 45.4272227,52.3937159 45.5336789,52.0932728 C45.6212095,51.814121 45.7276657,51.5397006 45.8293905,51.2652802 C45.9263839,51.0003226 46.0399372,50.735365 46.1511248,50.4704073 C46.1676846,50.4372876 46.1842445,50.3970708 46.2008043,50.3639511 C46.3380145,50.0422169 46.472859,49.7299454 46.6266291,49.424771 C46.7874962,49.0864768 46.9554604,48.7647426 47.1328874,48.4430083 C47.1423502,48.4264484 47.1494473,48.4027915 47.1660071,48.3862317 C47.3032173,48.144931 47.4380619,47.9107273 47.5847348,47.6788894 C47.598929,47.6457697 47.6154888,47.6150157 47.6415115,47.581896 C47.6959224,47.4849026 47.752699,47.3973719 47.8094757,47.3098413 C47.953783,47.0921975 48.0980902,46.8745537 48.2518603,46.6640071 C48.2660545,46.633253 48.28498,46.6095961 48.3062712,46.5788421 C48.3228311,46.5528195 48.3393909,46.5362596 48.3559508,46.5126027 C48.5735946,46.2145254 48.7983354,45.916448 49.0301733,45.6349305 C49.1768463,45.4598692 49.3282507,45.2824423 49.4891178,45.1050153 C49.4985806,45.0884554 49.5127747,45.0813583 49.5222375,45.0647985 C49.6665448,44.9039314 49.8132178,44.7501613 49.9551594,44.605854 C50.1160265,44.4378898 50.2768936,44.2841197 50.4377608,44.1327154 C50.7689578,43.8251753 51.1072519,43.5460235 51.445546,43.2787002 C51.4526431,43.2716031 51.4526431,43.2716031 51.4597402,43.264506 C51.6371672,43.1343929 51.8074971,43.0066454 51.9849241,42.8859951 C52.1599854,42.7629791 52.3374124,42.6423287 52.5219364,42.5382382 C52.6993634,42.4270506 52.8838875,42.3205944 53.0707772,42.2165039 C53.0849714,42.2094069 53.110994,42.2023098 53.1251882,42.1857499 C53.4563852,42.0177857 53.7852166,41.8569186 54.1235107,41.7173427 C54.1708246,41.7031485 54.2205041,41.6771259 54.267818,41.6629317 C54.445245,41.599058 54.6132092,41.5351843 54.7906362,41.4784077 C54.984623,41.4121683 55.1857069,41.3482946 55.3844251,41.298615 C55.578412,41.2442041 55.7818616,41.2039873 55.9805798,41.1637705 C56.1414469,41.1306508 56.3094112,41.0998968 56.4702783,41.0833369 C56.7210418,41.0431201 56.9623425,41.0194632 57.2107402,41.0029034 C57.4212869,40.9863435 57.6294679,40.9768807 57.8400146,40.9768807 C60.2033421,40.9768807 62.4247279,41.8474558 64.3787905,43.3922534 C63.4467074,43.0941761 62.4815046,42.9427717 61.4902792,42.9427717 C61.0975741,42.9427717 60.7025033,42.964063 60.3168954,43.0137425 C60.1631253,43.0303024 60.018818,43.0539593 59.8816078,43.0847133 C59.7704202,43.1107359 59.663964,43.1343929 59.5598735,43.1580498 C59.5220225,43.1675126 59.47944,43.1817067 59.4392232,43.1982666 C59.3611553,43.2148264 59.2854531,43.2384834 59.2144823,43.2716031 C59.0867349,43.3094542 58.9566218,43.3591337 58.8359714,43.4159104 C58.7579036,43.4561271 58.6751043,43.4892468 58.6041335,43.5365607 C58.1996,43.7447417 57.8471117,44.0026023 57.5490344,44.3101424 C57.4544066,44.4047701 57.3645103,44.5088606 57.2840767,44.6129511 C57.1965461,44.7099445 57.1232096,44.8234978 57.0498731,44.9275883 C56.9789023,45.0411416 56.9150286,45.1523291 56.858252,45.2658824 C56.7920126,45.37707 56.7376016,45.500086 56.6879221,45.6207364 C56.6311454,45.739021 56.5932943,45.8596714 56.5530776,45.9897845 C56.4631812,46.2381823 56.4064046,46.4960428 56.3685535,46.7539034 C56.2786571,47.3098413 56.2857542,47.8799733 56.3827476,48.4359112 C56.4324272,48.7316229 56.5128608,49.0297002 56.6098542,49.3112177 C56.6571681,49.4578907 56.7139447,49.5927352 56.7778184,49.7299454 C56.8416921,49.8671556 56.9055658,50.0043658 56.9859994,50.1321132 C57.0498731,50.2598606 57.1326724,50.3899738 57.2273001,50.5106241 C57.3077337,50.6312745 57.3952643,50.7495591 57.5017205,50.8631124 C57.5655942,50.943546 57.6389307,51.0239795 57.7099015,51.097316 L57.7169986,51.097316 C57.7927008,51.1777496 57.8707686,51.2581831 57.960665,51.3220569 C57.991419,51.3551766 58.0245387,51.3788335 58.0576584,51.4119532 C58.1522861,51.4923868 58.2492795,51.5633576 58.35337,51.629597 C58.4361693,51.6934707 58.5236999,51.7502473 58.6183277,51.7975612 C58.6751043,51.8283152 58.738978,51.868532 58.8028517,51.8921889 C58.8927481,51.9489655 58.9897415,51.9891823 59.0867349,52.0293991 C59.1032948,52.0388619 59.1174889,52.045959 59.1435115,52.053056 C59.247602,52.1027356 59.3516925,52.1358553 59.4652458,52.1666093 C59.5362166,52.1902662 59.6000903,52.2139232 59.6734268,52.223386 C59.7704202,52.2636027 59.8674137,52.2801626 59.9644071,52.2967224 C60.1158114,52.3274765 60.2672158,52.3534991 60.4280829,52.3676932 C60.5889501,52.3842531 60.75928,52.3937159 60.9272442,52.3937159 C61.0881113,52.3937159 61.2584412,52.3842531 61.4358682,52.3676932 C61.9965375,52.3203794 62.5761323,52.2706998 63.1462644,52.2399458 C63.4301475,52.223386 63.7187621,52.2068261 64.0073767,52.1902662 C64.1848036,52.223386 64.3622306,52.2636027 64.5396576,52.3038195" id="Fill-9" fill="#FEFEFE"></path>
                        <path d="M71.2239236,44.1315325 C71.552755,43.8168954 71.8910491,43.5282808 72.238806,43.2704202 C71.8910491,43.5353779 71.552755,43.8239924 71.2239236,44.1315325" id="Fill-11" fill="#FEFEFE"></path>
                        <path d="M102.62921,53.2472579 C99.8376919,52.7244398 96.9089638,52.3743172 93.8453912,52.1992559 C92.875457,52.1424792 91.9055228,52.1022625 90.9166631,52.0833369 C90.3536281,52.0644114 89.7740333,52.0644114 89.2109983,52.0644114 L87.9311583,52.0644114 L86.9801497,52.1022625 C86.2444191,52.1022625 85.5063229,52.1424792 84.7895178,52.1992559 C84.4985376,52.1992559 84.2075573,52.2205471 83.9165771,52.2394727 C83.3535421,52.2773238 82.7739473,52.3175405 82.2109123,52.3743172 C82.035851,52.3932427 81.8607897,52.3932427 81.7070197,52.3932427 C81.5508839,52.3932427 81.3758226,52.3932427 81.2220526,52.3743172 C81.1439847,52.3553916 81.0469913,52.3553916 80.9689234,52.3364661 C80.8530044,52.3175405 80.756011,52.2962493 80.6590176,52.2773238 L80.6211665,52.2773238 C80.4839563,52.2394727 80.3491118,52.1992559 80.2331928,52.1614048 C80.192976,52.1424792 80.1361994,52.1424792 80.0959826,52.1235537 C79.9989892,52.1022625 79.923287,52.0644114 79.8452191,52.0265603 C79.7671513,51.9863435 79.6701579,51.9484924 79.6110155,51.9082756 C79.2254075,51.7142888 78.8942105,51.4824509 78.5843047,51.1914706 C78.5653792,51.1536195 78.5251624,51.134694 78.5062368,51.0944772 L78.4873113,51.0944772 C78.4092434,51.0164093 78.3311755,50.9194159 78.2554734,50.8437137 C78.1774055,50.7467203 78.0993376,50.6284356 78.0212697,50.5314422 C77.9242763,50.3965977 77.8485741,50.2617532 77.7705063,50.124543 C77.6143705,49.8737795 77.4984515,49.6017248 77.4014581,49.3107445 C77.2453224,48.8849198 77.148329,48.4378038 77.1104779,47.9930535 C77.0134845,47.0420448 77.1885457,46.0910362 77.6332961,45.2583122 C77.7515807,45.0453998 77.9053508,44.8111962 78.0614865,44.6172093 C78.7191492,43.7844854 79.7080089,43.1835993 81.0848424,43.008538 C81.472816,42.9706869 81.8797153,42.9517614 82.2676889,42.9517614 C83.2565487,42.9517614 84.2264829,43.0866059 85.158566,43.3965117 C83.199772,41.844617 80.9878489,40.9716762 78.6221558,40.9716762 C78.4092434,40.9716762 78.196331,40.9929674 77.9834186,41.011893 C77.7515807,41.011893 77.5173771,41.0308185 77.2855392,41.0686696 C77.1104779,41.1088864 76.9354166,41.1278119 76.762721,41.165663 C76.5687341,41.2058798 76.3534561,41.2437309 76.1594692,41.3028732 C75.9654824,41.3407243 75.7738612,41.4187922 75.5585832,41.4779345 C75.3645963,41.5347112 75.1706095,41.612779 74.9979139,41.6908469 C74.6099402,41.8256914 74.2598176,42.0007527 73.9120607,42.1947396 C73.8907695,42.1947396 73.871844,42.2136651 73.8529184,42.2136651 C73.6778571,42.3295841 73.4838703,42.4265775 73.2898834,42.5424965 C73.1361134,42.6394899 72.9610521,42.7577745 72.7859908,42.8547679 C72.6109295,42.9896125 72.4169427,43.124457 72.2442471,43.2805927 C71.8941245,43.5313562 71.5463676,43.8223364 71.2151705,44.1346079 C71.0614005,44.288378 70.9052647,44.4445137 70.7514947,44.5982838 C70.6142845,44.735494 70.4983655,44.851413 70.3824466,44.9862575 C70.1884597,45.1991699 69.9944729,45.4144479 69.8194116,45.6273603 C69.5686481,45.9183406 69.35337,46.2093208 69.1404577,46.5192266 L69.083681,46.5760033 C69.0434642,46.6351456 69.0245387,46.6729967 68.9866876,46.7132135 C68.8116263,46.9639769 68.6554906,47.1981806 68.5017205,47.448944 C68.2888081,47.7990666 68.07353,48.1468235 67.8606177,48.5158717 C67.7068476,48.8068519 67.5507119,49.1167577 67.3969418,49.4266635 C67.2408061,49.7578606 67.0846703,50.1056174 66.9309003,50.4746656 L66.9119747,50.4746656 C66.8149813,50.7254291 66.7179879,50.9596327 66.6209945,51.2103961 C66.5618521,51.3665319 66.5027098,51.5013764 66.4648587,51.6575122 C66.4057164,51.8112822 66.3489397,51.9484924 66.3110886,52.1022625 C66.2708719,52.1992559 66.2330208,52.2962493 66.2140952,52.3932427 C66.1549529,52.4902361 66.1360274,52.6061551 66.1171018,52.7031485 C65.9798916,53.1124134 65.8639726,53.5193127 65.7480537,53.9451374 C65.7291281,54.0610564 65.6889114,54.1580498 65.6510603,54.2550432 C65.5919179,54.411179 65.5351413,54.5862403 65.4570734,54.7400103 L65.4570734,54.7589359 C65.3979311,54.8961461 65.3198632,55.012065 65.2630866,55.127984 C65.244161,55.1658351 65.2228698,55.1871263 65.2228698,55.2060519 C65.1471676,55.3408964 65.0501742,55.4568153 64.9721063,55.5751 L64.9531808,55.5940255 C64.8751129,55.691019 64.797045,55.7880124 64.7402684,55.8660803 C64.6622005,55.9417824 64.6030582,56.0009248 64.5462816,56.0789926 C64.4682137,56.1357693 64.4090714,56.2138372 64.3522947,56.2516882 L64.2931524,56.3108306 L64.2742268,56.3108306 C64.1370166,56.4456751 64.0021721,56.5426685 63.8484021,56.6396619 C63.7703342,56.6988042 63.6922663,56.7579466 63.6141985,56.7957977 C63.479354,56.8738655 63.3232182,56.970859 63.1883737,57.0276356 C62.7223321,57.2429137 62.2965074,57.4345348 61.8493914,57.6687384 C61.636479,57.7657319 61.4235666,57.8816508 61.2106542,57.9975698 C60.9575251,58.13478 60.6854703,58.2696245 60.4536324,58.404469 C60.1626522,58.5606048 59.8716719,58.7356661 59.5996172,58.9083616 C59.523915,58.9485784 59.4647727,58.9864295 59.3867048,59.0266463 C59.1359413,59.1804164 58.8828122,59.3365521 58.6509742,59.4903222 C58.3789195,59.6653835 58.1068648,59.8404448 57.8561013,60.0344316 C57.796959,60.0722827 57.7591079,60.0912082 57.7188911,60.131425 C57.4492021,60.3254118 57.1960729,60.5004731 56.964235,60.69446 C56.8672416,60.7512366 56.7891737,60.8293045 56.7111059,60.8860811 C56.4981935,61.0611424 56.3042066,61.2172782 56.1102198,61.3923395 C55.8570906,61.6052518 55.6252527,61.8181642 55.3934148,62.0500022 C55.1402856,62.2629145 54.9273732,62.4971182 54.6955353,62.7289561 C54.4826229,62.9631597 54.2673448,63.1949976 54.073358,63.4268356 C53.8793712,63.6610392 53.7066756,63.8928771 53.5126887,64.124715 C53.4346208,64.2429997 53.3376274,64.3589187 53.2595596,64.4937632 C53.1814917,64.5907566 53.124715,64.68775 53.0655727,64.7847434 C52.9496537,64.9408792 52.8337348,65.134866 52.7367414,65.3075616 C52.677599,65.404555 52.6208224,65.5015485 52.5806056,65.5796163 C52.2896254,66.1024345 52.0388619,66.6465439 51.8638006,67.1693621 C51.8259495,67.2663555 51.7857327,67.363349 51.7668072,67.4792679 C51.6106714,67.9263839 51.513678,68.3711342 51.4379758,68.8371758 C51.4166846,68.974386 51.3788335,69.1092305 51.3788335,69.2630006 C51.359908,69.4191363 51.3409824,69.5752721 51.3409824,69.7479677 C51.3409824,69.9041034 51.3196912,70.0602392 51.3196912,70.2329347 C51.3196912,70.9308142 51.4166846,71.6499849 51.5917459,72.3478644 C53.7066756,68.7212568 58.4167706,65.2105682 64.8940385,62.2842058 C66.076885,61.7400963 67.2999484,61.2362037 68.5987139,60.7323111 C69.7815605,60.2851951 70.9833326,59.8593703 72.2442471,59.4524711 C72.592004,59.3365521 72.923201,59.2395587 73.2709579,59.1425653 C73.7748505,58.967504 74.3000344,58.8113682 74.8228526,58.6575982 C75.1919007,58.5606048 75.5585832,58.4636113 75.9276313,58.3476924 C77.2666136,57.9786442 78.6623726,57.6285217 80.0770571,57.2996903 C80.3301862,57.2429137 80.5809497,57.2026969 80.8530044,57.1459203 C81.5319584,56.9897845 82.2109123,56.8336488 82.9087918,56.6988042 C82.9655684,56.6798787 83.0436363,56.6798787 83.1027786,56.6609532 C83.7225902,56.5426685 84.3636931,56.4267495 85.0024302,56.3108306 L85.0213558,56.3108306 C85.4873973,56.2327627 85.9534389,56.1546948 86.4194804,56.0600671 C86.8642307,56.0009248 87.3113467,55.9228569 87.756097,55.8660803 C88.6881801,55.7288701 89.6178975,55.5940255 90.547615,55.4781066 C90.9758054,55.4189643 91.3827046,55.3811132 91.7896039,55.3219708 C92.7784636,55.2249774 93.7673233,55.127984 94.718332,55.0309906 L94.8910276,55.0309906 C97.547701,54.7991527 100.147598,54.6832337 102.667061,54.6619424 C102.667061,54.1982666 102.648135,53.7132995 102.62921,53.2472579" id="Fill-13" fill="#FEFEFE"></path>
                        <path d="M102.668244,54.6626522 C100.146415,54.6815777 97.5488838,54.7974967 94.8922104,55.0317003 L94.7171491,55.0317003 C93.7685062,55.1286937 92.7796464,55.2256871 91.7907867,55.3226805 C91.3815218,55.3794572 90.9746226,55.419674 90.5487978,55.4764506 C89.6190804,55.5923696 88.6869973,55.7295798 87.7572799,55.8644243 C87.3101639,55.9235666 86.8654136,56.0016345 86.4182976,56.0584111 C85.952256,56.1554045 85.4885802,56.2334724 85.0225386,56.3115403 L85.0036131,56.3115403 C84.3625102,56.4274592 83.7237731,56.5433782 83.1015958,56.6592972 C83.0448191,56.6782227 82.9667513,56.6782227 82.9099746,56.699514 C82.2097295,56.8343585 81.5331412,56.9904942 80.8541873,57.1442643 C80.5821326,57.2034066 80.3290034,57.2412577 80.0782399,57.3004 C78.6611897,57.6292314 77.2654308,57.979354 75.9288141,58.3460364 C75.559766,58.464321 75.1907179,58.5613145 74.8216697,58.6583079 C74.2988516,58.8120779 73.7760334,58.9682137 73.2721407,59.1409093 C72.9220182,59.2379027 72.5931868,59.3348961 72.2430642,59.4531808 C70.9845155,59.86008 69.7803777,60.2859048 68.5975311,60.7330208 C67.2987655,61.2369134 66.0780679,61.7408061 64.8952213,62.2825498 C58.4179535,65.2112779 53.7054927,68.7219665 51.5929287,72.3462084 C51.4178674,71.648329 51.320874,70.9315239 51.320874,70.2336445 C51.320874,70.0585832 51.3397996,69.9048131 51.3397996,69.7486774 C51.3397996,69.5736161 51.3587251,69.419846 51.3800163,69.2637103 C51.3800163,69.1099402 51.4178674,68.97273 51.436793,68.8378855 C51.5148609,68.371844 51.6118543,67.9270936 51.76799,67.4799776 C51.7869156,67.3640587 51.8247667,67.2670653 51.8649834,67.1700718 C52.037679,66.6472536 52.2908082,66.1031442 52.5817885,65.580326 C52.6196396,65.5022582 52.6787819,65.4052647 52.7355585,65.3082713 C52.8325519,65.13321 52.9508366,64.9392232 53.0667556,64.7854531 C53.1235322,64.6884597 53.1826745,64.5914663 53.2607424,64.4944729 C53.3388103,64.3572627 53.433438,64.2413437 53.5115059,64.1254247 C53.7054927,63.8935868 53.880554,63.6593832 54.0745408,63.4275453 C54.2685277,63.1957073 54.4814401,62.9615037 54.6943524,62.7296658 C54.9285561,62.4954622 55.1414685,62.2636242 55.3922319,62.0507119 C55.6264355,61.8188739 55.8582735,61.6035959 56.1114026,61.3906835 C56.3053895,61.2156222 56.4993763,61.0618521 56.7122887,60.8867908 C56.7903566,60.8300142 56.8660588,60.7519463 56.9630522,60.692804 C57.1972558,60.4988172 57.4480193,60.3237559 57.720074,60.129769 C57.7579251,60.0919179 57.7981419,60.0729924 57.8549185,60.0327756 C58.1080477,59.8411545 58.3801024,59.6660932 58.6497914,59.4910319 C58.883995,59.3348961 59.1347585,59.1811261 59.3878877,59.0249903 C59.4659555,58.9871392 59.5227322,58.9469224 59.6008,58.9090714 C59.8728547,58.7340101 60.163835,58.5613145 60.4548153,58.4051787 C60.6866532,58.2703342 60.9587079,58.133124 61.2094714,57.9982795 C61.4247495,57.8823605 61.6376618,57.7640759 61.8505742,57.6670825 C62.2953245,57.4352445 62.723515,57.2412577 63.1871908,57.0283453 C63.324401,56.969203 63.4781711,56.8722096 63.6153813,56.7965074 C63.6934492,56.7562906 63.7691514,56.699514 63.8472192,56.6403716 C64.003355,56.5433782 64.1381995,56.4463848 64.273044,56.3115403 L64.2943352,56.3115403 L64.3511119,56.252398 C64.4102542,56.2145469 64.4670308,56.136479 64.5450987,56.0773367 C64.604241,56.0016345 64.6610177,55.9424922 64.7390856,55.8644243 C64.7982279,55.7863564 64.8762958,55.689363 64.9519979,55.5923696 L64.9732892,55.573444 C65.0489914,55.4575251 65.1459848,55.3416061 65.2240526,55.2043959 C65.2240526,55.1854703 65.2429782,55.1665448 65.2619037,55.1286937 C65.3210461,55.0127747 65.3991139,54.8944901 65.4558906,54.7596456 L65.4558906,54.74072 C65.5339584,54.5845843 65.5931008,54.409523 65.6498774,54.2557529 C65.6900942,54.1587595 65.7279453,54.0617661 65.7468708,53.9458471 C65.8651555,53.5176567 65.9810745,53.1107575 66.115919,52.7038582 C66.1348445,52.6068648 66.1561357,52.4909458 66.2129124,52.3939524 C66.2318379,52.296959 66.2720547,52.1999656 66.3099058,52.1029722 C66.3501226,51.9468364 66.4068992,51.8119919 66.4660416,51.6558562 C66.5038926,51.5020861 66.563035,51.3672416 66.6198116,51.2111059 C66.716805,50.9579767 66.8137984,50.7261388 66.9107919,50.4730096 L66.9297174,50.4730096 C67.0858532,50.1063272 67.2419889,49.7562046 67.395759,49.4273732 C67.5518947,49.1174674 67.7056648,48.8075616 67.8618005,48.5165814 C68.0747129,48.1475332 68.2876253,47.7974106 68.5005377,47.4496537 C68.6566734,47.1965246 68.8104435,46.9646867 68.9855048,46.7115575 C69.0257215,46.6737064 69.0446471,46.6358553 69.0824982,46.576713 L69.1416405,46.5175706 C69.3545529,46.2076648 69.5674653,45.9166846 69.8205944,45.6257043 C69.99329,45.4127919 70.1872769,45.1998796 70.3812637,44.9869672 C70.4995484,44.849757 70.6154673,44.733838 70.7503118,44.5989935 C70.9064476,44.4428578 71.0602176,44.2890877 71.2163534,44.132952 C71.5451847,43.8230462 71.8953073,43.5320659 72.2430642,43.2813024 C72.4181255,43.1251667 72.6121123,42.9903222 72.7871736,42.853112 C72.9622349,42.7561185 73.1349305,42.6401996 73.2910663,42.5432062 C73.4850531,42.4272872 73.67904,42.3302938 73.8541013,42.2143748 C73.8730268,42.2143748 73.8919523,42.1930836 73.9108779,42.1930836 C74.2610005,42.0014624 74.6087574,41.8264011 74.996731,41.6891909 C75.1717923,41.6134888 75.3657792,41.5354209 75.559766,41.4762785 C75.7726784,41.4195019 75.9666652,41.341434 76.1606521,41.3012173 C76.3546389,41.2444406 76.5675513,41.2042238 76.7615381,41.1663727 C76.9365994,41.1285217 77.1116607,41.1072304 77.2843563,41.0693793 C77.5185599,41.0315282 77.7503979,41.010237 77.9846015,41.010237 C78.1975139,40.9913115 78.4104263,40.9723859 78.6233386,40.9723859 C80.9890318,40.9723859 83.1985892,41.8453267 85.1573831,43.3972214 C84.2276657,43.0873156 83.2577315,42.9501054 82.2688718,42.9501054 C81.8808981,42.9501054 81.4739989,42.9690309 81.0860252,43.0092477 C79.7091918,43.184309 78.7203321,43.7851951 78.0603037,44.6179191 C77.9065336,44.8119059 77.7503979,45.0437438 77.6344789,45.2590219 C77.1873629,46.0917459 77.0146673,47.0427545 77.1116607,47.9913975 C77.1495118,48.4385135 77.2465052,48.8832638 77.402641,49.3114543 C77.4996344,49.6024345 77.6155534,49.8721235 77.7693234,50.1252527 C77.8473913,50.2600972 77.9254592,50.3973074 78.0224526,50.5321519 C78.1005205,50.6291453 78.1785883,50.7450643 78.2542905,50.8420577 C78.3323584,50.9201256 78.4104263,51.017119 78.4884941,51.0951869 C78.5263452,51.133038 78.5641963,51.1732548 78.5854875,51.1921803 C78.8953934,51.4831606 79.2242247,51.7149985 79.6121984,51.9089853 C79.6713407,51.9468364 79.7683341,51.9870532 79.8440363,52.0249043 C79.9221042,52.0651211 80.0001721,52.1029722 80.0971655,52.1218977 C80.1350166,52.1408233 80.1941589,52.1408233 80.23201,52.1621145 C80.3502946,52.1999656 80.4851391,52.2378167 80.6199837,52.2780335 L80.6602004,52.2780335 C80.7571939,52.296959 80.8541873,52.3158846 80.9701062,52.3348101 C81.0481741,52.3561013 81.1451675,52.3561013 81.2208697,52.3750269 C81.3770055,52.3939524 81.5520668,52.3939524 81.7058368,52.3939524 C81.8619726,52.3939524 82.0370339,52.3939524 82.2097295,52.3750269 C82.7727644,52.3158846 83.3547249,52.2780335 83.9177599,52.2378167 C84.2087402,52.2188911 84.4997204,52.1999656 84.7907007,52.1999656 C85.5075057,52.1408233 86.2432363,52.1029722 86.9813325,52.1029722 L87.9299755,52.0651211 L89.2098155,52.0651211 C89.7728504,52.0651211 90.354811,52.0651211 90.9178459,52.0840466 C91.9067057,52.1029722 92.8766399,52.1408233 93.8442084,52.1999656 C96.9101467,52.3750269 99.8365091,52.7227838 102.630393,53.2479677 C102.649318,53.7116435 102.668244,54.1966106 102.668244,54.6626522" id="Fill-15" fill="#FEFEFE"></path>
                        <path d="M85.0182804,37.5497011 C82.4893544,34.327627 79.4447073,31.4769668 75.9056303,29.1254678 C55.7191707,15.7214504 26.9807304,23.4998495 11.7078154,46.4991182 C9.55503463,49.7401179 7.78313046,53.115962 6.38500581,56.5533141 C7.18934148,49.8891565 9.54557185,43.2746785 13.5435933,37.2539894 C26.8080348,17.2757108 53.1760506,11.4466429 72.4375242,24.23558 C77.7556024,27.7699256 81.9783647,32.3499075 85.0182804,37.5497011" id="Fill-17" fill="#FCBD64"></path>
                        <path d="M23.6398985,77.7570218 C26.1688245,80.9790959 29.2134715,83.8297561 32.7525485,86.1812551 C52.9390081,99.5852725 81.6774485,91.8068734 96.9503635,68.8076046 C99.1031442,65.566605 100.875048,62.1907609 102.273173,58.7534087 C101.468837,65.4175663 99.112607,72.0296787 95.1145856,78.0527335 C81.8501441,98.0310121 55.4821283,103.86008 36.2206547,91.0711428 C30.9025765,87.5367973 26.6798142,82.9568153 23.6398985,77.7570218" id="Fill-19" fill="#FCBD64"></path>
                    </g>
                </g>
            </g>
        </g>
    </g>
</svg>