<?xml version="1.0" encoding="UTF-8"?>
<svg width="111px" height="110px" viewBox="0 0 111 110" version="1.1" xmlns="http://www.w3.org/2000/svg" xmlns:xlink="http://www.w3.org/1999/xlink">
    <title>bkg</title>
    <defs>
        <polygon id="path-1" points="0 0 109.99314 0 109.99314 109.996688 0 109.996688"></polygon>
    </defs>
    <g id="landingpage" stroke="none" stroke-width="1" fill="none" fill-rule="evenodd">
        <g id="homepage" transform="translate(-855.000000, -9771.000000)">
            <g id="four-pillars" transform="translate(0.000000, 9178.000000)">
                <g id="card" transform="translate(815.000000, 534.000000)">
                    <g id="bkg" transform="translate(40.666667, 59.000000)">
                        <g id="Group-3" transform="translate(0.001419, 0.000000)">
                            <mask id="mask-2" fill="white">
                                <use xlink:href="#path-1"></use>
                            </mask>
                            <g id="Clip-2"></g>
                        </g>
                        <g id="Group-6" fill="#231F20">
                            <path d="M81.9341963,38.5837084 C80.5976055,38.5245672 78.8470265,38.351875 76.2093297,36.9372179 C81.1724578,39.8895458 80.7111566,44.2517995 83.6279998,45.2713935 C84.498558,45.5789277 86.1426829,45.7634482 87.1055014,45.4298919 C86.1426829,45.8793649 84.8888898,46.5866934 84.5222145,47.454886 C82.8567988,51.3818606 85.4116979,53.3950265 83.9047805,57.4781339 C84.7209289,55.7819647 86.6749536,54.3128977 87.5123928,53.7356798 C90.9757005,51.3534729 91.0963485,48.7015822 90.0554637,45.2595653 C88.3734884,39.7121222 86.5566712,38.794251 81.9341963,38.5837084 M87.4295951,56.7376863 C84.1886582,58.8194559 83.6138059,59.5362471 82.989275,61.0691866 C82.0690382,54.1851528 77.0467688,40.4005256 72.8288196,33.6607963 C76.3536342,35.4350318 79.5236016,35.8040728 81.9010772,36.1021444 C88.744895,36.9514118 90.8763433,37.4103473 92.8256367,45.0987013 C94.4957838,51.6964917 92.220031,53.6552478 87.4295951,56.7376863 M80.4816888,69.0082991 C78.951115,66.8579257 74.2931553,68.4736628 73.8413167,68.6439894 C68.3340896,70.7281248 68.5162445,69.793694 63.7944123,59.3517266 C58.9755887,49.1463239 57.8613688,47.0976733 63.146225,45.5055926 C71.1373817,43.0997292 72.3273024,44.3913727 75.596627,54.4619335 C76.8220323,58.2469693 77.4489289,60.9934859 77.931521,62.850519 C79.0102562,66.9880363 78.8683173,66.7065242 81.2576211,65.4219777 C81.4161195,66.4037214 80.9216992,67.9745112 80.4816888,69.0082991 M78.3218528,87.2379777 C77.7257096,84.4796329 78.742938,78.4401351 72.2232139,81.6999972 C73.6355054,87.4059386 72.9589302,89.6083563 68.2134416,90.7391358 C71.8825607,87.4627142 69.8504696,82.7195912 68.0975249,80.7986856 C69.5665919,79.440804 68.8900168,75.7693193 66.1222093,74.6953154 C67.9295639,71.6459959 65.104981,67.7474091 62.4791124,67.3547116 C60.0235705,62.777184 54.6086036,52.030048 52.8272712,49.4798802 C49.1865399,44.2730903 46.3099127,42.5721899 40.7908574,47.0385321 C37.3583031,49.8134364 39.4471697,51.0009914 41.9547559,55.2875444 C43.899318,58.611279 46.3406661,62.0532959 46.0354976,64.3195861 C45.7208665,66.6757708 44.4410513,67.6693427 40.3248249,68.002899 C34.2025295,68.4949536 33.7672504,67.9674143 32.8517449,61.6156511 C32.4661444,68.0218242 31.8392478,68.4807598 26.2989017,68.492588 C22.2086974,68.5067819 20.5693038,68.9870083 20.6662953,62.576104 C20.2830605,68.982277 19.649067,69.4979881 14.1087209,69.5145477 C10.0185166,69.5263759 8.61805333,69.2354013 9.16215222,62.8410565 C9.25677812,61.3223109 9.5004398,59.6024852 10.5271307,54.8428027 C11.2131685,51.661007 12.2232999,50.7880832 15.9231724,51.459927 C19.8596096,52.1719869 21.4919063,50.681629 24.1982068,48.065223 C29.49016,42.9364996 28.6196018,41.7536759 27.1387065,39.3927598 C26.4999817,38.3826284 25.3904931,37.3701313 25.3266206,35.2978242 C27.1931164,35.9199895 28.1961509,37.0720598 29.1305816,38.1082133 C30.8362133,40.0054625 32.3242055,41.5171112 38.472523,38.720916 C44.2494339,36.0926818 46.6269095,35.4113753 42.6762784,26.4692283 C42.5863838,26.2728796 42.4988548,26.0765308 42.4089602,25.8730852 C42.5012205,26.0741652 42.5911151,26.2728796 42.6762784,26.4692283 C46.3359348,34.5360858 49.3947169,34.7064124 56.1770278,33.575633 C68.5067819,31.5222511 68.3553804,38.2856369 70.2242419,42.1605672 C68.6156017,42.0564788 64.575076,43.1115575 61.5044657,44.2517995 C54.7694677,46.7309979 59.1908626,52.0986518 62.656536,59.6687233 C67.6172985,70.9244735 67.7308495,72.7696784 73.4155002,70.7707064 C76.6800935,69.6233674 77.9859308,69.2448639 79.6797344,70.122519 C81.2576211,76.6919217 80.3563095,83.566493 78.3218528,87.2379777 M48.4934052,64.1232373 C45.0916043,55.3916329 40.9990344,54.3531137 46.0851762,51.0270135 C50.2936629,48.2757657 51.7106856,51.2541157 56.6170383,60.2057253 C55.0486141,57.7880337 47.864143,60.9012256 48.4934052,64.1232373 M42.4917579,21.849119 C42.1416421,20.0062797 41.2805464,19.0269017 43.6935067,17.7116018 C46.3879791,16.2449004 47.4075731,17.5885881 49.1037422,20.1529499 C51.6704696,24.0302459 51.3842263,25.1610253 53.2436251,25.6034014 C49.091914,25.0048926 45.1460142,24.9883331 40.8097826,25.934592 C43.7289914,25.123175 42.7945607,23.438834 42.4917579,21.849119 M54.6535509,22.3340767 C53.9793414,19.8974599 54.156765,18.373983 56.8417748,17.4253584 C59.5267845,16.4767339 61.0526271,18.7950683 62.8670786,21.849119 C66.7585685,28.3995965 66.5977045,28.6692803 69.0532464,29.3198334 C63.2219257,27.7821626 58.4243928,26.4171841 53.915469,25.7051242 C55.2591567,25.5773792 55.4531398,25.2319947 54.6535509,22.3340767 M64.2084006,96.7100297 C65.4905815,96.627232 66.5953388,97.653923 66.6734052,99.0047076 C66.7538372,100.350761 65.7768248,101.512294 64.494644,101.595091 C63.2100974,101.677889 62.1077058,100.651198 62.0272738,99.3004136 C61.9492074,97.9519946 62.9262198,96.7928274 64.2084006,96.7100297 M88.3853166,33.6300429 C80.6756719,32.300549 74.4374598,30.7392218 69.0745372,29.3269303 C67.2577201,26.1049186 61.2891918,15.0644424 56.4916589,5.98035652 C58.1310526,10.7187482 57.2202783,12.2871724 53.7995522,14.0188263 C50.2771033,15.8025244 50.3433415,16.6778139 53.7995522,25.4378061 C49.5981625,17.9576291 45.6617253,11.5230683 43.6935067,7.78297981 C44.6113779,10.2763721 44.1500767,12.8383682 41.5242081,14.4138894 C38.519836,16.2165126 38.271443,17.0492205 40.6063369,21.1063057 C42.1179856,23.7321743 41.9855093,25.6956616 39.9770747,26.1238438 C39.9959999,26.1191125 40.0101938,26.1191125 40.029119,26.1143812 C36.2227924,27.034618 32.0923721,28.6953025 27.2475263,31.3495588 C15.9184411,37.5546518 10.2692752,46.4660454 7.8373897,57.4592087 C6.85801169,61.8735067 7.08274819,66.4817877 8.53525567,70.7636095 C8.54235261,70.7872659 8.5518152,70.8085568 8.55891215,70.8298476 C8.55891215,70.8038255 8.58493427,70.8558697 8.62515027,70.9599582 C9.38688872,72.8926921 11.2462875,74.1772386 13.3256916,74.174873 L13.3801015,74.174873 C20.4533871,74.1559478 18.4354899,71.1113596 20.4888718,69.2212074 L20.4888718,69.2141104 C20.5787664,72.8926921 21.4564215,72.9754897 26.2090071,72.9636615 C33.2799271,72.947102 33.2775614,72.7909692 33.3177774,68.0099959 C33.7530565,72.7744097 33.736497,73.0180714 40.7861261,72.450316 C43.2818841,72.249236 44.7296603,72.1072972 45.5505399,71.478035 C45.8202237,75.64394 45.415698,76.8267636 40.6039713,77.5459204 C34.5266232,78.4519634 34.7631879,78.4803565 33.4195002,72.2042887 C32.9700272,78.6293869 32.1704384,78.5939022 26.6442862,78.984234 C22.5635445,79.2704774 20.95727,79.8595236 20.6237137,73.4604475 C20.6733923,79.7909198 18.8731346,80.5195392 14.5510969,80.822342 C14.1063552,80.8530954 13.6994639,80.869655 13.3185946,80.8720206 C13.846134,81.7165567 14.3973298,82.546899 14.9721821,83.358316 C16.2567287,85.1751332 19.0742147,84.7398541 19.7578867,82.6225997 C20.0299362,81.7733323 20.1624124,80.8743863 20.8933975,80.1031852 L20.8933975,80.091357 C21.2316851,83.7581104 22.1117059,83.7841325 26.8548288,83.4482106 C33.9091892,82.9537903 33.8949954,82.8000232 33.6134833,78.0285125 C34.3681248,82.747979 34.3681248,82.9940063 41.3633441,81.9507558 C43.0595132,81.6976316 44.2659934,81.5083798 45.1081638,81.1937487 C45.214618,85.0190004 44.3842758,85.3525567 40.9753779,85.8588053 C35.3995471,86.6915131 34.8625451,86.2680623 34.018009,82.3268938 C33.7388626,86.3295691 32.3715185,86.9209809 27.0156928,87.2994845 C23.0603305,87.5762652 21.4327651,87.5833622 21.2222225,83.5830525 C21.238782,85.9865502 20.4983344,87.4154012 18.9228132,88.2339152 C19.0032452,88.3214442 19.0884085,88.4137044 19.1735718,88.503599 C19.7271333,89.0973765 20.6662953,89.080817 21.2103942,88.4775769 C21.2293194,88.4562861 21.2506102,88.4373609 21.2671698,88.4160701 L21.2671698,88.4066075 C21.6054573,92.0709952 22.4854782,92.099383 27.2262355,91.7634611 C34.2829615,91.2690408 34.2687676,91.1152737 33.98489,86.343763 C34.7418971,91.0632295 34.7418971,91.3092568 41.7371164,90.2660063 C46.6340064,89.5350213 46.2625998,89.8875027 46.6978789,79.7554351 C49.259875,84.6050122 43.3623161,91.0111852 54.4903213,93.6181286 C45.1152608,93.1166114 33.2775614,92.2436875 24.0917527,93.0905892 C25.1728536,93.9706101 26.2941704,94.8033179 27.450972,95.5887129 C29.3198334,96.8614311 31.5127885,97.5805879 33.7743474,97.6160726 C40.2585868,97.7177955 43.8945868,98.8533062 45.5576368,101.292289 C46.5370149,102.728237 48.1480207,103.610623 49.8773089,103.788047 C50.2652751,103.828263 50.6556069,103.866113 51.0483044,103.896866 C51.0317448,103.584601 51.0151853,103.262873 50.9938945,102.924585 C50.6627038,97.7840336 47.8333896,94.8695561 41.0960259,93.615763 C52.2051059,95.4349458 57.3290981,96.7928274 59.1175275,99.9580635 C60.402074,102.231451 62.9522419,103.482878 65.5024097,102.926951 C69.1762601,102.122631 72.698709,100.909054 76.0153466,99.3335326 C74.368856,97.8337122 72.3982718,97.083802 69.8126192,96.2416315 C65.1428313,94.7181546 59.7586179,94.1622275 55.1337774,91.401517 C48.682657,87.5313179 48.3301756,79.2160675 47.3886479,72.6679556 C46.851646,68.9562549 47.0905763,66.0015613 48.521793,65.2705763 C49.8465555,68.0880623 53.9249316,80.3515782 56.5058528,87.692182 C62.3773896,84.4465138 51.3416446,69.6020766 53.6623447,64.9583108 C59.1482809,62.736968 64.1090434,78.6057305 63.7636589,81.9649497 C66.4652282,84.7658762 64.9725047,89.3836198 60.0543239,87.6093843 C62.6872894,91.562381 68.1590317,92.998329 74.2363798,91.1744149 C79.6915626,89.5397526 82.4357135,87.3042158 81.5698866,76.4813791 C80.252221,60.0188392 89.3788885,58.2564319 97.2470317,54.5470968 C99.0307298,41.0794664 94.2379282,34.6401743 88.3853166,33.6300429 M91.9763693,91.9740037 C82.0997916,101.850581 68.9680831,107.289205 55.0013011,107.289205 C41.0345191,107.289205 27.9028106,101.850581 18.0262329,91.9740037 C8.1520208,82.097426 2.71103187,68.9680831 2.71103187,55.0013011 C2.71103187,41.0321534 8.1520208,27.900445 18.0262329,18.0262329 C27.9028106,8.14965515 41.0345191,2.71103187 55.0013011,2.71103187 C68.9680831,2.71103187 82.0997916,8.14965515 91.9763693,18.0262329 C101.852947,27.900445 107.29157,41.0321534 107.29157,55.0013011 C107.29157,68.9680831 101.852947,82.097426 91.9763693,91.9740037 M93.8925437,16.1100585 C83.5049861,5.72013532 69.6943369,0 55.0013011,0 C40.310631,0 26.4976161,5.72013532 16.1076929,16.1100585 C5.72250096,26.4976161 0,40.3082654 0,55.0013011 C0,69.6919712 5.72250096,83.5026205 16.1076929,93.8925437 C26.4976161,104.282467 40.310631,110.002602 55.0013011,110.002602 C69.6943369,110.002602 83.5049861,104.282467 93.8925437,93.8925437 C104.280101,83.5026205 110.002602,69.6919712 110.002602,55.0013011 C110.002602,40.3082654 104.280101,26.4976161 93.8925437,16.1100585 M69.6280987,53.586644 C67.962683,53.6930981 66.694696,55.1976498 66.7987845,56.9482289 C66.8981417,58.6988079 68.331724,60.0306674 69.9971397,59.9218476 C71.6601898,59.8153935 72.9281768,58.3108418 72.826454,56.5602627 C72.7223655,54.8096837 71.2911488,53.4778242 69.6280987,53.586644 M50.5373245,96.7052984 C53.5345997,99.6883797 51.5308964,101.784343 53.5487936,103.385887 C53.5842783,103.414274 53.6221287,103.440296 53.6599791,103.47105 C54.2088092,103.863747 54.8735561,104.052999 55.5477656,104.043537 C56.1439088,104.034074 56.9222068,104.017514 57.3764111,103.996224 C57.5065217,98.7492177 56.2077813,98.5434064 50.5373245,96.7052984" id="Fill-4"></path>
                        </g>
                        <path d="M56.7230193,24.5717426 C57.6621813,24.6994875 61.8730336,25.4683229 64.513096,26.3578063 C63.1031702,25.4848824 61.944003,23.2588083 61.2887187,22.0168434 C60.266759,20.0699156 59.3323283,18.7404218 57.328625,19.7245311 C55.3249217,20.7086404 57.3049685,23.4409631 56.7230193,24.5717426" id="Fill-7" fill="#D23928"></path>
                        <path d="M49.4550409,23.7515726 C46.7369121,20.2788023 47.0065959,18.2538082 44.5037409,19.1764106 C42.2208912,20.0185811 44.8112751,21.4734542 44.2411541,23.9148023 C46.4317435,23.7042597 48.3147988,23.5859773 49.4550409,23.7515726" id="Fill-9" fill="#D23928"></path>
                        <path d="M46.9514763,52.4731338 C43.8169935,54.5217844 46.4381308,56.208491 48.4229089,61.2969984 C47.9616077,59.4778156 53.3647463,56.6863517 54.2447671,58.3399392 C50.9423234,52.3099041 49.7855218,50.6208319 46.9514763,52.4731338" id="Fill-11" fill="#D23928"></path>
                        <path d="M60.8541492,83.0434483 C62.1836431,80.8528589 60.7169417,76.2800625 59.493902,73.8339832 C58.273228,71.3902694 56.6787816,67.5058765 54.9045461,66.5690801 C55.3469222,68.1020196 58.7581857,73.983019 58.4885019,76.7366325 C59.6429378,77.8626806 60.7429638,79.5044399 60.8541492,83.0434483" id="Fill-13" fill="#D23928"></path>
                        <path d="M72.4860373,63.8620699 C71.7929026,63.1358161 70.9105162,62.5988142 70.0446892,62.0712748 C68.5259436,61.1486723 67.094727,60.2781141 66.3637419,58.3926932 C65.62566,56.4859814 65.6043691,55.0949807 65.5830783,53.7489274 C65.5617875,52.3579267 65.5404967,51.0166047 64.7172514,49.5096873 C69.1102585,50.9787543 72.0365643,52.8239593 73.0963743,54.8300282 C74.4353307,57.3730991 73.7043457,60.6802742 72.4860373,63.8620699 M74.0946775,54.3024889 C72.6516326,51.5654349 68.4171238,49.1193555 61.3911512,47.3758734 C66.316429,51.5559723 63.2316248,53.4390276 65.3110289,58.8019502 C67.0190263,63.2091512 72.0129078,62.9915116 72.6114166,66.5021323 C74.3312422,62.6177393 75.9942923,57.9053698 74.0946775,54.3024889" id="Fill-15" fill="#D23928"></path>
                    </g>
                </g>
            </g>
        </g>
    </g>
</svg>