<?xml version="1.0" encoding="UTF-8"?>
<svg width="110px" height="110px" viewBox="0 0 110 110" version="1.1" xmlns="http://www.w3.org/2000/svg" xmlns:xlink="http://www.w3.org/1999/xlink">
    <title>icon</title>
    <defs>
        <polygon id="path-1" points="0 0 110 0 110 109.981312 0 109.981312"></polygon>
    </defs>
    <g id="landingpage" stroke="none" stroke-width="1" fill="none" fill-rule="evenodd">
        <g id="homepage" transform="translate(-856.000000, -10061.000000)">
            <g id="four-pillars" transform="translate(0.000000, 9178.000000)">
                <g id="card" transform="translate(815.000000, 824.000000)">
                    <g id="icon" transform="translate(41.000000, 59.000000)">
                        <path d="M109.997634,54.9977527 C109.997634,85.3720116 85.3741406,109.995505 54.9998817,109.995505 C24.6256229,109.995505 0.00212903684,85.3720116 0.00212903684,54.9977527 C0.00212903684,24.6234938 24.6256229,0 54.9998817,0 C85.3741406,0 109.997634,24.6234938 109.997634,54.9977527" id="Fill-1" fill="#646464"></path>
                        <path d="M29.5666442,43.8302448 C26.507928,50.7709049 26.3068523,58.889632 29.5122355,66.2111531 C29.5903002,66.3862073 29.3584717,66.5210463 29.2472887,66.3649169 C24.5397517,59.9541504 17.4476934,56.069841 9.92746221,55.2229575 C9.73584889,55.2016671 9.73584889,54.9390859 9.92746221,54.9177955 C13.6367175,54.5156441 17.3010265,53.3470395 20.7406037,51.362304 C24.215665,49.3562782 27.0874991,46.7233693 29.304063,43.6788466 C29.4199772,43.5227173 29.6447089,43.6528251 29.5666442,43.8302448" id="Fill-3" fill="#CFCDC9"></path>
                        <path d="M51.8929073,27.0669184 C52.082155,27.0882088 52.0845206,27.35079 51.8952729,27.374446 C48.2096736,27.7860598 44.5477302,28.95703 41.1341745,30.9299375 C37.6614788,32.9335977 34.7920103,35.564141 32.5754464,38.6015669 C32.4595322,38.7600618 32.2371661,38.6275884 32.3152308,38.4501687 C35.3597535,31.5568206 35.5608292,23.5208893 32.4287794,16.2419489 C32.3554459,16.0668948 32.58964,15.9320558 32.7031886,16.0834539 C37.4178224,22.3948654 44.431816,26.2318629 51.8929073,27.0669184" id="Fill-5" fill="#CFCDC9"></path>
                        <path d="M77.781049,16.0004215 C74.7365263,22.8937697 74.5354506,30.9297009 77.6675004,38.2110069 C77.7408339,38.3813299 77.5066398,38.5185344 77.3907256,38.3671363 C72.6784574,32.0533593 65.6644638,28.2210929 58.2033725,27.3836718 C58.0117592,27.3623814 58.0117592,27.0998002 58.2010069,27.0785098 C61.8866062,26.6645305 65.5485496,25.4935602 68.9621053,23.5206527 C72.4324353,21.5169925 75.3019039,18.8864492 77.5208334,15.8490233 C77.6367476,15.692894 77.8591137,15.8230018 77.781049,16.0004215" id="Fill-7" fill="#CFCDC9"></path>
                        <path d="M100.076796,54.9109353 C100.266044,54.9322257 100.266044,55.1971725 100.076796,55.2184628 C96.3982933,55.6371734 92.7387156,56.7963157 89.3156975,58.7715888 C85.9660128,60.7042811 83.1675122,63.2236413 80.9864322,66.133325 C80.8728836,66.2847232 80.6410551,66.1498842 80.7143886,65.9771956 C83.6146099,59.157181 83.7825673,51.2513575 80.6954639,44.0883314 C80.6221304,43.9156428 80.8563244,43.7784382 80.9698731,43.9298364 C85.6726789,50.2246887 92.6559197,54.056955 100.076796,54.9109353" id="Fill-9" fill="#CFCDC9"></path>
                        <path d="M77.6019733,72.0177463 C74.7301392,78.7738898 74.5550851,86.5803582 77.5522958,93.6889757 C77.6232637,93.8616642 77.3843385,93.9988688 77.2731554,93.8498362 C72.5869088,87.6874574 65.7124854,83.9356214 58.4075235,83.0674475 C58.2206413,83.0437915 58.2230069,82.7717479 58.4098891,82.7480919 C62.0434453,82.3128222 65.6486143,81.1536799 69.0101269,79.2162564 C72.3621771,77.2788329 75.1512154,74.7547414 77.3299297,71.8521545 C77.445844,71.6960252 77.6776724,71.8403265 77.6019733,72.0177463" id="Fill-11" fill="#CFCDC9"></path>
                        <path d="M51.7561758,82.7360274 C51.9430579,82.7596834 51.9430579,83.0269958 51.7561758,83.0506517 C48.1155228,83.4859215 44.503257,84.6426982 41.1370132,86.5872185 C37.7234575,88.5577603 34.8681825,91.1480885 32.672909,94.1382024 C32.5569947,94.2943318 32.3322631,94.1618584 32.4055966,93.9868043 C35.4193665,87.0508754 35.5660335,78.9889226 32.3417255,71.7194446 C32.2636608,71.5420248 32.490758,71.4095514 32.6019411,71.5680464 C37.2810909,77.9551569 44.3045469,81.8489287 51.7561758,82.7360274" id="Fill-13" fill="#CFCDC9"></path>
                        <path d="M74.2371489,43.8874922 C80.3711406,54.511386 76.7304876,68.0970067 66.1065938,74.2286327 C55.4827,80.3626244 41.8994449,76.7219714 35.7654533,66.0980776 C29.6314616,55.4741838 33.2721146,41.8909288 43.8960084,35.7569371 C54.5199022,29.625311 68.1031572,33.2635984 74.2371489,43.8874922" id="Fill-15" fill="#EF4E36"></path>
                        <path d="M69.9478494,46.3640352 C74.7145263,54.6176013 71.8852729,65.1752584 63.6317067,69.9395698 C55.375775,74.7038811 44.8228491,71.8769933 40.0561722,63.6234271 C35.2894952,55.369861 38.116383,44.8122039 46.3723148,40.045527 C54.6282465,35.2812157 65.1811724,38.1104691 69.9478494,46.3640352" id="Fill-17" fill="#646464"></path>
                        <g id="Group-21" transform="translate(0.000000, 0.003075)">
                            <mask id="mask-2" fill="white">
                                <use xlink:href="#path-1"></use>
                            </mask>
                            <g id="Clip-20"></g>
                        </g>
                    </g>
                </g>
            </g>
        </g>
    </g>
</svg>