<?xml version="1.0" encoding="UTF-8"?>
<svg width="110px" height="110px" viewBox="0 0 110 110" version="1.1" xmlns="http://www.w3.org/2000/svg" xmlns:xlink="http://www.w3.org/1999/xlink">
    <title>icon</title>
    <g id="landingpage" stroke="none" stroke-width="1" fill="none" fill-rule="evenodd">
        <g id="homepage" transform="translate(-271.000000, -9771.000000)">
            <g id="four-pillars" transform="translate(0.000000, 9178.000000)">
                <g id="card" transform="translate(230.000000, 534.000000)">
                    <g id="icon" transform="translate(41.000000, 59.000000)">
                        <path d="M110,55 C110,85.3755 85.3755,110 55,110 C24.6245,110 0,85.3755 0,55 C0,24.6245 24.6245,0 55,0 C85.3755,0 110,24.6245 110,55" id="Fill-1" fill="#D23928"></path>
                        <path d="M35.1437911,38.4101037 C31.8081638,38.4101037 29.0947138,35.7155792 29.0947138,32.3610263 C29.0947138,29.0253989 31.8081638,26.3095832 35.1437911,26.3095832 C38.498344,26.3095832 41.1928685,29.0253989 41.1928685,32.3610263 C41.1928685,35.7155792 38.498344,38.4101037 35.1437911,38.4101037 M35.1437911,21.0932298 C28.9196525,21.0932298 23.8783604,26.1345219 23.8783604,32.3610263 C23.8783604,38.585165 28.9196525,43.6264571 35.1437911,43.6264571 C41.3679298,43.6264571 46.4092219,38.585165 46.4092219,32.3610263 C46.4092219,26.1345219 41.3679298,21.0932298 35.1437911,21.0932298" id="Fill-3" fill="#FCBD64"></path>
                        <path d="M29.4621059,44.2273431 C17.9624715,46.6711041 9.1597273,56.3467891 8.01473182,68.2722483 C7.93902964,67.3993075 7.89881285,66.5263667 7.89881285,65.653426 C7.89881285,54.2720762 14.8610478,44.5372489 24.7685707,40.4469655 C26.0105596,42.0556368 27.6003054,43.3544023 29.4621059,44.2273431" id="Fill-5" fill="#FCBD64"></path>
                        <path d="M74.3714783,38.4101037 C71.035851,38.4101037 68.322401,35.7155792 68.322401,32.3610263 C68.322401,29.0253989 71.035851,26.3095832 74.3714783,26.3095832 C77.7260312,26.3095832 80.4205557,29.0253989 80.4205557,32.3610263 C80.4205557,35.7155792 77.7260312,38.4101037 74.3714783,38.4101037 M74.3714783,21.0932298 C68.1473397,21.0932298 63.1060476,26.1345219 63.1060476,32.3610263 C63.1060476,38.585165 68.1473397,43.6264571 74.3714783,43.6264571 C80.595617,43.6264571 85.6369091,38.585165 85.6369091,32.3610263 C85.6369091,26.1345219 80.595617,21.0932298 74.3714783,21.0932298" id="Fill-7" fill="#AEA59D"></path>
                        <path d="M101.615747,65.6541357 C101.615747,66.5270764 101.577896,67.4000172 101.499828,68.272958 C100.354832,56.3474988 91.5520883,46.6694481 80.0524539,44.2280528 C81.9142544,43.355112 83.5040002,42.0563465 84.7459891,40.4453095 C94.653512,44.5379586 101.615747,54.2727859 101.615747,65.6541357" id="Fill-9" fill="#AEA59D"></path>
                        <path d="M55,53.9695041 C51.6643727,53.9695041 48.9509226,51.2749796 48.9509226,47.9204267 C48.9509226,44.5847993 51.6643727,41.8689836 55,41.8689836 C58.3545529,41.8689836 61.0490774,44.5847993 61.0490774,47.9204267 C61.0490774,51.2749796 58.3545529,53.9695041 55,53.9695041 M55,36.6526302 C48.7758613,36.6526302 43.7345692,41.696288 43.7345692,47.9204267 C43.7345692,54.1445654 48.7758613,59.1858575 55,59.1858575 C61.2241387,59.1858575 66.2654308,54.1445654 66.2654308,47.9204267 C66.2654308,41.696288 61.2241387,36.6526302 55,36.6526302" id="Fill-11" fill="#FEFEFE"></path>
                        <path d="M49.3185513,59.7867435 C37.8189169,62.2305045 29.0161727,71.9061895 27.8711773,83.8316487 C27.7954751,82.9587079 27.7552583,82.0857671 27.7552583,81.2128264 C27.7552583,69.8314766 34.7174932,60.0966493 44.6250161,56.0063659 C45.867005,57.6150372 47.4567508,58.9138027 49.3185513,59.7867435" id="Fill-13" fill="#FEFEFE"></path>
                        <path d="M82.2442686,81.2137726 C82.2442686,82.0867134 82.2064175,82.9596542 82.1283496,83.832595 C80.9833541,71.9071358 72.1806099,62.2290851 60.6809755,59.7876898 C62.542776,58.914749 64.1325218,57.6159835 65.3745107,56.0049464 C75.2820336,60.0975956 82.2442686,69.8324229 82.2442686,81.2137726" id="Fill-15" fill="#FEFEFE"></path>
                        <path d="M50.0942621,86.4178244 C49.8293045,86.8034324 49.5288615,87.2126973 49.2284184,87.6030367 C43.6406512,94.8420577 35.2944858,97.7636888 30.6104134,94.1370812 C27.8780378,92.0221515 26.9932685,88.1447804 27.8733064,83.8321218 C28.0507334,86.9169857 29.2312142,89.6020474 31.4644286,91.3290034 C36.3661448,95.1235752 44.5088606,92.9140178 50.0942621,86.4178244" id="Fill-17" fill="#FEFEFE"></path>
                        <path d="M59.9057379,86.4178244 C60.1706955,86.8034324 60.4711385,87.2126973 60.7715816,87.6030367 C66.3593488,94.8420577 74.7055142,97.7636888 79.3895866,94.1370812 C82.1219622,92.0221515 83.0067315,88.1447804 82.1266936,83.8321218 C81.9492666,86.9169857 80.7687858,89.6020474 78.5355714,91.3290034 C73.6338552,95.1235752 65.4911394,92.9140178 59.9057379,86.4178244" id="Fill-19" fill="#FEFEFE"></path>
                    </g>
                </g>
            </g>
        </g>
    </g>
</svg>