<svg xmlns="http://www.w3.org/2000/svg" xmlns:xlink="http://www.w3.org/1999/xlink" width="79.327" height="97.743" viewBox="0 0 79.327 97.743">
  <defs>
    <clipPath id="clip-path">
      <rect id="Rectangle_35" data-name="Rectangle 35" width="79.327" height="97.743" fill="#ed1f27"/>
    </clipPath>
  </defs>
  <g id="Group_69" data-name="Group 69" clip-path="url(#clip-path)">
    <path id="Path_67" data-name="Path 67" d="M77.522,94.127H69.385V90.348A7.453,7.453,0,0,0,61.94,82.9H60.712L55.261,59.89l4.324-39.159a1.811,1.811,0,0,0-1.109-1.871l-16.61-6.855a13.2,13.2,0,0,0-4.258-8.9A13.988,13.988,0,0,0,28.053.022a1.808,1.808,0,0,0-1.653,1.8V13.828L5.453,36.477A1.807,1.807,0,0,0,5.425,38.9L17.984,53.1a1.812,1.812,0,0,0,2.542.168l4.212-3.662L18.261,63.549a1.793,1.793,0,0,0-.168.776L18.236,82.9h-.9a7.431,7.431,0,0,0-7.4,7.447v3.777H1.808a1.808,1.808,0,0,0,0,3.617h75.71a1.808,1.808,0,0,0,0-3.617ZM21.717,64.7l9.875-21.262a1.808,1.808,0,0,0-2.825-2.126l-9.258,8.048L9.222,37.729,29.538,15.761a1.806,1.806,0,0,0,.481-1.227V3.69a9.64,9.64,0,0,1,5.244,2.167c1.868,1.635,2.908,4.159,3.087,7.5a1.811,1.811,0,0,0,1.115,1.575l16.376,6.76-4.21,38.12a1.86,1.86,0,0,0,.039.615L57,82.9H21.854ZM13.563,90.348a3.856,3.856,0,0,1,3.78-3.83H61.938a3.834,3.834,0,0,1,3.83,3.83v3.777h-52.2Z" transform="translate(0 0)" fill="#ed1f27"/>
  </g>
</svg>
