<svg xmlns="http://www.w3.org/2000/svg" xmlns:xlink="http://www.w3.org/1999/xlink" width="101.185" height="94.917" viewBox="0 0 101.185 94.917">
  <defs>
    <clipPath id="clip-path">
      <rect id="Rectangle_34" data-name="Rectangle 34" width="101.185" height="94.917" fill="#ed1f27"/>
    </clipPath>
  </defs>
  <g id="Group_68" data-name="Group 68" transform="translate(0 0)">
    <g id="Group_67" data-name="Group 67" transform="translate(0 0)" clip-path="url(#clip-path)">
      <path id="Path_61" data-name="Path 61" d="M64.777,13.748l-9.4-6.269a2,2,0,0,0-2.221,0l-9.4,6.269a2,2,0,0,0-.891,1.667v9.4a2,2,0,0,0,.891,1.667l9.4,6.269a1.994,1.994,0,0,0,2.221,0l9.4-6.269a2,2,0,0,0,.893-1.667v-9.4a2,2,0,0,0-.893-1.667m-3.112,2.739v7.261l-7.4,4.933-7.4-4.933V16.487l7.4-4.934Z" transform="translate(22.977 3.83)" fill="#ed1f27"/>
      <path id="Path_62" data-name="Path 62" d="M34.619,19.249,22.079,6.71a2,2,0,0,0-2.831,0L6.708,19.249a2,2,0,0,0,0,2.831l12.54,12.541a2,2,0,0,0,2.831,0l12.54-12.54a2,2,0,0,0,0-2.831m-4.247,1.415-9.707,9.707-9.708-9.707,9.708-9.707Z" transform="translate(3.283 3.283)" fill="#ed1f27"/>
      <path id="Path_63" data-name="Path 63" d="M26.49,59.529H48.434a2,2,0,0,0,1.731-3.012L39.194,37.708a2.065,2.065,0,0,0-3.461,0L24.76,56.518a2,2,0,0,0,1.73,3.011m3.487-4.006,7.484-12.831,7.484,12.831Z" transform="translate(13.13 19.714)" fill="#ed1f27"/>
      <path id="Path_64" data-name="Path 64" d="M47.894,23.947A23.947,23.947,0,1,0,23.947,47.894,23.974,23.974,0,0,0,47.894,23.947M23.947,43.888A19.941,19.941,0,1,1,43.888,23.947,19.963,19.963,0,0,1,23.947,43.888" transform="translate(0 0.001)" fill="#ed1f27"/>
      <path id="Path_65" data-name="Path 65" d="M41.293,30.611A23.947,23.947,0,1,0,65.24,54.558,23.973,23.973,0,0,0,41.293,30.611m0,4.006A19.941,19.941,0,1,1,21.352,54.558,19.963,19.963,0,0,1,41.293,34.617" transform="translate(9.301 16.413)" fill="#ed1f27"/>
      <path id="Path_66" data-name="Path 66" d="M58.639,0A23.947,23.947,0,1,0,82.585,23.947,23.974,23.974,0,0,0,58.639,0m0,43.888A19.941,19.941,0,1,1,78.58,23.947,19.963,19.963,0,0,1,58.639,43.888" transform="translate(18.6 0.001)" fill="#ed1f27"/>
    </g>
  </g>
</svg>
