<svg xmlns="http://www.w3.org/2000/svg" xmlns:xlink="http://www.w3.org/1999/xlink" width="95.053" height="97.744" viewBox="0 0 95.053 97.744">
  <defs>
    <clipPath id="clip-path">
      <rect id="Rectangle_21" data-name="Rectangle 21" width="95.053" height="97.744" fill="#ed1f27"/>
    </clipPath>
  </defs>
  <g id="Group_59" data-name="Group 59" transform="translate(0 0)">
    <g id="Group_58" data-name="Group 58" transform="translate(0 0)" clip-path="url(#clip-path)">
      <path id="Path_53" data-name="Path 53" d="M95.051,63.12a1.839,1.839,0,0,0-.033-.263l-.407.016.383-.176a2.174,2.174,0,0,0-.445-.776l-.119-.1a1.884,1.884,0,0,0-.251-.189L83.954,55.78V41.053l10.195-5.564a1.738,1.738,0,0,0,.9-1.523V22.853a1.993,1.993,0,0,0-.033-.288l-.023-.143a1.711,1.711,0,0,0-.251-.524,1.743,1.743,0,0,0-.192-.25l-.12-.1a1.874,1.874,0,0,0-.251-.189L83.086,15.006a1.734,1.734,0,0,0-1.724,0L70.219,21.387a1.956,1.956,0,0,0-.212.165l-.1.077-.03.03a1.722,1.722,0,0,0-.171.224l.3.273-.393-.148a1.662,1.662,0,0,0-.166.4l-.023.143a1.79,1.79,0,0,0-.039.31v1.971l-9.03-5.656V8.07a1.768,1.768,0,0,0-.036-.283L60.3,7.643a1.749,1.749,0,0,0-.169-.413l-.1-.132a1.542,1.542,0,0,0-.2-.244c-.05-.046-.189-.155-.224-.181L59.6,6.649,48.388.23a1.731,1.731,0,0,0-1.723,0L35.655,6.537h-.03l-.1.069a1,1,0,0,0-.149.116,1.785,1.785,0,0,0-.2.162.99.99,0,0,0-.126.168l-.129.172a1.659,1.659,0,0,0-.168.407l-.022.145a1.657,1.657,0,0,0-.04.308v11.1l-9.03,5.655V22.848a2.27,2.27,0,0,0-.034-.283l-.024-.146a1.763,1.763,0,0,0-.25-.522,1.5,1.5,0,0,0-.189-.242l-.12-.1a1.615,1.615,0,0,0-.255-.2L13.695,15.007a1.738,1.738,0,0,0-.864-.231,1.758,1.758,0,0,0-.862.23L.831,21.387a1.674,1.674,0,0,0-.205.161l-.1.08-.03.032a1.492,1.492,0,0,0-.174.227l.3.27-.393-.145a1.67,1.67,0,0,0-.166.407l-.022.143A1.7,1.7,0,0,0,0,22.867v11.1a1.735,1.735,0,0,0,.9,1.522L11.1,41.053V55.78L.835,61.658a1.9,1.9,0,0,0-.215.165l-.1.079-.03.033a1.428,1.428,0,0,0-.169.222l.3.271-.39-.148a1.62,1.62,0,0,0-.169.41l-.022.145a1.705,1.705,0,0,0-.039.3v11.1a1.733,1.733,0,0,0,.905,1.522l11.11,6.065a1.515,1.515,0,0,0,.232.092l.179-.364-.042.416a1.68,1.68,0,0,0,.446.06,2.159,2.159,0,0,0,.831-.211l9.208-5.025L34.7,84.667v5.285a1.732,1.732,0,0,0,.9,1.522l11.111,6.065a1.419,1.419,0,0,0,.235.093l.181-.364-.044.416a1.6,1.6,0,0,0,1-.043,1.672,1.672,0,0,0,.274-.109l11.094-6.059a1.731,1.731,0,0,0,.9-1.522V84.666l11.83-7.875,9.224,5.034a1.391,1.391,0,0,0,.23.09l.181-.364-.043.416a1.68,1.68,0,0,0,.446.06,1.733,1.733,0,0,0,.562-.1,1.634,1.634,0,0,0,.268-.108l11.094-6.056a1.732,1.732,0,0,0,.9-1.522Zm-11.1,14.252V70.228l7.627-4.163V73.21Zm-24.095.27-.123-.1a1.758,1.758,0,0,0-.251-.189L49.261,71.5V61.377l9.247-5.048L69.39,63.992V74.246a1.7,1.7,0,0,0,.019.227L60.358,80.5V78.837a1.777,1.777,0,0,0-.034-.278L60.3,78.41h0a1.735,1.735,0,0,0-.251-.524,1.789,1.789,0,0,0-.189-.245m-10.6,15.446V85.944l7.627-4.164v7.147Zm-11.1-4.164V81.779l7.627,4.163v7.145ZM35.523,77.377a1.553,1.553,0,0,0-.209.162l-.1.079-.029.032a1.558,1.558,0,0,0-.172.222l.3.273L34.921,78a1.612,1.612,0,0,0-.168.4l-.024.145a1.93,1.93,0,0,0-.037.31V80.5l-9.046-6.029a1.773,1.773,0,0,0,.02-.234V63.993l10.88-7.663,9.245,5.046V71.5Zm-20.955,0V70.229L22.2,66.065V73.21ZM3.471,73.21V66.065L11.1,70.229v7.144ZM5.29,22.831l7.541-4.319,7.544,4.319-7.544,4.118ZM11.1,29.956V37.1L3.471,32.936V25.792Zm1.733,28.827L20.375,63.1l-7.544,4.118L5.289,63.1ZM14.566,37.1V29.956l7.629-4.164v7.144Zm0,3.953,8.373-4.57L34.7,44.133V53.39l-10.9,7.674-9.228-5.286ZM69.4,34.112l-10.83,7.049-9.305-5.328V26.275l8.488-4.633,11.641,7.29v5.036c0,.047,0,.095.007.143M45.791,50.28v7.147l-7.627-4.164V46.115Zm1.736-11.443,7.544,4.319-7.544,4.118-7.544-4.118Zm1.734-16.515V15.18l7.627-4.164v7.144Zm7.627,23.794v7.147l-7.627,4.164V50.28ZM47.527,12.173,39.986,8.055l7.541-4.319,7.544,4.321Zm-9.363,5.986V11.014l7.627,4.166v7.142Zm7.63,8.118v9.555l-9.3,5.329L25.658,34.11c0-.049.006-.1.006-.146V28.93l11.642-7.287Zm9.28,52.542-7.547,4.12L39.983,78.82,47.527,74.5ZM80.487,41.053V55.781l-9.228,5.286-10.9-7.676V44.133l11.757-7.651ZM91.581,25.792v7.144L83.954,37.1V29.955Zm-9.36,1.158-7.544-4.117,7.544-4.321,7.544,4.321ZM72.86,32.936V25.792l7.626,4.163V37.1Zm9.361,25.849,7.544,4.321-7.544,4.118-7.544-4.118ZM72.86,73.21V66.065l7.627,4.164v7.144Z" transform="translate(0 0)" fill="#ed1f27"/>
    </g>
  </g>
</svg>
