<svg xmlns="http://www.w3.org/2000/svg" xmlns:xlink="http://www.w3.org/1999/xlink" width="97.772" height="97.744" viewBox="0 0 97.772 97.744">
  <defs>
    <clipPath id="clip-path">
      <rect id="Rectangle_23" data-name="Rectangle 23" width="97.772" height="97.744" fill="#ed1f27"/>
    </clipPath>
  </defs>
  <g id="Group_63" data-name="Group 63" transform="translate(0 0)">
    <g id="Group_62" data-name="Group 62" transform="translate(0 0)" clip-path="url(#clip-path)">
      <path id="Path_56" data-name="Path 56" d="M2.332,55.839a2.326,2.326,0,0,0,2.327-2.328V34.891A16.3,16.3,0,0,1,20.953,18.6H89.8L79.84,28.6A2.305,2.305,0,1,0,83.1,31.864L97.064,17.9a2.236,2.236,0,0,0,0-3.259L83.1.675A2.3,2.3,0,0,0,79.84,3.932L89.8,13.941H20.953A21,21,0,0,0,0,34.891v18.62a2.326,2.326,0,0,0,2.327,2.328Z" transform="translate(0.003 0)" fill="#ed1f27"/>
      <path id="Path_57" data-name="Path 57" d="M95.438,26.492a2.326,2.326,0,0,0-2.327,2.328V47.44A16.3,16.3,0,0,1,76.816,63.735H7.966l9.963-10.009a2.3,2.3,0,1,0-3.259-3.259L.7,64.432a2.236,2.236,0,0,0,0,3.259L14.67,81.656A2.3,2.3,0,1,0,17.929,78.4L7.966,68.39h68.85A21,21,0,0,0,97.764,47.44V28.82a2.326,2.326,0,0,0-2.327-2.328Z" transform="translate(0 15.383)" fill="#ed1f27"/>
      <path id="Path_58" data-name="Path 58" d="M35.249,59.554a2.331,2.331,0,0,0,2.328-2.328V54.9a9.31,9.31,0,1,0,0-18.62v-9.31a4.889,4.889,0,0,1,4.655,4.653,2.3,2.3,0,1,0,4.608,0,9.543,9.543,0,0,0-9.31-9.31V19.984a2.327,2.327,0,1,0-4.655,0v2.328a9.587,9.587,0,0,0-9.31,9.308,9.309,9.309,0,0,0,9.31,9.312v9.31a4.889,4.889,0,0,1-4.657-4.655,2.327,2.327,0,1,0-4.653,0,9.587,9.587,0,0,0,9.31,9.31v2.376a2.329,2.329,0,0,0,2.374,2.281Zm6.936-13.967a4.657,4.657,0,0,1-4.655,4.655v-9.31a4.657,4.657,0,0,1,4.655,4.655M28.22,31.623l0,0a4.655,4.655,0,0,1,4.657-4.653v9.31a4.657,4.657,0,0,1-4.657-4.657Z" transform="translate(13.683 10.252)" fill="#ed1f27"/>
    </g>
  </g>
</svg>
