<svg xmlns="http://www.w3.org/2000/svg" xmlns:xlink="http://www.w3.org/1999/xlink" width="97.234" height="94.917" viewBox="0 0 97.234 94.917">
  <defs>
    <clipPath id="clip-path">
      <rect id="Rectangle_20" data-name="Rectangle 20" width="97.234" height="94.917" fill="#ed1f27"/>
    </clipPath>
  </defs>
  <g id="Group_57" data-name="Group 57" transform="translate(0 0)">
    <g id="Group_56" data-name="Group 56" transform="translate(0 0)" clip-path="url(#clip-path)">
      <path id="Path_49" data-name="Path 49" d="M58.534,23.749A11.875,11.875,0,1,1,70.412,11.875,12.056,12.056,0,0,1,58.534,23.749M58.666,4.7a7.18,7.18,0,0,0-7.172,7.172,7.352,7.352,0,0,0,7.164,7.172A7.172,7.172,0,1,0,58.666,4.7" transform="translate(26.824 0.001)" fill="#ed1f27"/>
      <path id="Path_50" data-name="Path 50" d="M71.924,94.661A11.814,11.814,0,0,1,69.4,71.293l.175-.038V58.925l-.175-.038a11.843,11.843,0,0,1-9.348-11.493,11.314,11.314,0,0,1,1.767-6.055l.1-.151-19.7-19.7-.154.112a11.575,11.575,0,0,1-6.816,2.145,12,12,0,1,1,10.23-5.936l-.085.146L65.075,37.644l.153-.1a12.376,12.376,0,0,1,6.7-2.022,11.814,11.814,0,0,1,2.528,23.368l-.176.038v12.33l.176.038a11.814,11.814,0,0,1-2.528,23.368m0-18.919A7.173,7.173,0,1,0,79.1,82.915a7.353,7.353,0,0,0-7.164-7.174Zm.129-35.52a7.172,7.172,0,1,0,7.17,7.172,7.181,7.181,0,0,0-7.17-7.172M35.247,4.7a7.18,7.18,0,0,0-7.172,7.172,7.267,7.267,0,0,0,7.172,7.172,7.172,7.172,0,0,0,0-14.344" transform="translate(13.436 0.001)" fill="#ed1f27"/>
      <path id="Path_51" data-name="Path 51" d="M48.812,94.87A11.888,11.888,0,0,1,36.937,83a10.775,10.775,0,0,1,.376-2.9l.036-.126L15.925,58.546l-.131.044A11.849,11.849,0,0,1,.129,47.347,11.632,11.632,0,0,1,9.347,35.854l.176-.038V23.488l-.176-.038a11.876,11.876,0,1,1,5.054,0l-.175.038V35.816l.175.038a11.843,11.843,0,0,1,9.348,11.493,12.071,12.071,0,0,1-3.539,8.465l-.157.157L39.685,75.6l.157-.181A11.734,11.734,0,0,1,46.281,71.5l.18-.036V59.135l-.176-.038a11.876,11.876,0,1,1,5.054,0l-.176.038v12.33l.176.038A11.814,11.814,0,0,1,48.812,94.87m-.129-19.048A7.173,7.173,0,1,0,55.854,83a7.181,7.181,0,0,0-7.172-7.174m0-35.647a7.172,7.172,0,1,0,7.172,7.172,7.181,7.181,0,0,0-7.172-7.172m-36.808,0a7.172,7.172,0,1,0,7.174,7.172,7.18,7.18,0,0,0-7.174-7.172M12,4.655a7.18,7.18,0,0,0-7.172,7.172A7.352,7.352,0,0,0,12,19,7.172,7.172,0,1,0,12,4.655" transform="translate(0 0.048)" fill="#ed1f27"/>
      <path id="Path_52" data-name="Path 52" d="M11.876,68.857A12.058,12.058,0,0,1,0,56.978,11.874,11.874,0,1,1,11.876,68.857m0-18.919A7.35,7.35,0,0,0,4.7,57.1a7.171,7.171,0,1,0,7.172-7.164" transform="translate(0.001 25.932)" fill="#ed1f27"/>
    </g>
  </g>
</svg>
