<svg xmlns="http://www.w3.org/2000/svg" xmlns:xlink="http://www.w3.org/1999/xlink" width="150.925" height="151.727" viewBox="0 0 150.925 151.727">
  <defs>
    <clipPath id="clip-path">
      <rect id="Rectangle_71" data-name="Rectangle 71" width="150.925" height="151.727" fill="#ed1f27"/>
    </clipPath>
  </defs>
  <g id="Group_112" data-name="Group 112" transform="translate(0 0)">
    <g id="Group_111" data-name="Group 111" transform="translate(0 0)" clip-path="url(#clip-path)">
      <path id="Path_132" data-name="Path 132" d="M59.349,30.116a13.415,13.415,0,1,0-15.063,0A19.834,19.834,0,0,0,32.042,48.381v.6A9.94,9.94,0,0,0,40.989,58.9l.311.019H62.285l.361-.019a9.94,9.94,0,0,0,8.947-9.926v-.6A19.849,19.849,0,0,0,59.349,30.116M58.2,19.029a6.383,6.383,0,1,1-6.383-6.385A6.389,6.389,0,0,1,58.2,19.029M51.817,35.641A12.757,12.757,0,0,1,64.56,48.381v.6a2.939,2.939,0,0,1-2.42,2.914L41.627,51.9a2.946,2.946,0,0,1-2.553-2.919v-.6a12.757,12.757,0,0,1,12.743-12.74" transform="translate(56.877 9.961)" fill="#ed1f27"/>
      <path id="Path_133" data-name="Path 133" d="M131.031,101.643c-6.813-5.059-13.576-10.368-20.105-15.776a13.961,13.961,0,0,0-8.883-3.186,13.7,13.7,0,0,0-10.34,4.64c-1.01,1.174-2.475,2.8-3.968,4.448l-.272.3c-1.623,1.793-3.247,3.591-4.354,4.865a1,1,0,0,1-.76.325,1.483,1.483,0,0,1-1-.4,335.566,335.566,0,0,1-36.1-36.092,1.492,1.492,0,0,1-.391-1.085A.971.971,0,0,1,45.181,59c1.274-1.1,3.075-2.725,4.867-4.354,1.746-1.579,3.5-3.161,4.74-4.235a13.906,13.906,0,0,0,1.443-19.237C50.8,24.624,45.5,17.855,40.453,11.056A14.048,14.048,0,0,0,29.216,5.423a13.492,13.492,0,0,0-7.792,2.45l-9.635,6.835c-.513.364-1.326,1.06-2.611,2.173-.733.641-1.734,1.512-2.042,1.734C.445,23.33-1.842,32.208,1.566,40.2c20.288,48.175,52.166,80.055,100.321,100.335a19.222,19.222,0,0,0,7.556,1.565,16.886,16.886,0,0,0,14.036-7.126c.216-.3,1.021-1.227,1.74-2.056,1.107-1.274,1.8-2.087,2.176-2.606l6.829-9.629a13.906,13.906,0,0,0-3.194-19.04m-13.281,29.271a10,10,0,0,1-8.322,4.143,12.088,12.088,0,0,1-4.79-1c-46.369-19.523-77.058-50.215-96.594-96.6-2.1-4.923-.8-10.309,3.166-13.1.508-.364,1.315-1.057,2.592-2.167.735-.641,1.748-1.521,2.059-1.743l9.624-6.827a6.475,6.475,0,0,1,3.752-1.174,6.971,6.971,0,0,1,5.575,2.8C39.92,22.134,45.3,29.005,50.817,35.663a6.827,6.827,0,0,1-.635,9.441c-1.268,1.093-3.061,2.711-4.845,4.329L45,49.738c-1.637,1.482-3.247,2.939-4.4,3.938a7.958,7.958,0,0,0-2.753,5.536,8.474,8.474,0,0,0,2.137,6.216,342.2,342.2,0,0,0,36.711,36.711,8.521,8.521,0,0,0,5.631,2.153c.194,0,.389-.006.58-.017a7.979,7.979,0,0,0,5.536-2.747c1.007-1.168,2.475-2.792,3.971-4.446l.569-.627c1.521-1.684,3.016-3.338,4.038-4.521a6.631,6.631,0,0,1,5.015-2.234,6.945,6.945,0,0,1,4.412,1.585c6.635,5.5,13.5,10.884,20.4,16a6.834,6.834,0,0,1,1.646,9.335l-6.832,9.629c-.211.305-1.027,1.24-1.734,2.059-1.107,1.271-1.8,2.081-2.167,2.6" transform="translate(-0.001 9.625)" fill="#ed1f27"/>
      <path id="Path_134" data-name="Path 134" d="M66.181,0a42.23,42.23,0,1,0,42.228,42.228A42.277,42.277,0,0,0,66.181,0m0,77.427a35.2,35.2,0,1,1,35.2-35.2,35.239,35.239,0,0,1-35.2,35.2" transform="translate(42.513 -0.001)" fill="#ed1f27"/>
    </g>
  </g>
</svg>
