<?xml version="1.0" encoding="UTF-8"?>
<svg width="217px" height="77px" viewBox="0 0 217 77" version="1.1" xmlns="http://www.w3.org/2000/svg" xmlns:xlink="http://www.w3.org/1999/xlink">
    <title>Group 11</title>
    <g id="landingpage" stroke="none" stroke-width="1" fill="none" fill-rule="evenodd">
        <g id="homepage" transform="translate(-620.000000, -1789.000000)" fill="#000000">
            <g id="intro" transform="translate(-98.000000, 1141.000000)">
                <g id="text" transform="translate(718.000000, 26.000000)">
                    <g id="Group-11" transform="translate(0.000000, 622.000000)">
                        <g id="Group-3">
                            <path d="M1.01907543,71.4424311 C1.56671088,68.1186712 12.9332312,64.6168528 18.6098475,63.5654593 C28.8697076,61.6605153 39.465552,60.5384637 49.3865804,59.6104865 L50.5748639,59.4964913 C53.0406472,59.260022 55.748453,59 58.2806737,59 C60.3914905,59 62.3789231,59.1808849 64,59.7075237 C55.9515621,63.2413739 48.8769093,66.081832 39.1637356,68.8780109 C25.3399741,72.8574786 7.65903667,76.6504087 3.32540845,74.2517996 C1.64169044,73.3191119 0.865319895,72.3741767 1.01907543,71.4424311 M25.5510547,50.8600748 C23.1801952,52.0438472 20.8546327,52.3251965 19.3289943,51.6122535 C18.2486148,51.1079301 17.5296469,50.1107669 17.1913657,48.649473 C16.1620657,44.1890337 19.5352398,38.2548599 21.3480799,35.0671913 C27.2761923,24.6400412 31.9832157,17.8589485 38.1368488,10.8816769 C39.6046614,9.21750532 47.1682813,1 53.3932331,1 C53.4626241,1 53.5310513,1 53.5994786,1.00287091 C55.4219563,1.05646126 56.9630149,1.87371403 58.1792851,3.43166193 C60.7563901,6.73225304 60.3304064,9.93810407 58.5599719,15.0607669 C56.7972475,20.1604625 51.6950809,27.0697892 47.9691692,32.1149374 C47.5036712,32.745581 47.0622673,33.3427305 46.6565227,33.8977734 C46.6488125,33.9092571 46.6411024,33.9197837 46.6343561,33.9312674 C45.801664,35.077718 45.0084862,36.2289534 44.2972284,37.3352113 C38.5464485,44.0464451 32.3908878,47.4436902 25.5510547,50.8600748 M56,25 C54.8996602,26.1701934 53.1627024,27.8757753 51.5606636,29.4491062 C51.3757745,29.6306093 51.1878873,29.8148486 51,30 C52.9318409,27.8584458 54.7537478,26.0397665 56,25 M2.83780085,75.1096832 C3.96201541,75.7374092 5.75750288,76 7.9772042,76 C17.2572411,75.9990416 33.9337288,71.4094536 39.7300411,69.7265727 C49.923622,66.7681142 57.2405926,63.7665293 65.7459365,59.9829224 C66.44881,60.346141 67.044433,60.8051957 67.5050354,61.3821286 C68.9241887,63.1627623 68.9921778,66.031135 67.7070876,69.9077029 L66.5531877,73.3875095 L68.5612609,70.3217146 C73.124193,63.3582678 81.6400704,54.0219207 86.9480102,48.4337211 C88.952253,47.5683217 90.6424052,45.6429756 91.7082066,43.4924148 L93,40.8856745 L90.9411744,42.9403992 C90.8875491,42.9940674 89.0604611,44.8226191 86.3916485,47.6286984 C85.3785148,48.0273763 84.252385,48.1069202 83.0506054,47.6459489 C82.1858986,47.3162729 81.497389,46.5265839 81.1909592,45.5557648 C81.5768693,44.5715287 81.8947903,43.5614168 82.1686619,42.6931423 C82.3161313,42.224504 82.446364,41.8104923 82.5612752,41.4894416 L83.1013578,39.9819406 L81.8229708,40.9450929 C80.5196862,41.9254956 79.8780987,43.4732476 80.1050483,45.0852098 C80.1242002,45.221297 80.1500552,45.3545091 80.1797406,45.4858045 C79.4902734,47.1648519 78.5920509,48.7183542 77.4975217,48.8918174 C76.6433485,49.0259879 76.3599009,48.6713945 76.2670143,48.5544745 C75.7834297,47.946874 75.7843873,46.7086724 75.9873971,45.4062606 C76.571529,44.0223881 76.9143474,42.5934728 77.0321314,41.551735 L77.4324054,38.0240103 L76.1118842,41.3198118 C76.0994355,41.3514377 75.396562,43.1608221 75.0719378,45.1082105 C74.5165337,46.4048721 73.7370528,47.6430738 72.728707,48.3647192 C71.958802,48.9157764 71.1611267,49.0921147 70.2858864,48.8975676 C69.7525069,48.7787309 69.3934094,48.5046398 69.1894421,48.0570855 C68.9194008,47.4619437 68.9347222,46.6109196 69.107089,45.6966438 C69.9536015,44.0214298 70.5061329,42.341424 70.6133833,41.5632353 L70.9676929,38.9708704 L69.7180336,41.2690187 C69.6500445,41.3936055 68.5842431,43.3754949 68.1763083,45.4244694 C67.3403294,47.0421818 66.239097,48.6014342 65.0890275,49.1122403 C64.5154291,49.3652474 63.9887527,49.3192461 63.4773979,48.9694446 C62.8396408,48.5324322 62.7524998,47.6804498 62.9344425,46.6990888 C64.0816393,44.5322359 64.8563323,42.1727525 64.9635827,41.5833609 L65.6760322,37.6550416 L64.0548267,41.3035197 C63.955237,41.5287343 63.8202163,41.8057005 63.6689166,42.1190844 C63.098191,43.298826 62.3282859,44.888746 62.0228137,46.3617459 C61.1427854,47.994792 60.0894327,49.4371245 59.1107724,49.680548 C58.8206216,49.752425 58.3686375,49.7677588 57.8199366,49.0691141 C56.5769804,47.4839859 59.3961352,43.2911591 60.6007876,41.4999835 C60.774112,41.2431429 60.9263693,41.0160115 61.0479837,40.8281729 L60.2838242,40.254115 C60.2033863,40.3480343 52.1318322,49.6422136 47.5133597,50.5641563 C45.6067913,50.9446254 44.2029595,50.6417835 43.3382528,49.667131 C42.0186892,48.1778389 42.1355156,45.3478006 42.8374315,43.2039483 C43.3028218,41.7817415 44.2661607,39.9713987 45.4918802,38.0268854 C45.7408544,37.7365022 45.9879135,37.4394105 46.234015,37.1365686 C47.9126761,35.0722603 50.5173299,32.2671393 52.8155539,29.7926527 C57.6054357,24.634757 58.4375843,23.6265619 58.3830014,23.0515456 L58.3351218,22.7851214 L58.1617974,22.6586178 C58.0258191,22.5599067 57.7892936,22.465029 57.4292385,22.581949 C56.9408659,22.7400785 56.0924382,23.4243478 55.03334,24.4660856 C57.1113175,21.2967877 58.9527695,18.0872387 59.8912109,15.3511197 C61.7613907,9.89613224 62.1923077,6.45753508 59.363577,2.80618191 C57.9712363,1.00925614 56.1958583,0.0662294961 54.0853226,0.00297770894 C47.4137699,-0.183902571 39.4963884,8.48159227 37.9728574,10.2219748 C31.811702,17.2640071 27.102258,24.0999919 21.1776281,34.6045804 C19.3131939,37.9099654 15.8419181,44.0626393 16.948896,48.8918174 C17.353958,50.6571173 18.2445198,51.874235 19.5975992,52.5115447 C21.4026626,53.3616104 23.9613519,53.0827275 26.6177158,51.7477314 C32.2081456,48.9330269 37.6616396,45.9496509 42.7311386,40.985344 C42.3892778,41.6830304 42.1154061,42.3280069 41.9277178,42.9049399 C41.1980317,45.1331279 40.9423543,48.4078454 42.621973,50.3025239 C43.7299084,51.5522259 45.4382549,51.956654 47.7000903,51.5033495 C50.6916119,50.9072493 54.8188391,47.2779385 57.6830007,44.4229828 C56.6899764,46.3464121 56.0656256,48.3858031 57.0672682,49.6613808 C57.8898409,50.7098271 58.7574204,50.75487 59.3415524,50.611116 C60.281909,50.377276 61.1791739,49.4706671 61.970146,48.3120093 C62.1013363,48.8927758 62.401063,49.3930399 62.9363577,49.7600919 C63.7215842,50.2977321 64.5996973,50.377276 65.4768528,49.9881817 C66.422955,49.5684198 67.3029832,48.6253932 68.0575668,47.5050699 C68.1016161,47.8424127 68.1858843,48.1625051 68.3180321,48.4538467 C68.6464867,49.1745337 69.255516,49.6517972 70.0809615,49.8329273 C71.2195399,50.0849761 72.2968324,49.8520945 73.2850687,49.1448245 C73.9151651,48.6943951 74.4629085,48.0829612 74.9311716,47.3891083 C74.9857544,48.0848779 75.160994,48.7039788 75.5172187,49.1515331 C75.8475884,49.5665031 76.4824728,50.0255578 77.6459487,49.8377191 C78.9482756,49.63263 79.922148,48.3292598 80.6767316,46.7498819 C81.1497827,47.5721551 81.8641473,48.2190484 82.7097022,48.5410575 C83.560045,48.8669 84.3921936,48.9713613 85.1956144,48.8927758 C80.4469092,53.937585 73.78589,61.3160018 69.337869,67.5060517 C69.8980611,64.6089281 69.5370484,62.3951156 68.2529158,60.7841117 C67.8516842,60.2809725 67.3738451,59.8564189 66.8308897,59.4989504 C68.3908092,58.8012641 69.9966932,58.0767436 71.6705664,57.3215556 L74.2838385,56.1427723 C74.5251521,56.0344775 74.6324025,55.7508029 74.5241945,55.509296 C74.4150288,55.2677892 74.1325388,55.1604528 73.8912253,55.2687476 L71.2769955,56.4475309 C69.3646816,57.3100553 67.5423816,58.1332868 65.7746643,58.9210591 C62.0352624,57.2305113 56.1805368,57.7978607 50.8850457,58.3096252 L49.6880541,58.4246284 C39.6553489,59.3714885 28.9398796,60.5157708 18.5509497,62.4593257 C18.3737949,62.4928684 0.880480099,66.0761779 0.0330100101,71.2599494 C-0.193939607,72.6486136 0.750247408,73.9433586 2.83780085,75.1096832" id="Fill-1"></path>
                        </g>
                        <g id="Group-3" transform="translate(118.804598, 4.367816)">
                            <path d="M1.60329668,54.8160761 C3.69040132,49.801756 11.9260304,47.938382 17.3748608,46.7054031 C18.301132,46.4963014 19.1585317,46.3016206 19.9111271,46.1110599 C22.9794005,45.3323364 26.0866012,44.4876892 29.091992,43.6698236 C32.8859111,42.6366759 36.7706606,41.5788068 40.6713803,40.6321839 C41.0087507,41.4613802 41.1634619,42.3122077 41.1954023,43.1712757 C40.2960808,44.8203978 39.8618912,46.5570748 39.9078055,48.350405 C38.2758513,51.5580041 35.3483153,54.5709224 32.426768,56.7670051 C26.9400084,60.8934155 19.910129,62.9638312 12.6297171,62.5888902 C9.62632257,62.4333515 3.47480371,61.3600316 1.6901346,58.4047965 C1.0603101,57.3623783 1.03236226,56.1881127 1.60329668,54.8160761 M74.3774859,26.7990222 C74.5496331,26.6877967 74.7059386,26.6321839 74.8590757,26.6321839 C75.0101006,26.6321839 75.1579571,26.6857369 75.3132064,26.7918132 C75.9437089,27.2202375 76.230973,27.8814115 76.1918966,28.8124105 C76.1390907,30.0688471 75.5043638,31.6167359 74.5961023,33.1893415 C73.4407092,33.3335227 72.311719,33.4807936 71.1954023,33.6321839 C71.917787,30.7434094 73.1217616,27.608497 74.3774859,26.7990222 M71.2445237,38.6321839 C71.2435917,38.6274141 71.2426596,38.6226442 71.2417276,38.6178743 C71.1131043,37.9892075 71.2603686,36.5906862 71.5837909,34.9946929 C72.4450075,34.8697227 73.3127485,34.7495223 74.1954023,34.6321839 C73.2969036,36.0831737 72.224111,37.4988665 71.2445237,38.6321839 M12.669974,63.3422348 C13.2492117,63.371621 13.8264383,63.3858075 14.4046704,63.3858075 C21.3434563,63.3858075 27.9835727,61.2953338 33.2580556,57.4214217 C36.0536824,55.3694541 38.847298,52.6081644 40.6262418,49.6016519 L40.7479219,49.6036785 C43.0407381,49.6320514 45.2842789,48.2995391 46.6710305,46.3813294 C47.44737,47.2608888 48.9236218,47.5334712 50.3596488,47.0389723 C51.224483,46.7390304 51.9364628,46.2242652 52.4644139,45.540276 C53.0416404,45.901017 53.8732891,45.9557361 54.7763369,45.667954 C55.3304341,45.4916368 55.8905651,45.1927082 56.4054431,44.7752214 C55.5194909,50.9706436 56.6015393,58.2057293 57.5810142,64.7639191 C57.9239311,67.0560428 58.2467354,69.221502 58.4569103,71.1792311 C58.4850677,71.4396536 58.7022818,71.6321839 58.9556983,71.6321839 C58.9748052,71.6321839 58.9929063,71.6311706 59.0110075,71.629144 C59.2875533,71.5987444 59.4866663,71.3484551 59.4564977,71.0708061 C59.2443116,69.0917974 58.919496,66.9162051 58.5745679,64.6139481 C57.520677,57.550113 56.3461115,49.6918371 57.6785595,43.3373241 C58.2527692,42.4293918 58.6479783,41.2843432 58.7173661,39.9194048 L58.7324505,39.881912 L58.720383,39.1756299 L58.2246118,39.1756299 L57.7318574,39.2759483 L57.71979,39.6985016 C57.3024572,40.7330986 56.9786472,41.823428 56.73227,42.9563168 C56.1158242,43.851076 55.288198,44.4428533 54.4726393,44.7022626 C53.8712778,44.8927662 53.3151694,44.8795931 52.992365,44.6759163 C53.3785235,43.8662758 53.5675803,42.902611 53.5343948,41.8335612 L53.4851193,40.2750792 L52.615257,41.5650321 C51.5593548,43.1316207 51.5724279,44.1408848 51.7956758,44.7296221 C51.3702981,45.3578789 50.7739647,45.8240049 50.0318163,46.0803741 C48.9638467,46.4512483 47.8103992,46.2536514 47.3508303,45.6193148 C47.3126167,45.5656089 47.2784256,45.5088632 47.2502682,45.4500908 C47.6927415,44.6100507 47.9692874,43.6970518 48.0195684,42.7678398 L48.1120856,41.0907996 L47.115515,42.436485 C46.1903435,43.6838787 46.0415116,44.6414635 46.1621862,45.3193728 C45.0891884,47.0774784 43.1634239,48.4262038 41.2185526,48.577188 C41.217547,48.5569217 41.2205639,48.5366553 41.2195582,48.5153757 C42.0481901,46.8484687 42.520832,45.1248159 42.5057477,43.4194028 C42.5168095,43.3575905 42.5147983,43.2957781 42.5027308,43.2349791 C42.475579,42.311847 42.3166909,41.3958081 41.9637179,40.4969957 C43.2901322,40.1899605 44.6185577,39.8950852 45.9439664,39.6194628 C57.3145246,37.2553935 64.0049221,35.9654406 70.7415782,34.9713763 C70.4157569,36.6990823 70.2900543,38.1886588 70.4318468,38.8756879 C70.4831335,39.1209107 70.5404539,39.3539737 70.6038081,39.5748769 C69.8616597,40.351078 69.2220846,40.9175223 68.8127968,41.1576786 C67.232966,42.0889172 65.7768266,42.3422465 65.4117861,41.9977186 C65.4007243,41.9875854 65.3896624,41.9754256 65.3796062,41.9622525 C65.9166079,41.213411 66.0865579,40.3743843 65.8371638,39.5394108 L65.4691065,38.3062036 L64.9059587,39.4613853 C64.7078513,39.8646856 64.2331981,40.8344303 64.2784511,41.69879 C63.8862588,42.1031036 63.4226675,42.3858192 63.1913746,42.5134971 C61.6688642,43.3545505 60.0397579,43.410283 59.5992959,42.8965311 C59.235261,42.4699245 59.596279,41.4495139 60.5667034,40.1666542 C60.7356478,39.9447377 60.6924061,39.6265561 60.4711694,39.4573321 C60.2529496,39.2870948 59.9371846,39.3296541 59.7672346,39.5525839 C58.0777911,41.784922 58.3291964,42.9623967 58.8370351,43.557214 C59.2423004,44.0314465 59.9120441,44.2351233 60.6763161,44.2351233 C61.6376899,44.2351233 62.7509125,43.9128884 63.676084,43.4021764 C64.0602313,43.1893798 64.4001312,42.9553035 64.6917614,42.7050141 C64.7028232,42.7161606 64.713885,42.7283204 64.7269581,42.7394669 C65.6883319,43.643346 67.8021476,42.924904 69.3196299,42.0331847 C69.727912,41.7930285 70.3162004,41.2954897 70.9960003,40.6185937 C71.4324399,41.5244994 72.0307845,42.1193167 72.7860059,42.394939 C75.2105585,43.2775384 78.4758104,40.6702729 81.1014872,38.5767593 C81.4212747,38.3224167 81.7289948,38.0771939 82.0186137,37.8522374 C82.2388447,37.6809868 82.2790695,37.3628052 82.1091196,37.1408887 C81.938164,36.9189722 81.6213933,36.8794528 81.4041791,37.0496901 C81.1115434,37.2776865 80.8008065,37.5249359 80.4780021,37.7823185 C78.1751297,39.6174362 75.0134568,42.1294499 73.1289228,41.4424207 C72.5446569,41.2296241 72.0830768,40.6885126 71.7502162,39.8322595 C73.1188665,38.3447096 74.691658,36.3231416 75.8893528,34.268134 C78.5170408,33.9347526 81.3126676,33.6155577 84.5236159,33.2710298 C89.8292731,32.7015454 93.3982225,33.3987078 95.4396334,35.4020361 C96.0500455,36.0009067 96.2843552,36.6261235 96.1536245,37.3131526 C95.3923693,41.3350091 83.490843,46.3276236 77.77087,48.7281723 C76.1769604,49.3959484 75.0265298,49.8793008 74.4734382,50.1792427 C74.2280667,50.3119873 74.1365551,50.6190225 74.2682915,50.8652586 C74.3990223,51.1114947 74.7047311,51.2037066 74.949097,51.0719753 C75.4589469,50.7953397 76.6496024,50.2957742 78.1580341,49.6624509 C84.4904304,47.0055329 96.2783215,42.0605443 97.1411444,37.5026429 C97.3372405,36.4700726 97.0013631,35.5185676 96.1405514,34.6754876 C93.8718701,32.4492294 90.0374367,31.6618819 84.4180257,32.2637924 C81.4936794,32.5779207 78.9152668,32.8697561 76.4937311,33.1707114 C77.2358795,31.713561 77.7356732,30.2837703 77.7849486,29.059683 C77.8362353,27.7879697 77.409852,26.8263316 76.5188716,26.2001015 C75.8803022,25.7512019 75.1632943,25.7491752 74.4975731,26.1930082 C72.9479109,27.2255786 71.6647384,30.7721892 70.9597979,33.9144863 C64.0813493,34.9176704 57.3406708,36.2147166 45.7418365,38.6274252 C44.3359782,38.9192606 42.9311254,39.2313623 41.5272783,39.5586638 C39.877054,36.5055387 36.7053249,35.0939877 33.6321467,33.7270226 C31.430842,32.748158 29.1551214,31.7348407 27.5672456,30.135826 C22.6216008,25.1553713 27.388245,17.7520749 28.9670702,15.6018155 C33.3787302,9.59183043 40.8183154,4.33170017 48.8683127,1.53089107 C52.1506601,0.38685581 54.4655999,0.347336434 55.9428574,1.40625304 C57.3989968,2.44996989 58.109971,4.60934912 58.1160047,8.00902876 C58.1170103,8.28870434 58.3422695,8.51467411 58.6188153,8.51467411 L58.6198209,8.51467411 C58.8983779,8.51467411 59.1226315,8.28769103 59.1216258,8.00700213 C59.1155921,4.25671469 58.2658422,1.82677974 56.525112,0.58039942 C54.7642694,-0.681180655 52.1536769,-0.684220607 48.5404802,0.573306199 C40.3064542,3.43795429 32.6858572,8.83082911 28.1575452,14.9988917 C26.4590511,17.3143218 21.3404395,25.2992623 26.8562714,30.8522413 C28.5768892,32.5860273 30.9400989,33.6368373 33.2248701,34.6531946 C36.1803907,35.9684805 38.9870793,37.2168875 40.5075785,39.7998333 C36.6449876,40.7199255 32.8035149,41.740336 29.0485255,42.7374403 C26.0256284,43.5410009 22.8991522,44.3719211 19.8169234,45.1359624 C19.0647188,45.3213995 18.2099408,45.5108898 17.285775,45.7145666 C11.594965,46.9720934 2.99288169,48.8730767 0.687998029,54.2831779 C-0.017948014,55.9379251 0.0353499066,57.4406747 0.844874927,58.7498807 C2.85913408,62.0056693 9.22471592,63.1689576 12.669974,63.3422348" id="Fill-1"></path>
                        </g>
                    </g>
                </g>
            </g>
        </g>
    </g>
</svg>