<svg id="Group_100" data-name="Group 100" xmlns="http://www.w3.org/2000/svg" xmlns:xlink="http://www.w3.org/1999/xlink" width="140.578" height="131.052" viewBox="0 0 140.578 131.052">
  <defs>
    <clipPath id="clip-path">
      <rect id="Rectangle_52" data-name="Rectangle 52" width="140.578" height="131.052" fill="#1f4181"/>
    </clipPath>
  </defs>
  <g id="Group_99" data-name="Group 99" transform="translate(0 0)" clip-path="url(#clip-path)">
    <path id="Path_107" data-name="Path 107" d="M34.985,74.074H5.9A5.289,5.289,0,0,1,.614,68.793V39.709A5.29,5.29,0,0,1,5.9,34.425H34.985a5.289,5.289,0,0,1,5.284,5.284V68.793a5.288,5.288,0,0,1-5.284,5.281m0-5.31v0Zm-.027-29.055L5.9,39.735l.024,29.058,29.034-.029Z" transform="translate(1.016 56.977)" fill="#1f4181"/>
    <path id="Path_108" data-name="Path 108" d="M53.376,74.074H24.291a5.289,5.289,0,0,1-5.286-5.281V39.709a5.29,5.29,0,0,1,5.286-5.284H53.376a5.289,5.289,0,0,1,5.284,5.284V68.793a5.288,5.288,0,0,1-5.284,5.281m0-5.31v0Zm-.027-29.055-29.058.027.024,29.058,29.034-.029Z" transform="translate(31.456 56.977)" fill="#1f4181"/>
    <path id="Path_109" data-name="Path 109" d="M71.768,74.074H42.683A5.289,5.289,0,0,1,37.4,68.793V39.709a5.29,5.29,0,0,1,5.286-5.284H71.768a5.289,5.289,0,0,1,5.284,5.284V68.793a5.288,5.288,0,0,1-5.284,5.281m0-5.31v0Zm-.027-29.055-29.058.027.024,29.058,29.034-.029Z" transform="translate(61.897 56.977)" fill="#1f4181"/>
    <path id="Path_110" data-name="Path 110" d="M28.131,47.2a2.653,2.653,0,0,1-2.655-2.655V18.728a2.655,2.655,0,0,1,5.31,0V44.541A2.653,2.653,0,0,1,28.131,47.2" transform="translate(42.166 26.602)" fill="#1f4181"/>
    <path id="Path_111" data-name="Path 111" d="M37.146,43.573,20.8,27.228a2.655,2.655,0,1,1,3.754-3.754L37.146,36.064,49.736,23.473a2.655,2.655,0,1,1,3.754,3.754Z" transform="translate(33.143 37.562)" fill="#1f4181"/>
    <path id="Path_112" data-name="Path 112" d="M135.207,44.367H5.371A5.377,5.377,0,0,1,0,39V5.371A5.377,5.377,0,0,1,5.371,0H135.207a5.376,5.376,0,0,1,5.371,5.371V39a5.376,5.376,0,0,1-5.371,5.371M5.371,5.31,5.31,39l129.9.061a.064.064,0,0,0,.061-.061V5.371Z" transform="translate(0 -0.001)" fill="#1f4181"/>
  </g>
</svg>
