<svg id="Group_96" data-name="Group 96" xmlns="http://www.w3.org/2000/svg" xmlns:xlink="http://www.w3.org/1999/xlink" width="138" height="142.354" viewBox="0 0 138 142.354">
  <defs>
    <clipPath id="clip-path">
      <rect id="Rectangle_50" data-name="Rectangle 50" width="138" height="142.355" fill="#1f4181"/>
    </clipPath>
  </defs>
  <g id="Group_95" data-name="Group 95" transform="translate(0 0)" clip-path="url(#clip-path)">
    <path id="Path_96" data-name="Path 96" d="M33.314,38.433H5.122A5.125,5.125,0,0,1,0,33.314V5.122A5.125,5.125,0,0,1,5.122,0H33.314a5.127,5.127,0,0,1,5.122,5.122V33.314a5.126,5.126,0,0,1-5.122,5.119m0-5.147V35.86l0-2.574ZM33.288,5.122,5.122,5.147l.026,28.167,28.141-.028Z" transform="translate(0 0.001)" fill="#1f4181"/>
    <path id="Path_97" data-name="Path 97" d="M24.872,58.624H13.566A13.583,13.583,0,0,1,0,45.058v-11.3A13.581,13.581,0,0,1,13.566,20.188H24.872A13.579,13.579,0,0,1,38.436,33.754v11.3A13.581,13.581,0,0,1,24.872,58.624M13.566,25.335a8.427,8.427,0,0,0-8.419,8.419v11.3a8.427,8.427,0,0,0,8.419,8.419H24.872a8.426,8.426,0,0,0,8.416-8.419v-11.3a8.426,8.426,0,0,0-8.416-8.419Z" transform="translate(0 31.771)" fill="#1f4181"/>
    <path id="Path_98" data-name="Path 98" d="M24.872,78.814H13.566A13.583,13.583,0,0,1,0,65.248V53.942A13.583,13.583,0,0,1,13.566,40.376H24.872A13.581,13.581,0,0,1,38.436,53.942V65.248A13.581,13.581,0,0,1,24.872,78.814M13.566,45.523a8.429,8.429,0,0,0-8.419,8.419V65.248a8.427,8.427,0,0,0,8.419,8.419H24.872a8.426,8.426,0,0,0,8.416-8.419V53.942a8.428,8.428,0,0,0-8.416-8.419Z" transform="translate(0 63.541)" fill="#1f4181"/>
    <path id="Path_99" data-name="Path 99" d="M52.659,38.433H24.466a5.127,5.127,0,0,1-5.124-5.119V5.122A5.127,5.127,0,0,1,24.466,0H52.659A5.127,5.127,0,0,1,57.78,5.122V33.314a5.126,5.126,0,0,1-5.122,5.119m0-5.147v0ZM52.633,5.122l-28.167.026.023,28.167,28.144-.028Z" transform="translate(30.439 0.001)" fill="#1f4181"/>
    <path id="Path_100" data-name="Path 100" d="M44.214,58.624H32.908A13.583,13.583,0,0,1,19.342,45.058v-11.3A13.581,13.581,0,0,1,32.908,20.188H44.214A13.581,13.581,0,0,1,57.78,33.754v11.3A13.583,13.583,0,0,1,44.214,58.624M32.908,25.335a8.427,8.427,0,0,0-8.419,8.419v11.3a8.427,8.427,0,0,0,8.419,8.419H44.214a8.429,8.429,0,0,0,8.419-8.419v-11.3a8.429,8.429,0,0,0-8.419-8.419Z" transform="translate(30.439 31.771)" fill="#1f4181"/>
    <path id="Path_101" data-name="Path 101" d="M52.659,78.812H24.466a5.127,5.127,0,0,1-5.124-5.122V45.5a5.127,5.127,0,0,1,5.124-5.122H52.659A5.127,5.127,0,0,1,57.78,45.5V73.69a5.127,5.127,0,0,1-5.122,5.122m0-5.147v0ZM52.633,45.5l-28.167.026.023,28.167,28.144-.026Z" transform="translate(30.439 63.541)" fill="#1f4181"/>
    <path id="Path_102" data-name="Path 102" d="M63.557,38.436H52.251A13.583,13.583,0,0,1,38.685,24.87v-11.3A13.581,13.581,0,0,1,52.251,0H63.557A13.581,13.581,0,0,1,77.123,13.566v11.3A13.583,13.583,0,0,1,63.557,38.436M52.251,5.147a8.429,8.429,0,0,0-8.419,8.419v11.3a8.429,8.429,0,0,0,8.419,8.419H63.557a8.429,8.429,0,0,0,8.419-8.419v-11.3a8.429,8.429,0,0,0-8.419-8.419Z" transform="translate(60.879 0.001)" fill="#1f4181"/>
    <path id="Path_103" data-name="Path 103" d="M72,58.622H43.807A5.125,5.125,0,0,1,38.685,53.5V25.311a5.125,5.125,0,0,1,5.122-5.122H72a5.127,5.127,0,0,1,5.122,5.122V53.5A5.127,5.127,0,0,1,72,58.622m0-5.147v0Zm-.026-28.164-28.167.026L43.832,53.5l28.141-.026Z" transform="translate(60.879 31.773)" fill="#1f4181"/>
    <path id="Path_104" data-name="Path 104" d="M63.557,78.814H52.251A13.583,13.583,0,0,1,38.685,65.248V53.942A13.583,13.583,0,0,1,52.251,40.376H63.557A13.583,13.583,0,0,1,77.123,53.942V65.248A13.583,13.583,0,0,1,63.557,78.814M52.251,45.523a8.43,8.43,0,0,0-8.419,8.419V65.248a8.429,8.429,0,0,0,8.419,8.419H63.557a8.429,8.429,0,0,0,8.419-8.419V53.942a8.43,8.43,0,0,0-8.419-8.419Z" transform="translate(60.879 63.541)" fill="#1f4181"/>
  </g>
</svg>
