<svg id="Group_98" data-name="Group 98" xmlns="http://www.w3.org/2000/svg" xmlns:xlink="http://www.w3.org/1999/xlink" width="144.917" height="142.354" viewBox="0 0 144.917 142.354">
  <defs>
    <clipPath id="clip-path">
      <rect id="Rectangle_51" data-name="Rectangle 51" width="144.917" height="142.354" fill="#1f4181"/>
    </clipPath>
  </defs>
  <g id="Group_97" data-name="Group 97" transform="translate(0 0)" clip-path="url(#clip-path)">
    <path id="Path_105" data-name="Path 105" d="M89.421,96.219H6.8a6.806,6.806,0,0,1-6.8-6.8V6.8A6.807,6.807,0,0,1,6.8,0H89.421a6.807,6.807,0,0,1,6.8,6.8V89.423a6.807,6.807,0,0,1-6.8,6.8M6.8,4.8A2,2,0,0,0,4.8,6.8V89.423A1.994,1.994,0,0,0,6.8,91.414H89.421a2,2,0,0,0,2-1.991V6.8a2,2,0,0,0-2-1.994Z" transform="translate(0 0.001)" fill="#1f4181"/>
    <path id="Path_106" data-name="Path 106" d="M68.668,117.418A49.817,49.817,0,1,1,118.487,67.6a49.873,49.873,0,0,1-49.818,49.818m0-94.83A45.013,45.013,0,1,0,113.683,67.6,45.064,45.064,0,0,0,68.668,22.588" transform="translate(26.428 24.935)" fill="#1f4181"/>
  </g>
</svg>
