<svg id="Group_102" data-name="Group 102" xmlns="http://www.w3.org/2000/svg" xmlns:xlink="http://www.w3.org/1999/xlink" width="143.424" height="143.424" viewBox="0 0 143.424 143.424">
  <defs>
    <clipPath id="clip-path">
      <rect id="Rectangle_53" data-name="Rectangle 53" width="143.424" height="143.424" fill="#1f4181"/>
    </clipPath>
  </defs>
  <g id="Group_101" data-name="Group 101" transform="translate(0 0)" clip-path="url(#clip-path)">
    <path id="Path_113" data-name="Path 113" d="M104.131,122.546H94.306a2.764,2.764,0,0,1,0-5.528h9.825v.29a2.764,2.764,0,0,1,0,4.967Zm-26.991,0H68.556a2.764,2.764,0,0,1,0-5.528H77.14a2.764,2.764,0,0,1,0,5.528m-25.75,0H42.806a2.764,2.764,0,0,1,0-5.528H51.39a2.764,2.764,0,0,1,0,5.528m-25.747,0H17.055a2.764,2.764,0,0,1,0-5.528h8.587a2.764,2.764,0,0,1,0,5.528M2.764,117.494A2.754,2.754,0,0,1,0,114.738v-8.582a2.764,2.764,0,0,1,5.528,0v8.571a2.765,2.765,0,0,1-2.764,2.767m105.184-9.284a2.761,2.761,0,0,1-2.764-2.764V96.865a2.764,2.764,0,0,1,5.528,0v8.582a2.761,2.761,0,0,1-2.764,2.764M2.764,91.755A2.761,2.761,0,0,1,0,88.991V80.407a2.764,2.764,0,0,1,5.528,0v8.584a2.761,2.761,0,0,1-2.764,2.764M107.948,82.46a2.763,2.763,0,0,1-2.764-2.764V71.112a2.764,2.764,0,0,1,5.528,0V79.7a2.763,2.763,0,0,1-2.764,2.764M2.764,66A2.763,2.763,0,0,1,0,63.241V54.656a2.764,2.764,0,1,1,5.528,0v8.584A2.763,2.763,0,0,1,2.764,66M107.948,56.71a2.761,2.761,0,0,1-2.764-2.764V45.365a2.764,2.764,0,0,1,5.528,0v8.582a2.761,2.761,0,0,1-2.764,2.764M2.764,40.254A2.761,2.761,0,0,1,0,37.49V28.906a2.764,2.764,0,0,1,5.528,0V37.49a2.761,2.761,0,0,1-2.764,2.764M107.948,30.96a2.761,2.761,0,0,1-2.764-2.764l0-8.584a2.763,2.763,0,0,1,5.5-.354l.028.4V28.2a2.761,2.761,0,0,1-2.764,2.764m-14.322-13.6H85.042a2.764,2.764,0,0,1,0-5.528h8.584a2.764,2.764,0,0,1,0,5.528m-25.75,0H59.292a2.764,2.764,0,1,1,0-5.528h8.584a2.764,2.764,0,1,1,0,5.528m-25.75,0H33.544a2.764,2.764,0,1,1,0-5.528h8.582a2.764,2.764,0,1,1,0,5.528m-25.75,0H7.822a2.764,2.764,0,0,1-.028-5.528h8.582a2.764,2.764,0,1,1,0,5.528" transform="translate(0 20.879)" fill="#1f4181"/>
    <path id="Path_114" data-name="Path 114" d="M133,143.424H117.967a2.764,2.764,0,0,1,0-5.528H133A4.9,4.9,0,0,0,137.9,133V10.425A4.9,4.9,0,0,0,133,5.528H10.419a4.9,4.9,0,0,0-4.892,4.9V25.537a2.764,2.764,0,0,1-5.528,0V10.425A10.433,10.433,0,0,1,10.419,0H133a10.436,10.436,0,0,1,10.422,10.425V133A10.433,10.433,0,0,1,133,143.424" transform="translate(0 0.001)" fill="#1f4181"/>
  </g>
</svg>
