<svg id="Group_94" data-name="Group 94" xmlns="http://www.w3.org/2000/svg" xmlns:xlink="http://www.w3.org/1999/xlink" width="133.203" height="142.354" viewBox="0 0 133.203 142.354">
  <defs>
    <clipPath id="clip-path">
      <rect id="Rectangle_49" data-name="Rectangle 49" width="133.203" height="142.355" fill="#1f4181"/>
    </clipPath>
  </defs>
  <g id="Group_93" data-name="Group 93" transform="translate(0 0)" clip-path="url(#clip-path)">
    <path id="Path_90" data-name="Path 90" d="M124.256,10.2H2.378a2.378,2.378,0,1,1,0-4.757H124.256a2.378,2.378,0,0,1,0,4.757" transform="translate(0 7.505)" fill="#1f4181"/>
    <path id="Path_91" data-name="Path 91" d="M50.524,30.673a2.377,2.377,0,0,1-1.681-4.057L60.12,15.337,48.842,4.061A2.379,2.379,0,0,1,52.205.7L66.846,15.337,52.205,29.976a2.372,2.372,0,0,1-1.681.7" transform="translate(66.359 0)" fill="#1f4181"/>
    <path id="Path_92" data-name="Path 92" d="M3.815,66.212c-.49,0-.982,0-1.479-.012a2.379,2.379,0,0,1,.043-4.757H5.244c25.108-.457,38.481-13.124,52.611-26.506C73.222,20.38,89.111,5.332,120.676,5.332a2.378,2.378,0,0,1,0,4.757c-29.67,0-44.86,14.386-59.549,28.3-9.275,8.781-18.751,17.754-31.734,23.053h94.862a2.378,2.378,0,1,1,0,4.757h-119c-.476.01-.956.012-1.441.012" transform="translate(0 7.348)" fill="#1f4181"/>
    <path id="Path_93" data-name="Path 93" d="M3.815,89.694c-.49,0-.982,0-1.479-.012a2.379,2.379,0,0,1,.043-4.757H5.244C30.352,84.469,43.726,71.8,57.855,58.419c15.366-14.558,31.256-29.605,62.821-29.605a2.378,2.378,0,0,1,0,4.757c-29.67,0-44.86,14.386-59.549,28.3-9.275,8.781-18.751,17.754-31.734,23.053h94.862a2.378,2.378,0,1,1,0,4.757h-119c-.476.01-.956.012-1.441.012" transform="translate(0 39.714)" fill="#1f4181"/>
    <path id="Path_94" data-name="Path 94" d="M50.524,54.155a2.378,2.378,0,0,1-1.681-4.06L60.12,38.817,48.842,27.539a2.378,2.378,0,0,1,3.363-3.363L66.846,38.817,52.205,53.458a2.372,2.372,0,0,1-1.681.7" transform="translate(66.359 32.36)" fill="#1f4181"/>
    <path id="Path_95" data-name="Path 95" d="M50.524,77.632a2.378,2.378,0,0,1-1.681-4.06L60.12,62.3,48.842,51.018a2.378,2.378,0,0,1,3.363-3.363L66.846,62.3,52.205,76.935a2.372,2.372,0,0,1-1.681.7" transform="translate(66.359 64.722)" fill="#1f4181"/>
  </g>
</svg>
