<?xml version="1.0" encoding="UTF-8"?>
<svg width="35px" height="29px" viewBox="0 0 35 29" version="1.1" xmlns="http://www.w3.org/2000/svg" xmlns:xlink="http://www.w3.org/1999/xlink">
    <title>streamlinehq-social-media-twitter-logos-48</title>
    <g id="landingpage" stroke="none" stroke-width="1" fill="none" fill-rule="evenodd" stroke-linecap="round" stroke-linejoin="round">
        <g id="homepage" transform="translate(-1327.000000, -11654.000000)" stroke="#FFFFFF" stroke-width="2.5">
            <g id="footer" transform="translate(-161.000000, 11508.000000)">
                <g id="socials" transform="translate(1382.000000, 145.000000)">
                    <g id="streamlinehq-social-media-twitter-logos-48" transform="translate(108.000000, 3.000000)">
                        <path d="M31.25,5.10548895 L28.3137584,3.84660127 L29.8517897,0.489567434 L26.2723714,1.67851692 C25.1322793,0.615357013 23.6362479,0.0167074335 22.0777405,0 C18.6059845,0.00769245585 15.7934836,2.82130739 15.7857942,6.29443844 L15.7857942,7.69320253 C10.8361298,8.71430033 6.51565996,6.01468562 2.50279642,1.3987641 C1.80369128,5.12880169 2.50279642,7.92632988 4.60011186,9.79134868 L0,9.09196663 C0.366783857,12.1496297 2.86934054,14.5059101 5.94239374,14.687023 L2.09731544,16.0857871 C3.49552573,18.8833153 6.04026846,19.3169322 9.43791946,19.5826974 C6.6608212,21.4775799 3.36070054,22.4557808 0,22.3802256 C17.8411633,30.311218 28.3137584,18.6595131 28.3137584,8.39258458 L28.3137584,7.23161038 L31.25,5.10548895 Z" id="Path"></path>
                    </g>
                </g>
            </g>
        </g>
    </g>
</svg>