<?xml version="1.0" encoding="UTF-8"?>
<svg width="362px" height="81px" viewBox="0 0 362 81" version="1.1" xmlns="http://www.w3.org/2000/svg"
     xmlns:xlink="http://www.w3.org/1999/xlink">
    <title>visual</title>
    <g id="landingpage" stroke="none" stroke-width="1" fill="none" fill-rule="evenodd">
        <g id="homepage" transform="translate(-230.000000, -644.000000)" fill="#F04E36">
            <g id="hero" transform="translate(-560.000000, -285.000000)">
                <g id="visual" transform="translate(790.000000, 929.000000)">
                    <path fill="#F9A156" d="M251.745808,80 L256.959437,74.7767957 C263.918437,67.5266328 275.191316,56.301812 275.191316,49.9218355 C275.191316,56.3001434 286.460449,67.5220441 293.419865,74.7734585 L298.637241,80 L313.766007,62.1382349 L291.669498,39.9997914 L314,17.6269065 L298.637241,0 L293.419865,5.22654152 C286.460449,12.4779559 275.191316,23.6994394 275.191316,30.0781645 C275.191316,23.698188 263.918437,12.4733672 256.959437,5.22278712 L251.745808,0 L236.2698,17.5134402 L258.713551,39.9997914 L236,62.7564594 L251.745808,80 Z"
                          id="Fill-1"/>
                    <path fill="#F9A156" d="M204.618291,80 L209.847636,74.7767957 C216.827612,67.5266328 228.134471,56.301812 228.134471,49.9218355 C228.134471,56.3001434 239.437572,67.5220441 246.417966,74.7734585 L251.651069,80 L266.936523,62.2496154 L244.662323,39.9997914 L267,17.6873941 L251.651069,0 L246.417966,5.22654152 C239.437572,12.4779559 228.134471,23.6994394 228.134471,30.0781645 C228.134471,23.698188 216.827612,12.4733672 209.847636,5.22278712 L204.618291,0 L189.347871,17.7658193 L211.607037,39.9997914 L189,62.5816712 L204.618291,80 Z"
                          id="Fill-3"/>
                    <path fill="#F9A156" d="M157.618291,80 L162.847636,74.7767957 C169.827612,67.5266328 181.134471,56.301812 181.134471,49.9218355 C181.134471,56.3001434 192.437572,67.5220441 199.417966,74.7734585 L204.651069,80 L219.936523,62.2496154 L197.662323,39.9997914 L220,17.6873941 L204.651069,0 L199.417966,5.22654152 C192.437572,12.4779559 181.134471,23.6994394 181.134471,30.0781645 C181.134471,23.698188 169.827612,12.4733672 162.847636,5.22278712 L157.618291,0 L142.347871,17.7658193 L164.607037,39.9997914 L142,62.5816712 L157.618291,80 Z"
                          id="Fill-5"/>
                    <path fill="#F9A156" d="M111.618291,80 L116.847636,74.7767957 C123.827612,67.5266328 135.134471,56.301812 135.134471,49.9218355 C135.134471,56.3001434 146.437572,67.5220441 153.417966,74.7734585 L158.651069,80 L173.936523,62.2496154 L151.662323,39.9997914 L174,17.6873941 L158.651069,0 L153.417966,5.22654152 C146.437572,12.4779559 135.134471,23.6994394 135.134471,30.0781645 C135.134471,23.698188 123.827612,12.4733672 116.847636,5.22278712 L111.618291,0 L96.3478712,17.7658193 L118.607037,39.9997914 L96,62.5816712 L111.618291,80 Z"
                          id="Fill-7"/>
                    <path fill="#F9A156" d="M15.6182914,80 L20.8476357,74.7767957 C27.8276117,67.5266328 39.1344712,56.301812 39.1344712,49.9218355 C39.1344712,56.3001434 50.4375723,67.5220441 57.4179659,74.7734585 L62.6510687,80 L77.9365229,62.2496154 L55.6623228,39.9997914 L78,17.6873941 L62.6510687,0 L57.4179659,5.22654152 C50.4375723,12.4779559 39.1344712,23.6994394 39.1344712,30.0781645 C39.1344712,23.698188 27.8276117,12.4733672 20.8476357,5.22278712 L15.6182914,0 L0.347871247,17.7658193 L22.6070373,39.9997914 L0,62.5816712 L15.6182914,80 Z"
                          id="Fill-11"/>
                    <path fill="#F9A156" d="M299.618291,80 L304.847636,74.7767957 C311.827612,67.5266328 323.134471,56.301812 323.134471,49.9218355 C323.134471,56.3001434 334.437572,67.5220441 341.417966,74.7734585 L346.651069,80 L361.936523,62.2496154 L339.662323,39.9997914 L362,17.6873941 L346.651069,0 L341.417966,5.22654152 C334.437572,12.4779559 323.134471,23.6994394 323.134471,30.0781645 C323.134471,23.698188 311.827612,12.4733672 304.847636,5.22278712 L299.618291,0 L284.347871,17.7658193 L306.607037,39.9997914 L284,62.5816712 L299.618291,80 Z"
                          id="Fill-14"/>
                    <path fill="#F9A156" d="M62.4972211,80.4207275 L67.6860284,75.1700539 C74.6118968,67.8817616 85.8311075,56.5979085 85.8311075,50.1843791 C85.8311075,56.5962311 97.0465888,67.8771488 103.972872,75.1666991 L111.330006,81 L126,64.9848752 L102.230838,40.2101541 L126,16.0797814 L111.330006,0 L103.972872,6.35058677 C97.0465888,13.6401371 85.8311075,23.824077 85.8311075,30.2363484 C85.8311075,23.822819 74.6118968,12.5389658 67.6860284,5.25025424 L62.4972211,0 L47.3451746,17.8592514 L69.4317914,40.2101541 L47,62.9107941 L62.4972211,80.4207275 Z"
                          id="Fill-9"/>
                </g>
            </g>
        </g>
    </g>
</svg>